<svg xmlns="http://www.w3.org/2000/svg" xmlns:xlink="http://www.w3.org/1999/xlink" id="svg" version="1.1"   viewBox="0 0 400 285.2320675105485"><g id="svgg"><path id="path0" d="M142.076 26.124 C 141.913 26.553,141.797 31.317,141.797 37.622 C 141.797 45.615,141.709 48.476,141.455 48.730 C 141.194 48.991,135.646 49.073,118.226 49.073 C 105.638 49.073,95.136 49.151,94.888 49.246 C 94.297 49.473,94.192 70.968,94.779 71.555 C 95.033 71.809,97.923 71.897,106.017 71.897 C 115.975 71.897,116.964 71.940,117.512 72.397 C 118.100 72.886,118.113 73.112,118.185 84.071 C 118.226 90.217,118.366 95.352,118.497 95.483 C 118.628 95.614,123.755 95.757,129.892 95.801 C 137.400 95.856,141.172 95.984,141.423 96.193 C 141.720 96.439,141.798 98.760,141.801 107.382 C 141.803 113.365,141.883 118.549,141.977 118.902 L 142.149 119.544 153.362 119.544 C 159.529 119.544,164.778 119.621,165.027 119.717 C 165.804 120.015,165.705 167.048,164.926 167.465 C 164.574 167.653,160.468 167.762,153.585 167.765 C 147.291 167.767,142.618 167.882,142.368 168.039 C 142.002 168.271,141.929 169.922,141.864 179.519 C 141.789 190.497,141.775 190.738,141.190 191.227 C 140.644 191.683,139.649 191.726,129.533 191.726 L 118.474 191.726 118.295 192.618 C 118.061 193.789,118.063 234.907,118.298 236.617 L 118.479 237.936 141.679 238.012 C 157.741 238.065,164.973 238.183,165.185 238.395 C 165.391 238.601,165.513 242.410,165.556 249.998 C 165.592 256.210,165.728 261.400,165.858 261.531 C 166.122 261.795,253.939 261.905,257.347 261.646 L 259.486 261.484 259.486 250.357 L 259.486 239.230 248.085 239.155 C 240.690 239.107,236.580 238.976,236.388 238.784 C 236.197 238.595,236.040 234.377,235.949 227.019 L 235.806 215.549 224.394 215.477 C 214.069 215.411,212.947 215.358,212.625 214.923 C 212.121 214.242,212.107 191.431,212.611 190.927 C 212.866 190.672,215.888 190.585,224.451 190.585 L 235.949 190.585 235.949 179.087 C 235.949 170.525,236.036 167.502,236.291 167.247 C 236.546 166.992,239.569 166.904,248.131 166.904 L 259.629 166.904 259.629 155.652 C 259.629 146.963,259.548 144.346,259.272 144.168 C 259.076 144.041,253.937 143.917,247.851 143.893 C 241.765 143.868,236.597 143.776,236.367 143.688 C 236.009 143.550,235.949 141.864,235.949 131.963 C 235.949 125.603,235.917 120.374,235.877 120.342 C 235.838 120.311,230.542 120.215,224.108 120.128 L 212.411 119.971 212.338 84.648 C 212.289 60.624,212.361 49.148,212.562 48.771 C 212.848 48.237,213.262 48.217,223.762 48.213 C 229.758 48.211,234.954 48.132,235.307 48.037 L 235.949 47.865 235.949 36.802 C 235.949 26.977,235.898 25.719,235.497 25.565 C 235.249 25.470,214.190 25.392,188.700 25.392 L 142.354 25.392 142.076 26.124 M23.110 155.346 L 23.110 166.898 34.879 166.973 L 46.648 167.047 46.790 178.745 L 46.933 190.442 81.954 190.515 C 101.216 190.555,116.999 190.555,117.028 190.515 C 117.248 190.212,117.352 166.984,117.133 167.204 C 116.612 167.725,47.602 167.555,46.854 167.031 L 46.220 166.587 46.220 155.486 C 46.220 144.803,46.199 144.374,45.668 144.090 C 45.315 143.901,41.152 143.795,34.113 143.795 L 23.110 143.795 23.110 155.346 M118.149 144.184 C 117.921 144.459,117.830 147.832,117.838 155.742 L 117.851 166.911 129.325 166.836 L 140.799 166.762 140.878 155.920 C 140.922 149.957,140.887 144.790,140.802 144.437 L 140.645 143.795 129.559 143.795 C 120.545 143.795,118.412 143.867,118.149 144.184 " stroke="none" fill="#fadf2d" fill-rule="evenodd"/><path id="path1" d="M260.132 37.161 L 260.057 48.930 248.359 49.073 L 236.662 49.215 236.589 84.379 L 236.517 119.544 247.907 119.544 C 254.172 119.544,259.500 119.621,259.748 119.717 C 260.150 119.871,260.200 121.181,260.200 131.557 L 260.200 143.224 295.435 143.224 L 330.670 143.224 330.670 107.985 L 330.670 72.747 319.472 72.821 L 308.274 72.896 308.203 96.148 C 308.137 117.607,308.094 119.428,307.649 119.757 C 306.967 120.262,284.155 120.275,283.652 119.772 C 283.043 119.163,283.169 72.940,283.781 72.432 C 284.160 72.117,286.495 72.024,295.621 71.959 L 306.990 71.879 306.990 60.476 L 306.990 49.073 295.445 49.073 C 284.323 49.073,283.889 49.053,283.605 48.521 C 283.416 48.167,283.310 43.916,283.310 36.681 L 283.310 25.392 271.758 25.392 L 260.206 25.392 260.132 37.161 M354.826 71.517 C 354.465 71.879,354.638 72.183,355.207 72.183 C 355.524 72.183,355.777 71.992,355.777 71.755 C 355.777 71.320,355.174 71.169,354.826 71.517 M21.683 75.045 C 21.683 77.383,21.759 77.889,22.111 77.889 C 22.458 77.889,22.539 77.429,22.539 75.464 C 22.539 73.716,22.440 73.037,22.183 73.034 C 21.916 73.031,21.922 72.969,22.207 72.789 C 22.513 72.594,22.499 72.514,22.135 72.374 C 21.742 72.223,21.683 72.567,21.683 75.045 M7.703 95.435 C 7.999 95.792,9.100 95.863,14.300 95.863 C 19.658 95.863,20.542 95.802,20.542 95.435 C 20.542 95.067,19.619 95.007,13.945 95.007 C 8.113 95.007,7.389 95.057,7.703 95.435 M20.827 95.435 C 20.827 95.673,21.081 95.863,21.398 95.863 C 21.715 95.863,21.969 95.673,21.969 95.435 C 21.969 95.197,21.715 95.007,21.398 95.007 C 21.081 95.007,20.827 95.197,20.827 95.435 M23.110 120.113 L 23.110 143.795 34.113 143.795 C 41.152 143.795,45.315 143.901,45.668 144.090 C 46.199 144.374,46.220 144.803,46.220 155.486 L 46.220 166.587 46.854 167.031 C 47.748 167.657,116.518 167.696,117.342 167.071 C 117.816 166.711,117.850 165.913,117.839 155.629 C 117.830 147.798,117.920 144.460,118.149 144.184 C 118.412 143.867,120.541 143.795,129.559 143.795 L 140.645 143.795 140.801 143.153 C 140.887 142.800,140.922 137.504,140.878 131.384 L 140.799 120.257 129.101 120.106 C 122.668 120.023,117.373 119.927,117.336 119.892 C 117.298 119.857,117.234 114.597,117.193 108.203 L 117.118 96.576 70.114 96.504 L 23.110 96.432 23.110 120.113 M379.363 166.239 C 379.035 166.567,379.155 166.904,379.601 166.904 C 379.836 166.904,380.029 166.712,380.029 166.476 C 380.029 166.031,379.691 165.910,379.363 166.239 " stroke="none" fill="#fafafa" fill-rule="evenodd"/><path id="path2" d="M260.542 167.817 C 259.955 168.405,260.060 190.470,260.651 190.697 C 261.834 191.151,377.410 190.880,377.868 190.422 C 378.403 189.887,378.394 190.123,378.321 178.033 C 378.288 172.744,378.142 168.253,377.994 167.976 C 377.652 167.336,261.180 167.179,260.542 167.817 M119.544 191.441 C 119.544 191.624,122.307 191.726,127.264 191.726 C 132.338 191.726,134.923 191.628,134.807 191.441 C 134.697 191.262,131.809 191.155,127.087 191.155 C 122.248 191.155,119.544 191.258,119.544 191.441 M237.803 191.432 L 236.662 191.583 236.587 202.834 C 236.529 211.645,236.591 214.134,236.873 214.313 C 237.778 214.888,259.306 214.584,259.622 213.992 C 259.983 213.320,259.898 191.899,259.534 191.536 C 259.275 191.278,239.671 191.184,237.803 191.432 M212.293 213.854 C 212.279 214.177,212.470 214.691,212.717 214.995 C 212.964 215.300,213.079 215.379,212.972 215.170 C 212.865 214.962,212.674 214.448,212.547 214.029 C 212.363 213.417,212.312 213.383,212.293 213.854 M233.167 215.318 C 233.442 215.390,233.891 215.390,234.165 215.318 C 234.440 215.246,234.215 215.187,233.666 215.187 C 233.117 215.187,232.892 215.246,233.167 215.318 M260.390 215.311 C 259.927 215.775,260.180 237.877,260.651 238.058 C 262.065 238.601,354.047 238.229,354.341 237.679 C 354.875 236.681,354.733 216.115,354.188 215.570 C 353.719 215.101,260.856 214.846,260.390 215.311 M164.836 238.754 C 165.405 239.350,165.627 239.316,165.379 238.671 C 165.287 238.429,165.014 238.231,164.774 238.231 C 164.404 238.231,164.414 238.312,164.836 238.754 " stroke="none" fill="#f25424" fill-rule="evenodd"/><path id="path3" d="M142.083 12.981 L 142.083 24.251 188.850 24.251 C 214.572 24.251,235.820 24.329,236.068 24.424 C 236.469 24.578,236.519 25.889,236.519 36.264 L 236.519 47.932 248.074 47.932 L 259.629 47.932 259.629 36.434 C 259.629 27.871,259.717 24.848,259.971 24.593 C 260.226 24.338,263.250 24.251,271.815 24.251 L 283.316 24.251 283.242 13.053 L 283.167 1.854 212.625 1.783 L 142.083 1.711 142.083 12.981 M94.790 25.624 C 94.508 25.807,94.446 28.243,94.504 36.824 L 94.579 47.789 117.618 47.862 L 140.656 47.935 140.656 36.840 L 140.656 25.744 139.981 25.615 C 138.740 25.378,95.155 25.386,94.790 25.624 M284.807 25.591 C 284.531 25.695,284.451 28.208,284.451 36.828 L 284.451 47.932 295.720 47.932 L 306.990 47.932 306.990 36.837 L 306.990 25.742 305.777 25.569 C 304.381 25.368,285.344 25.388,284.807 25.591 M70.755 49.715 C 70.711 72.837,70.734 71.919,70.190 72.463 C 69.696 72.958,68.554 72.981,46.544 72.952 C 33.825 72.934,23.353 72.986,23.273 73.065 C 23.194 73.145,23.116 78.211,23.100 84.323 L 23.071 95.435 69.667 95.578 C 95.294 95.656,116.423 95.675,116.619 95.619 C 116.897 95.539,116.976 93.024,116.976 84.278 L 116.976 73.039 114.194 73.027 C 95.155 72.946,94.118 72.913,93.727 72.378 C 93.428 71.969,93.343 69.550,93.328 60.965 C 93.318 54.974,93.306 49.911,93.302 49.715 C 93.297 49.436,90.847 49.358,82.026 49.358 C 73.201 49.358,70.756 49.435,70.755 49.715 M213.024 49.997 C 212.801 50.850,212.794 118.080,213.016 118.902 L 213.191 119.544 224.570 119.544 L 235.949 119.544 235.949 84.451 L 235.949 49.358 224.570 49.358 L 213.191 49.358 213.024 49.997 M308.199 60.414 L 308.274 71.469 319.472 71.544 L 330.670 71.619 330.670 60.488 L 330.670 49.358 319.398 49.358 L 308.125 49.358 308.199 60.414 M69.693 51.070 C 69.693 51.776,69.748 52.065,69.816 51.712 C 69.884 51.359,69.884 50.781,69.816 50.428 C 69.748 50.075,69.693 50.364,69.693 51.070 M69.727 64.479 C 69.727 66.598,69.772 67.464,69.826 66.405 C 69.881 65.346,69.881 63.613,69.826 62.553 C 69.772 61.494,69.727 62.361,69.727 64.479 M69.687 70.043 C 69.690 70.670,69.748 70.894,69.817 70.539 C 69.885 70.184,69.882 69.670,69.811 69.398 C 69.739 69.125,69.684 69.415,69.687 70.043 M334.023 72.979 L 331.812 73.063 331.812 108.276 C 331.812 142.618,331.798 143.496,331.268 143.780 C 330.907 143.973,319.006 144.076,295.918 144.084 C 268.299 144.095,261.049 144.172,260.813 144.457 C 260.479 144.858,260.288 166.069,260.613 166.595 C 260.749 166.816,277.630 166.904,319.421 166.904 L 378.038 166.904 377.963 155.563 L 377.889 144.223 366.476 144.080 C 360.200 144.001,354.904 143.833,354.708 143.706 C 354.425 143.524,354.351 136.119,354.351 108.257 L 354.351 73.039 350.000 73.024 C 347.607 73.016,343.531 72.984,340.942 72.953 C 338.352 72.922,335.239 72.933,334.023 72.979 M284.455 95.934 C 284.458 108.527,284.562 118.992,284.688 119.190 C 284.867 119.472,287.299 119.534,295.882 119.476 L 306.847 119.401 306.920 96.220 L 306.993 73.039 295.722 73.039 L 284.451 73.039 284.455 95.934 M20.278 96.364 C 19.921 96.748,18.674 96.776,9.936 96.596 L 0.000 96.390 0.000 131.932 L 0.000 167.475 11.128 167.475 L 22.256 167.475 22.184 132.199 C 22.112 97.257,22.106 96.921,21.541 96.607 C 21.227 96.433,20.906 96.209,20.827 96.109 C 20.749 96.008,20.502 96.123,20.278 96.364 M118.565 96.651 C 118.476 96.741,118.402 101.928,118.402 108.179 L 118.402 119.544 129.529 119.544 L 140.656 119.544 140.656 108.171 L 140.656 96.798 138.770 96.605 C 136.530 96.375,118.800 96.416,118.565 96.651 M143.010 120.314 L 142.083 120.436 142.083 143.670 L 142.083 166.904 153.169 166.904 L 164.255 166.904 164.438 164.935 C 164.705 162.065,164.523 120.775,164.242 120.494 C 164.001 120.254,144.718 120.090,143.010 120.314 M247.612 120.331 L 236.878 120.406 236.702 121.473 C 236.475 122.847,236.472 141.735,236.699 142.582 L 236.871 143.224 248.250 143.224 L 259.629 143.224 259.629 131.812 C 259.629 125.071,259.522 120.399,259.367 120.399 C 259.223 120.399,258.934 120.367,258.725 120.328 C 258.516 120.288,253.515 120.290,247.612 120.331 M22.539 179.597 L 22.539 191.155 33.917 191.155 C 43.498 191.155,45.348 191.090,45.637 190.743 C 45.891 190.436,45.975 187.479,45.962 179.259 L 45.945 168.188 34.242 168.114 L 22.539 168.039 22.539 179.597 M118.391 168.117 C 118.248 169.060,118.108 188.877,118.240 189.580 L 118.428 190.585 129.542 190.585 L 140.656 190.585 140.656 179.315 L 140.656 168.046 129.529 168.046 C 123.409 168.046,118.397 168.078,118.391 168.117 M236.690 168.973 C 236.469 170.070,236.490 189.607,236.713 190.186 C 236.840 190.518,238.767 190.585,248.247 190.585 L 259.629 190.585 259.629 179.315 L 259.629 168.046 248.252 168.046 L 236.876 168.046 236.690 168.973 M379.173 179.601 L 379.173 191.155 389.586 191.155 L 400.000 191.155 400.000 179.601 L 400.000 168.046 389.586 168.046 L 379.173 168.046 379.173 179.601 M263.481 191.656 C 262.382 191.696,261.190 191.796,260.832 191.878 L 260.180 192.027 260.216 202.983 C 260.247 212.404,260.312 213.962,260.677 214.102 C 260.911 214.192,282.138 214.265,307.849 214.265 C 349.965 214.265,354.640 214.310,355.044 214.714 C 355.722 215.392,355.722 237.960,355.044 238.639 C 354.640 239.043,349.952 239.087,307.700 239.087 C 278.732 239.087,260.741 239.190,260.638 239.355 C 260.250 239.983,260.332 261.331,260.722 261.481 C 260.931 261.561,287.411 261.626,319.567 261.626 L 378.031 261.626 378.031 226.810 C 378.031 199.218,377.957 191.966,377.675 191.860 C 377.308 191.722,267.068 191.526,263.481 191.656 M46.576 191.927 L 45.934 192.051 45.957 203.658 C 45.969 210.041,46.044 215.103,46.123 214.907 C 46.275 214.532,92.413 214.360,93.791 214.730 L 94.430 214.901 94.505 226.352 L 94.579 237.803 105.777 237.878 L 116.976 237.952 116.976 214.839 L 116.976 191.726 82.097 191.765 C 62.914 191.786,46.929 191.859,46.576 191.927 M213.012 192.177 C 212.787 192.764,212.793 212.782,213.019 213.623 L 213.191 214.265 224.570 214.265 L 235.949 214.265 235.949 202.996 L 235.949 191.726 224.567 191.726 C 214.451 191.726,213.166 191.776,213.012 192.177 M236.692 215.858 C 236.340 216.776,236.499 237.241,236.862 237.603 C 237.116 237.858,240.076 237.946,248.417 237.946 L 259.629 237.946 259.629 226.676 L 259.629 215.407 248.247 215.407 C 238.132 215.407,236.846 215.457,236.692 215.858 M118.262 240.014 C 118.170 240.524,118.132 245.563,118.177 251.213 L 118.260 261.484 119.258 261.626 C 119.807 261.705,130.207 261.705,142.368 261.626 L 164.479 261.484 164.564 251.783 C 164.611 246.448,164.570 241.409,164.473 240.585 L 164.296 239.087 141.362 239.087 L 118.428 239.087 118.262 240.014 M165.097 262.958 C 164.993 263.062,164.907 268.134,164.907 274.227 L 164.907 285.307 212.553 285.307 L 260.200 285.307 260.200 274.037 L 260.200 262.767 212.744 262.767 C 186.643 262.767,165.202 262.853,165.097 262.958 " stroke="none" fill="#050404" fill-rule="evenodd"/><path id="path4" d="M141.578 2.853 C 141.578 3.402,141.637 3.627,141.709 3.352 C 141.781 3.078,141.781 2.628,141.709 2.354 C 141.637 2.079,141.578 2.304,141.578 2.853 M141.619 6.990 C 141.619 8.716,141.666 9.385,141.723 8.477 C 141.780 7.569,141.780 6.157,141.722 5.339 C 141.665 4.521,141.618 5.264,141.619 6.990 M141.984 24.608 C 142.057 24.725,163.222 24.822,189.018 24.822 C 233.386 24.822,235.936 24.849,236.211 25.321 C 236.371 25.596,236.506 25.675,236.511 25.499 C 236.515 25.322,236.347 25.034,236.135 24.858 C 235.693 24.491,141.757 24.241,141.984 24.608 M99.376 25.321 C 101.857 25.368,105.837 25.368,108.220 25.320 C 110.604 25.273,108.573 25.234,103.709 25.234 C 98.845 25.234,96.895 25.273,99.376 25.321 M126.819 25.388 L 140.799 25.535 140.799 36.805 L 140.799 48.074 117.705 48.147 C 102.501 48.195,94.513 48.122,94.324 47.933 C 94.166 47.775,93.838 47.651,93.595 47.658 C 93.325 47.665,93.440 47.825,93.888 48.069 C 94.682 48.500,140.223 48.804,140.905 48.382 C 141.475 48.030,141.349 25.500,140.776 25.280 C 140.527 25.185,134.140 25.137,126.582 25.174 L 112.839 25.241 126.819 25.388 M286.665 25.309 C 287.020 25.377,287.534 25.374,287.806 25.303 C 288.079 25.232,287.789 25.176,287.161 25.179 C 286.534 25.182,286.310 25.241,286.665 25.309 M293.670 25.321 C 296.151 25.368,300.131 25.368,302.514 25.320 C 304.897 25.273,302.867 25.234,298.003 25.234 C 293.138 25.234,291.188 25.273,293.670 25.321 M259.742 44.080 C 259.742 46.277,259.787 47.138,259.841 45.993 C 259.895 44.849,259.895 43.051,259.840 41.999 C 259.786 40.947,259.741 41.883,259.742 44.080 M255.849 48.423 C 256.359 48.487,257.193 48.487,257.703 48.423 C 258.213 48.360,257.796 48.308,256.776 48.308 C 255.756 48.308,255.339 48.360,255.849 48.423 M286.085 48.423 C 286.591 48.486,287.490 48.487,288.082 48.425 C 288.674 48.363,288.260 48.312,287.161 48.310 C 286.063 48.309,285.578 48.360,286.085 48.423 M77.250 48.989 C 77.605 49.057,78.119 49.055,78.391 48.983 C 78.664 48.912,78.374 48.856,77.746 48.859 C 77.118 48.863,76.895 48.921,77.250 48.989 M80.100 48.996 C 80.767 49.056,81.858 49.056,82.525 48.996 C 83.192 48.936,82.646 48.887,81.312 48.887 C 79.979 48.887,79.433 48.936,80.100 48.996 M86.085 48.993 C 86.591 49.056,87.490 49.057,88.082 48.996 C 88.674 48.934,88.260 48.882,87.161 48.881 C 86.063 48.880,85.578 48.930,86.085 48.993 M212.728 49.236 C 212.460 49.934,212.537 50.129,212.862 49.572 C 213.131 49.110,213.996 49.073,224.551 49.073 L 235.949 49.073 235.949 84.314 L 235.949 119.556 224.394 119.478 C 218.038 119.436,212.839 119.499,212.839 119.618 C 212.839 119.737,218.071 119.802,224.465 119.761 L 236.091 119.686 236.091 84.308 L 236.091 48.930 224.497 48.856 C 214.110 48.789,212.884 48.828,212.728 49.236 M313.484 48.989 C 313.839 49.057,314.353 49.055,314.625 48.983 C 314.898 48.912,314.608 48.856,313.980 48.859 C 313.352 48.863,313.129 48.921,313.484 48.989 M318.759 49.001 C 320.603 49.050,323.620 49.050,325.464 49.001 C 327.307 48.951,325.799 48.910,322.111 48.910 C 318.424 48.910,316.915 48.951,318.759 49.001 M93.647 60.664 C 93.593 69.940,93.653 72.173,93.962 72.430 C 94.225 72.647,97.905 72.770,105.731 72.821 L 117.118 72.896 117.118 84.308 L 117.118 95.720 116.120 95.897 C 115.129 96.072,115.128 96.074,115.991 96.111 C 117.573 96.179,117.546 96.386,117.546 84.108 C 117.546 77.863,117.514 72.725,117.475 72.690 C 117.436 72.655,112.140 72.559,105.706 72.476 L 94.009 72.325 93.861 60.770 L 93.714 49.215 93.647 60.664 M212.631 51.641 C 212.631 52.347,212.687 52.636,212.755 52.282 C 212.823 51.929,212.823 51.352,212.755 50.999 C 212.687 50.646,212.631 50.934,212.631 51.641 M212.691 86.163 C 212.691 103.816,212.726 111.038,212.767 102.211 C 212.809 93.384,212.809 78.941,212.767 70.114 C 212.726 61.287,212.691 68.509,212.691 86.163 M22.902 75.892 C 22.902 76.598,22.958 76.887,23.026 76.534 C 23.094 76.180,23.094 75.603,23.026 75.250 C 22.958 74.897,22.902 75.185,22.902 75.892 M354.763 86.163 C 354.763 90.949,354.802 92.907,354.850 90.514 C 354.897 88.121,354.897 84.205,354.850 81.812 C 354.802 79.419,354.763 81.377,354.763 86.163 M46.006 96.077 C 57.892 96.118,77.343 96.118,89.230 96.077 C 101.116 96.036,91.391 96.002,67.618 96.002 C 43.845 96.002,34.119 96.036,46.006 96.077 M129.529 96.429 L 140.799 96.576 140.946 108.131 L 141.094 119.686 141.160 108.090 C 141.220 97.741,141.178 96.476,140.776 96.322 C 140.527 96.226,135.360 96.178,129.292 96.215 L 118.260 96.281 129.529 96.429 M117.898 97.290 C 117.898 97.839,117.957 98.063,118.028 97.789 C 118.100 97.514,118.100 97.065,118.028 96.790 C 117.957 96.516,117.898 96.740,117.898 97.290 M117.913 103.994 C 117.915 104.779,117.971 105.066,118.036 104.632 C 118.102 104.199,118.100 103.557,118.033 103.206 C 117.965 102.855,117.911 103.210,117.913 103.994 M354.763 119.971 C 354.763 124.679,354.802 126.645,354.850 124.340 C 354.897 122.035,354.898 118.184,354.850 115.781 C 354.802 113.378,354.763 115.264,354.763 119.971 M117.923 117.261 C 117.923 118.281,117.975 118.698,118.038 118.188 C 118.101 117.678,118.101 116.844,118.038 116.334 C 117.975 115.824,117.923 116.241,117.923 117.261 M124.018 119.757 C 127.028 119.803,132.036 119.803,135.145 119.757 C 138.255 119.711,135.792 119.673,129.672 119.673 C 123.552 119.673,121.008 119.711,124.018 119.757 M290.514 119.757 C 293.456 119.803,298.270 119.803,301.213 119.757 C 304.155 119.711,301.748 119.673,295.863 119.673 C 289.979 119.673,287.571 119.711,290.514 119.757 M141.984 120.043 C 141.911 120.160,146.869 120.222,153.002 120.179 C 161.787 120.117,164.201 120.178,164.383 120.464 C 164.509 120.664,164.615 131.195,164.618 143.866 L 164.622 166.904 153.213 166.904 L 141.804 166.904 141.726 154.993 L 141.648 143.081 141.580 155.136 L 141.512 167.190 152.901 167.190 C 159.165 167.190,164.493 167.112,164.741 167.017 C 165.519 166.718,165.420 120.541,164.641 120.124 C 163.999 119.781,142.195 119.703,141.984 120.043 M259.740 124.822 C 259.740 126.862,259.786 127.659,259.841 126.593 C 259.896 125.527,259.896 123.858,259.840 122.884 C 259.784 121.910,259.739 122.782,259.740 124.822 M259.707 140.942 C 259.707 141.648,259.762 141.937,259.830 141.583 C 259.898 141.230,259.898 140.653,259.830 140.300 C 259.762 139.947,259.707 140.235,259.707 140.942 M259.629 142.745 C 259.629 143.176,258.601 143.224,248.003 143.295 L 236.377 143.373 248.012 143.441 C 259.868 143.511,260.789 143.433,259.807 142.451 C 259.709 142.353,259.629 142.485,259.629 142.745 M378.317 166.478 C 378.317 166.859,371.640 166.907,319.188 166.903 C 279.651 166.900,260.027 166.994,259.963 167.187 C 259.910 167.345,259.460 167.488,258.963 167.503 C 258.118 167.530,258.106 167.545,258.773 167.730 L 259.486 167.929 259.561 179.257 L 259.636 190.585 247.935 190.585 C 240.324 190.585,236.234 190.685,236.234 190.870 C 236.234 191.056,232.155 191.155,224.567 191.155 C 214.191 191.155,212.881 191.205,212.727 191.607 C 212.464 192.292,212.528 214.069,212.794 214.488 C 212.976 214.775,215.398 214.857,223.988 214.867 C 230.017 214.875,235.239 214.949,235.592 215.032 L 236.234 215.183 236.234 226.441 C 236.234 233.655,236.340 237.896,236.529 238.250 C 236.814 238.781,237.247 238.802,248.363 238.802 L 259.902 238.802 259.979 250.428 C 260.030 257.940,259.956 262.128,259.772 262.264 C 259.615 262.379,238.431 262.507,212.696 262.547 L 165.906 262.621 213.267 262.766 C 239.315 262.845,260.747 262.817,260.892 262.703 C 261.044 262.583,260.954 262.272,260.678 261.967 C 260.248 261.492,260.200 260.319,260.200 250.263 L 260.200 239.087 262.553 239.086 C 263.848 239.085,285.043 239.053,309.654 239.014 L 354.401 238.944 354.965 238.248 C 355.542 237.536,355.714 215.532,355.147 214.966 C 354.549 214.369,348.831 214.285,308.131 214.280 C 283.730 214.277,262.964 214.272,261.983 214.270 L 260.200 214.265 260.200 203.148 C 260.200 192.441,260.220 192.021,260.753 191.735 C 261.131 191.533,279.781 191.462,319.727 191.511 L 378.148 191.583 378.317 192.297 C 378.602 193.507,379.323 193.183,379.266 191.869 C 379.231 191.057,379.150 170.648,379.171 167.974 C 379.172 167.857,379.429 167.760,379.743 167.760 C 380.105 167.760,380.306 167.578,380.291 167.261 C 380.278 166.963,380.211 166.905,380.125 167.118 C 379.825 167.863,378.522 167.543,378.672 166.762 C 378.747 166.369,378.698 166.049,378.562 166.049 C 378.427 166.049,378.317 166.242,378.317 166.478 M22.539 167.546 C 22.539 167.664,27.664 167.760,33.928 167.760 C 40.192 167.760,45.520 167.838,45.768 167.934 C 46.017 168.029,46.220 167.967,46.220 167.797 C 46.220 167.581,42.656 167.464,34.379 167.410 C 27.867 167.367,22.539 167.429,22.539 167.546 M117.889 167.817 C 117.634 168.072,117.546 171.095,117.546 179.658 L 117.546 191.155 82.240 191.160 C 62.821 191.162,46.785 191.259,46.603 191.374 C 46.422 191.489,62.100 191.549,81.444 191.508 C 111.005 191.444,116.665 191.495,116.939 191.824 C 117.178 192.113,117.245 198.294,117.191 215.153 L 117.118 238.088 105.849 238.236 L 94.579 238.384 105.706 238.446 C 111.826 238.480,116.993 238.406,117.188 238.282 C 117.465 238.106,117.559 232.946,117.616 214.677 L 117.689 191.298 129.387 191.147 C 135.820 191.065,141.116 190.968,141.155 190.933 C 141.195 190.899,141.227 185.606,141.227 179.173 L 141.227 167.475 131.312 167.541 L 121.398 167.606 131.098 167.755 L 140.799 167.903 140.799 179.173 L 140.799 190.442 129.455 190.517 L 118.110 190.591 118.185 179.247 L 118.260 167.903 119.686 167.734 L 121.113 167.565 119.672 167.520 C 118.872 167.495,118.079 167.627,117.889 167.817 M236.519 167.689 C 236.519 167.884,244.372 167.879,253.780 167.679 C 255.820 167.635,252.771 167.572,247.004 167.537 C 241.238 167.503,236.519 167.571,236.519 167.689 M378.260 167.817 C 378.514 168.072,378.602 171.064,378.602 179.515 L 378.602 190.870 319.852 190.870 C 287.540 190.870,260.899 190.792,260.651 190.697 C 260.046 190.465,259.954 167.907,260.556 167.664 C 261.405 167.322,377.916 167.474,378.260 167.817 M259.635 191.726 C 259.931 192.193,260.031 213.344,259.741 214.099 C 259.587 214.501,258.289 214.551,248.044 214.551 L 236.519 214.551 236.519 203.012 L 236.519 191.474 237.732 191.386 C 242.243 191.060,259.382 191.326,259.635 191.726 M235.307 191.621 L 235.949 191.793 235.949 203.032 L 235.949 214.272 224.465 214.197 L 212.981 214.123 212.906 203.138 C 212.837 193.065,212.871 192.124,213.317 191.797 C 213.829 191.422,233.962 191.260,235.307 191.621 M258.634 215.320 L 259.636 215.482 259.561 226.785 L 259.486 238.088 248.502 238.088 C 242.461 238.088,237.293 237.996,237.019 237.883 C 236.555 237.693,236.519 236.881,236.519 226.562 L 236.519 215.446 237.161 215.323 C 238.134 215.137,257.487 215.134,258.634 215.320 M354.494 226.676 L 354.494 238.088 307.347 238.161 L 260.200 238.233 260.200 226.867 C 260.200 220.616,260.286 215.416,260.391 215.311 C 260.496 215.206,281.712 215.152,307.538 215.192 L 354.494 215.264 354.494 226.676 M118.331 238.713 C 117.998 238.800,117.845 239.098,117.871 239.607 C 117.905 240.282,117.924 240.296,118.033 239.727 L 118.157 239.084 141.318 239.157 L 164.479 239.230 164.554 250.416 C 164.628 261.485,164.622 261.606,164.036 261.920 C 163.562 262.173,163.512 262.318,163.783 262.645 C 164.291 263.257,164.880 263.153,164.705 262.482 C 164.621 262.163,164.696 261.912,164.874 261.912 C 165.530 261.912,165.300 239.165,164.641 238.812 C 164.096 238.520,119.434 238.425,118.331 238.713 " stroke="none" fill="#524531" fill-rule="evenodd"/><path id="path5" d="M140.656 1.162 C 140.656 1.570,140.810 1.724,141.152 1.658 C 141.896 1.515,141.979 0.571,141.248 0.571 C 140.839 0.571,140.656 0.754,140.656 1.162 M283.880 13.159 C 283.880 23.556,283.929 24.851,284.308 24.536 C 284.675 24.232,284.736 22.569,284.736 12.804 C 284.736 2.881,284.681 1.427,284.308 1.427 C 283.935 1.427,283.880 2.920,283.880 13.159 M93.295 24.699 C 93.295 24.996,93.503 25.116,93.915 25.056 C 94.828 24.921,94.926 24.251,94.032 24.251 C 93.553 24.251,93.295 24.408,93.295 24.699 M306.990 24.662 C 306.990 24.888,307.118 25.153,307.275 25.250 C 307.458 25.362,307.561 29.580,307.561 36.964 L 307.561 48.502 318.918 48.502 C 328.463 48.502,330.365 48.569,330.830 48.921 C 331.643 49.536,332.097 49.449,332.097 48.678 C 332.097 47.672,331.883 47.654,319.615 47.650 L 308.417 47.646 308.417 35.949 L 308.417 24.251 307.703 24.251 C 307.272 24.251,306.990 24.414,306.990 24.662 M141.703 25.296 C 141.598 25.401,141.512 30.576,141.512 36.795 C 141.512 45.209,141.425 48.190,141.170 48.445 C 140.909 48.706,135.305 48.787,117.689 48.787 C 100.073 48.787,94.469 48.869,94.208 49.130 C 93.565 49.773,93.734 71.405,94.388 71.996 C 94.855 72.418,96.096 72.468,106.228 72.468 C 112.453 72.468,117.575 72.500,117.610 72.539 C 117.644 72.578,117.741 77.874,117.824 84.308 L 117.974 96.006 129.672 96.148 L 141.369 96.291 141.512 107.989 L 141.655 119.686 153.352 119.829 L 165.050 119.971 165.123 143.491 C 165.181 162.119,165.121 167.059,164.838 167.239 C 164.641 167.364,159.390 167.468,153.169 167.471 C 143.121 167.475,141.839 167.525,141.685 167.926 C 141.590 168.175,141.512 173.319,141.512 179.357 C 141.512 187.160,141.416 190.517,141.180 190.960 C 140.883 191.518,140.897 191.543,141.310 191.202 C 141.720 190.865,141.782 189.530,141.856 179.565 C 141.928 169.933,142.002 168.271,142.368 168.039 C 142.618 167.882,147.291 167.767,153.585 167.765 C 160.468 167.762,164.574 167.653,164.926 167.465 C 165.705 167.048,165.804 120.015,165.027 119.717 C 164.778 119.621,159.529 119.544,153.362 119.544 L 142.149 119.544 141.977 118.902 C 141.883 118.549,141.803 113.365,141.801 107.382 C 141.798 98.760,141.720 96.439,141.423 96.193 C 141.172 95.984,137.400 95.856,129.892 95.801 C 123.755 95.757,118.628 95.614,118.497 95.483 C 118.366 95.352,118.226 90.217,118.185 84.071 C 118.113 73.112,118.100 72.886,117.512 72.397 C 116.964 71.940,115.975 71.897,106.017 71.897 C 97.923 71.897,95.033 71.809,94.779 71.555 C 94.192 70.968,94.297 49.473,94.888 49.246 C 95.136 49.151,105.638 49.073,118.226 49.073 C 135.646 49.073,141.194 48.991,141.455 48.730 C 141.709 48.476,141.797 45.615,141.797 37.622 C 141.797 31.317,141.913 26.553,142.076 26.124 L 142.354 25.392 188.700 25.392 C 214.190 25.392,235.249 25.470,235.497 25.565 C 235.898 25.719,235.949 26.977,235.949 36.802 L 235.949 47.865 235.307 48.037 C 234.954 48.132,229.758 48.211,223.762 48.213 C 213.262 48.217,212.848 48.237,212.562 48.771 C 212.361 49.148,212.289 60.624,212.338 84.648 L 212.411 119.971 213.124 120.040 C 213.827 120.107,213.828 120.104,213.195 119.835 L 212.553 119.562 212.558 84.389 C 212.560 65.043,212.663 49.056,212.787 48.862 C 212.958 48.593,215.755 48.491,224.551 48.434 L 236.091 48.359 236.091 36.805 L 236.091 25.250 188.993 25.177 C 163.089 25.138,141.808 25.191,141.703 25.296 M271.683 25.321 L 283.310 25.399 283.310 36.684 C 283.310 43.917,283.416 48.167,283.605 48.521 C 283.889 49.053,284.323 49.073,295.445 49.073 L 306.990 49.073 306.990 60.476 L 306.990 71.879 295.621 71.959 C 286.495 72.024,284.160 72.117,283.781 72.432 C 283.169 72.940,283.043 119.163,283.652 119.772 C 284.155 120.275,306.967 120.262,307.649 119.757 C 308.094 119.428,308.137 117.607,308.203 96.148 L 308.274 72.896 319.472 72.821 L 330.670 72.747 330.670 107.987 L 330.670 143.228 295.320 143.155 C 275.877 143.114,260.028 143.178,260.101 143.295 C 260.279 143.584,330.431 143.562,330.886 143.273 C 331.170 143.093,331.228 135.814,331.171 107.828 L 331.098 72.611 319.401 72.611 L 307.703 72.611 307.561 96.148 L 307.418 119.686 295.578 119.686 L 283.738 119.686 283.738 96.148 L 283.738 72.611 295.435 72.468 L 307.133 72.325 307.275 60.840 C 307.354 54.524,307.375 49.228,307.323 49.071 C 307.262 48.889,303.096 48.787,295.707 48.787 C 284.608 48.787,284.175 48.767,283.890 48.236 C 283.701 47.882,283.595 43.631,283.595 36.395 L 283.595 25.107 271.826 25.175 L 260.057 25.243 271.683 25.321 M259.910 44.508 L 259.772 48.645 248.074 48.787 L 236.377 48.930 236.377 84.308 L 236.377 119.686 248.074 119.829 L 259.772 119.971 259.926 124.251 L 260.080 128.531 260.140 124.210 C 260.191 120.498,260.136 119.865,259.748 119.717 C 259.500 119.621,254.172 119.544,247.907 119.544 L 236.517 119.544 236.589 84.379 L 236.662 49.215 248.298 49.141 C 257.468 49.082,259.965 48.989,260.076 48.699 C 260.153 48.497,260.179 46.541,260.132 44.351 L 260.048 40.371 259.910 44.508 M69.715 48.083 C 69.621 48.327,69.592 48.553,69.651 48.586 C 70.157 48.866,93.315 48.419,93.219 48.131 C 93.024 47.546,69.938 47.500,69.715 48.083 M22.539 71.731 C 22.539 71.953,22.379 72.200,22.183 72.279 C 21.938 72.378,21.960 72.431,22.254 72.450 C 22.634 72.474,22.634 72.507,22.254 72.753 C 21.997 72.919,21.962 73.032,22.166 73.034 C 22.353 73.037,22.585 72.910,22.682 72.753 C 22.797 72.567,30.943 72.468,46.189 72.468 C 69.654 72.468,69.988 72.457,69.707 71.727 C 69.475 71.122,22.539 71.127,22.539 71.731 M331.704 71.765 C 331.612 72.007,331.694 72.261,331.888 72.329 C 332.514 72.552,355.778 72.618,355.778 72.397 C 355.778 72.279,355.507 72.183,355.176 72.183 C 354.759 72.183,354.625 72.052,354.739 71.755 C 354.884 71.379,353.507 71.327,343.388 71.327 C 333.289 71.327,331.852 71.381,331.704 71.765 M22.611 74.322 C 22.614 74.950,22.673 75.173,22.741 74.818 C 22.809 74.463,22.807 73.950,22.735 73.677 C 22.664 73.404,22.608 73.695,22.611 74.322 M21.740 86.869 C 21.815 94.659,21.769 95.865,21.398 95.966 C 21.163 96.030,21.323 96.097,21.755 96.115 L 22.539 96.148 22.539 87.019 C 22.539 78.956,22.487 77.889,22.096 77.889 C 21.703 77.889,21.663 78.904,21.740 86.869 M0.000 95.578 C 0.000 96.139,0.168 96.147,10.342 96.083 C 17.654 96.036,18.833 95.993,14.367 95.935 C 9.208 95.867,7.985 95.775,7.699 95.430 C 7.081 94.685,0.000 94.821,0.000 95.578 M22.895 131.597 L 22.967 167.047 34.665 167.190 L 46.362 167.332 46.437 179.102 L 46.511 190.872 81.958 190.800 L 117.404 190.728 117.478 179.101 C 117.519 172.707,117.583 167.447,117.621 167.412 C 117.658 167.377,122.953 167.281,129.387 167.198 L 141.084 167.047 141.084 143.509 L 141.084 119.971 129.387 119.829 L 117.689 119.686 117.546 107.989 L 117.404 96.291 70.113 96.219 L 22.822 96.147 22.895 131.597 M117.193 108.203 C 117.234 114.597,117.298 119.857,117.336 119.892 C 117.373 119.927,122.668 120.023,129.101 120.106 L 140.799 120.257 140.799 143.509 L 140.799 166.762 129.101 166.904 L 117.404 167.047 117.244 178.745 C 117.156 185.178,117.059 190.475,117.030 190.515 C 117.000 190.555,101.216 190.555,81.954 190.515 L 46.933 190.442 46.790 178.745 L 46.648 167.047 34.879 166.973 L 23.110 166.898 23.110 131.665 L 23.110 96.432 70.114 96.504 L 117.118 96.576 117.193 108.203 M229.743 120.037 C 230.332 120.098,231.295 120.098,231.883 120.037 C 232.471 119.975,231.990 119.925,230.813 119.925 C 229.636 119.925,229.155 119.975,229.743 120.037 M235.307 120.315 L 235.949 120.439 235.949 131.957 C 235.949 140.444,236.037 143.530,236.282 143.682 C 236.510 143.823,236.555 143.730,236.425 143.390 C 236.320 143.116,236.234 137.767,236.234 131.503 L 236.234 120.114 235.449 120.153 C 234.777 120.186,234.756 120.209,235.307 120.315 M259.992 140.656 C 259.992 141.362,260.048 141.651,260.116 141.298 C 260.184 140.945,260.184 140.367,260.116 140.014 C 260.048 139.661,259.992 139.950,259.992 140.656 M258.345 144.049 L 259.486 144.223 259.561 155.563 L 259.636 166.904 248.135 166.904 C 239.570 166.904,236.546 166.992,236.291 167.247 C 236.036 167.502,235.949 170.525,235.949 179.087 L 235.949 190.585 224.451 190.585 C 215.888 190.585,212.866 190.672,212.611 190.927 C 212.354 191.184,212.285 194.050,212.335 202.411 L 212.401 213.552 212.549 202.282 L 212.696 191.013 224.394 190.870 L 236.091 190.728 236.234 179.030 L 236.377 167.332 248.074 167.190 L 259.772 167.047 259.846 155.421 L 259.921 143.795 258.562 143.835 L 257.204 143.876 258.345 144.049 M118.278 191.606 C 117.875 192.009,117.836 194.429,117.901 215.072 L 117.974 238.088 139.639 238.231 C 151.554 238.310,162.017 238.296,162.891 238.202 C 163.765 238.107,154.129 238.011,141.480 237.988 L 118.480 237.946 118.298 236.622 C 118.064 234.908,118.061 193.791,118.295 192.618 C 118.419 192.000,118.638 191.726,119.009 191.726 C 119.303 191.726,119.544 191.598,119.544 191.441 C 119.544 191.003,118.782 191.102,118.278 191.606 M136.163 191.651 C 136.908 191.709,138.128 191.709,138.873 191.651 C 139.618 191.592,139.009 191.544,137.518 191.544 C 136.027 191.544,135.417 191.592,136.163 191.651 M217.885 215.335 C 220.581 215.382,225.075 215.382,227.870 215.335 C 230.666 215.288,228.459 215.250,222.967 215.250 C 217.475 215.250,215.188 215.288,217.885 215.335 M235.093 215.363 L 235.806 215.575 235.955 226.974 L 236.104 238.374 236.098 226.819 L 236.091 215.264 235.235 215.208 C 234.438 215.156,234.428 215.167,235.093 215.363 M248.217 239.080 L 259.486 239.230 259.486 250.357 L 259.486 261.484 257.347 261.643 C 254.662 261.844,169.632 261.900,167.416 261.702 L 165.787 261.558 165.689 259.523 L 165.591 257.489 165.535 259.670 C 165.489 261.430,165.565 261.884,165.929 262.024 C 166.177 262.119,187.359 262.197,212.999 262.197 L 259.618 262.197 259.774 261.555 C 259.860 261.202,259.895 255.970,259.851 249.929 L 259.772 238.944 248.359 238.938 L 236.947 238.931 248.217 239.080 M165.550 242.083 C 165.553 242.710,165.611 242.934,165.680 242.579 C 165.748 242.224,165.745 241.710,165.674 241.437 C 165.603 241.165,165.547 241.455,165.550 242.083 " stroke="none" fill="#a9a684" fill-rule="evenodd"/><path id="path6" d="M141.886 1.307 C 141.609 1.902,141.615 1.981,141.916 1.732 C 142.179 1.514,162.909 1.426,213.012 1.429 C 275.938 1.434,283.748 1.387,283.830 1.003 C 283.912 0.618,276.189 0.571,213.074 0.573 L 142.225 0.575 141.886 1.307 M141.571 17.173 C 141.539 21.204,141.608 24.562,141.726 24.635 C 141.844 24.708,141.907 22.566,141.867 19.873 C 141.730 10.731,141.631 9.824,141.571 17.173 M272.183 24.536 L 260.913 24.689 272.094 24.755 C 279.313 24.798,283.338 24.721,283.452 24.536 C 283.549 24.379,283.589 24.281,283.540 24.317 C 283.492 24.354,278.381 24.452,272.183 24.536 M93.866 25.392 C 93.278 25.580,93.253 25.625,93.723 25.645 C 94.037 25.658,94.486 25.544,94.722 25.392 C 95.222 25.069,94.875 25.069,93.866 25.392 M236.364 37.090 C 236.364 43.445,236.402 46.045,236.448 42.867 C 236.494 39.690,236.494 34.490,236.448 31.312 C 236.402 28.135,236.364 30.735,236.364 37.090 M141.356 37.518 C 141.356 43.324,141.394 45.659,141.440 42.706 C 141.487 39.754,141.487 35.003,141.440 32.150 C 141.394 29.296,141.356 31.712,141.356 37.518 M93.992 48.338 C 94.486 48.739,96.682 48.780,114.249 48.720 L 133.951 48.652 114.123 48.506 C 103.217 48.425,94.101 48.254,93.866 48.124 C 93.631 47.995,93.687 48.091,93.992 48.338 M138.164 48.707 C 138.597 48.772,139.239 48.771,139.590 48.703 C 139.941 48.635,139.586 48.582,138.802 48.584 C 138.017 48.586,137.730 48.641,138.164 48.707 M72.264 48.999 C 73.172 49.055,74.585 49.055,75.403 48.997 C 76.221 48.940,75.478 48.894,73.752 48.894 C 72.026 48.895,71.356 48.942,72.264 48.999 M83.951 48.984 C 84.226 49.056,84.675 49.056,84.950 48.984 C 85.225 48.912,85.000 48.854,84.451 48.854 C 83.902 48.854,83.677 48.912,83.951 48.984 M89.794 48.993 C 90.300 49.056,91.199 49.057,91.791 48.996 C 92.383 48.934,91.969 48.882,90.870 48.881 C 89.772 48.880,89.287 48.930,89.794 48.993 M307.917 48.976 C 307.640 49.088,307.575 51.287,307.626 58.868 L 307.692 68.616 307.840 58.916 L 307.989 49.215 310.556 49.055 L 313.124 48.895 310.699 48.864 C 309.365 48.847,308.113 48.897,307.917 48.976 M329.672 49.042 L 330.813 49.215 330.813 60.628 L 330.813 72.040 319.401 72.040 L 307.989 72.040 307.815 70.328 L 307.641 68.616 307.672 70.471 L 307.703 72.325 319.401 72.325 L 331.098 72.325 331.173 60.946 C 331.255 48.500,331.289 48.761,329.566 48.828 L 328.531 48.868 329.672 49.042 M23.011 72.682 C 22.891 72.876,39.347 72.874,61.341 72.677 C 65.970 72.636,59.269 72.572,46.451 72.535 C 33.632 72.498,23.084 72.564,23.011 72.682 M288.588 72.672 C 298.741 72.872,307.209 72.877,307.089 72.682 C 307.016 72.564,301.925 72.496,295.775 72.531 C 289.625 72.565,286.391 72.629,288.588 72.672 M342.785 72.682 C 350.186 72.732,354.290 72.864,354.483 73.056 C 354.684 73.258,354.779 84.495,354.779 108.213 C 354.779 141.186,354.806 143.079,355.278 143.170 C 355.752 143.261,355.777 141.440,355.777 108.152 C 355.777 73.585,355.769 73.039,355.224 73.039 C 354.919 73.039,354.591 72.910,354.494 72.753 C 354.380 72.569,350.261 72.492,342.850 72.536 L 331.384 72.604 342.785 72.682 M331.311 108.003 C 331.266 130.799,331.141 143.230,330.957 143.453 C 330.795 143.648,330.857 143.637,331.101 143.428 C 331.478 143.103,331.520 138.872,331.455 107.977 L 331.381 72.896 331.311 108.003 M112.197 96.071 C 112.785 96.132,113.748 96.132,114.337 96.071 C 114.925 96.009,114.444 95.959,113.267 95.959 C 112.090 95.959,111.608 96.009,112.197 96.071 M4.922 96.362 C 7.707 96.409,12.265 96.409,15.050 96.362 C 17.835 96.315,15.556 96.277,9.986 96.277 C 4.415 96.277,2.136 96.315,4.922 96.362 M117.674 106.847 C 117.674 111.869,117.713 113.883,117.760 111.323 C 117.807 108.763,117.807 104.655,117.760 102.193 C 117.712 99.732,117.674 101.826,117.674 106.847 M141.355 108.702 C 141.355 114.272,141.394 116.551,141.440 113.766 C 141.487 110.981,141.487 106.423,141.440 103.638 C 141.394 100.852,141.355 103.131,141.355 108.702 M141.575 131.598 C 141.610 138.071,141.674 141.505,141.717 139.230 C 141.917 128.702,141.921 119.828,141.726 119.829 C 141.608 119.829,141.541 125.125,141.575 131.598 M236.364 120.186 C 236.289 120.382,236.262 125.678,236.305 131.955 L 236.383 143.367 236.451 131.760 L 236.519 120.154 237.161 120.030 L 237.803 119.907 237.152 119.868 C 236.794 119.846,236.440 119.990,236.364 120.186 M378.317 143.795 C 378.317 144.224,378.466 144.378,378.816 144.311 C 379.091 144.258,379.315 144.026,379.315 143.795 C 379.315 143.563,379.091 143.331,378.816 143.278 C 378.466 143.211,378.317 143.365,378.317 143.795 M22.677 155.563 L 22.682 167.332 33.951 167.337 L 45.221 167.342 34.026 167.263 L 22.831 167.183 22.752 155.489 L 22.672 143.794 22.677 155.563 M141.225 155.492 C 141.148 162.004,141.149 172.275,141.229 178.317 L 141.373 189.301 141.514 178.174 C 141.591 172.054,141.590 161.783,141.511 155.350 L 141.366 143.652 141.225 155.492 M260.045 155.350 C 260.045 161.783,260.082 164.456,260.128 161.289 C 260.174 158.122,260.174 152.858,260.128 149.591 C 260.082 146.325,260.045 148.916,260.045 155.350 M124.180 167.403 C 127.122 167.450,131.937 167.450,134.879 167.403 C 137.821 167.357,135.414 167.319,129.529 167.319 C 123.645 167.319,121.238 167.357,124.180 167.403 M152.584 167.403 C 154.515 167.452,157.597 167.452,159.431 167.403 C 161.266 167.353,159.686 167.313,155.920 167.313 C 152.154 167.313,150.653 167.354,152.584 167.403 M242.725 167.403 C 245.745 167.450,250.688 167.450,253.709 167.403 C 256.730 167.357,254.258 167.319,248.217 167.319 C 242.175 167.319,239.704 167.357,242.725 167.403 M46.283 179.672 C 46.248 186.145,46.316 191.441,46.434 191.441 C 46.628 191.441,46.624 182.568,46.424 172.040 C 46.381 169.765,46.317 173.199,46.283 179.672 M236.364 179.315 C 236.364 185.592,236.402 188.119,236.448 184.931 C 236.494 181.743,236.494 176.607,236.448 173.519 C 236.401 170.430,236.364 173.039,236.364 179.315 M378.383 169.472 C 378.383 170.021,378.442 170.246,378.513 169.971 C 378.585 169.697,378.585 169.248,378.513 168.973 C 378.442 168.698,378.383 168.923,378.383 169.472 M378.317 190.136 C 378.317 190.360,378.092 190.602,377.817 190.674 C 377.442 190.772,377.477 190.812,377.960 190.837 C 378.423 190.861,378.602 190.711,378.602 190.300 C 378.602 189.986,378.538 189.729,378.459 189.729 C 378.381 189.729,378.317 189.912,378.317 190.136 M219.044 215.049 C 221.123 215.098,224.526 215.098,226.605 215.049 C 228.684 215.000,226.983 214.961,222.825 214.961 C 218.666 214.961,216.965 215.000,219.044 215.049 M231.455 215.033 C 231.730 215.104,232.179 215.104,232.454 215.033 C 232.728 214.961,232.504 214.902,231.954 214.902 C 231.405 214.902,231.180 214.961,231.455 215.033 M50.294 215.617 C 51.044 215.676,52.200 215.675,52.862 215.615 C 53.524 215.555,52.910 215.507,51.498 215.508 C 50.086 215.509,49.544 215.558,50.294 215.617 M83.096 215.618 C 84.155 215.673,85.888 215.673,86.947 215.618 C 88.006 215.563,87.140 215.518,85.021 215.518 C 82.903 215.518,82.036 215.563,83.096 215.618 M105.603 238.448 C 95.443 238.514,94.128 238.573,94.439 238.948 C 94.740 239.310,96.410 239.372,105.884 239.372 L 116.976 239.372 116.976 250.642 C 116.976 260.469,117.031 261.912,117.404 261.912 C 117.777 261.912,117.832 260.437,117.832 250.357 C 117.832 239.762,117.871 238.802,118.307 238.802 C 118.965 238.802,118.692 238.620,117.832 238.485 C 117.439 238.424,111.936 238.407,105.603 238.448 M164.622 262.267 C 164.622 262.595,164.940 262.657,166.120 262.560 C 168.152 262.393,168.468 262.247,166.856 262.219 C 166.124 262.207,165.321 262.119,165.073 262.024 C 164.789 261.914,164.622 262.004,164.622 262.267 M190.799 262.411 C 203.078 262.452,223.170 262.452,235.449 262.411 C 247.728 262.370,237.682 262.336,213.124 262.336 C 188.566 262.336,178.520 262.370,190.799 262.411 " stroke="none" fill="#636464" fill-rule="evenodd"/><path id="path7" d="M141.797 0.978 C 141.797 1.254,141.541 1.547,141.227 1.629 C 140.668 1.775,140.656 2.018,140.656 13.015 L 140.656 24.251 117.720 24.251 C 98.150 24.251,94.760 24.311,94.627 24.657 C 94.541 24.880,94.175 25.105,93.812 25.156 C 93.449 25.208,103.969 25.214,117.190 25.170 C 136.036 25.108,141.227 25.167,141.227 25.442 C 141.227 25.714,141.303 25.716,141.569 25.449 C 141.832 25.186,152.772 25.091,188.716 25.037 L 235.521 24.967 188.588 24.823 L 141.655 24.679 141.577 13.409 C 141.520 5.114,141.589 1.970,141.839 1.498 C 142.026 1.145,142.093 0.771,141.988 0.666 C 141.883 0.561,141.797 0.702,141.797 0.978 M283.592 12.981 L 283.452 24.679 271.755 24.826 L 260.057 24.974 271.823 25.040 L 283.588 25.107 283.666 36.591 L 283.744 48.074 283.812 36.591 L 283.880 25.107 284.665 25.086 C 287.784 25.001,306.861 25.170,307.045 25.284 C 307.172 25.362,307.275 30.621,307.275 36.970 L 307.275 48.515 295.605 48.437 C 289.186 48.394,283.994 48.456,284.067 48.573 C 284.140 48.691,289.391 48.787,295.737 48.787 C 303.668 48.787,307.275 48.882,307.275 49.090 C 307.275 49.264,307.426 49.294,307.632 49.161 C 307.828 49.034,313.060 48.863,319.258 48.781 L 330.528 48.632 319.044 48.567 L 307.561 48.502 307.561 37.147 C 307.561 28.662,307.470 25.597,307.204 25.023 L 306.847 24.256 295.666 24.253 C 287.032 24.252,284.432 24.332,284.254 24.608 C 284.127 24.804,283.957 19.636,283.877 13.124 L 283.731 1.284 283.592 12.981 M260.037 33.809 C 260.038 37.575,260.078 39.076,260.128 37.145 C 260.177 35.214,260.177 32.132,260.127 30.297 C 260.078 28.463,260.037 30.043,260.037 33.809 M93.187 48.062 C 93.334 48.445,92.036 48.505,82.126 48.574 L 70.899 48.652 82.382 48.720 C 90.232 48.766,93.866 48.883,93.866 49.090 C 93.866 49.256,93.994 49.312,94.151 49.215 C 94.586 48.947,94.485 48.693,93.720 48.136 C 93.157 47.727,93.053 47.712,93.187 48.062 M224.394 48.507 L 212.696 48.654 224.536 48.727 C 244.756 48.851,259.461 48.784,259.678 48.567 C 259.920 48.326,241.290 48.294,224.394 48.507 M330.944 49.201 C 331.163 49.466,331.251 53.103,331.232 61.196 C 331.216 67.584,331.277 72.884,331.365 72.972 C 331.454 73.061,331.536 73.016,331.548 72.872 C 331.560 72.728,331.651 72.354,331.749 72.040 C 331.847 71.726,331.967 66.526,332.016 60.485 L 332.103 49.501 331.366 49.161 C 330.758 48.881,330.684 48.888,330.944 49.201 M307.272 60.937 C 307.270 67.200,307.238 83.007,307.201 96.063 C 307.163 109.118,307.229 119.704,307.347 119.586 C 307.582 119.351,307.657 49.930,307.422 49.694 C 307.341 49.614,307.274 54.673,307.272 60.937 M283.726 72.825 C 283.375 73.745,283.742 119.640,284.101 119.712 C 284.301 119.753,284.333 119.721,284.173 119.641 C 283.583 119.348,283.788 72.819,284.379 72.665 C 284.847 72.542,284.847 72.532,284.371 72.501 C 284.091 72.483,283.801 72.628,283.726 72.825 M117.545 84.593 C 117.467 91.027,117.478 96.676,117.568 97.147 L 117.733 98.003 117.854 97.004 C 117.920 96.455,117.909 90.806,117.830 84.451 L 117.686 72.896 117.545 84.593 M22.667 85.449 C 22.667 90.471,22.705 92.485,22.753 89.925 C 22.800 87.365,22.800 83.257,22.753 80.795 C 22.705 78.334,22.666 80.428,22.667 85.449 M22.676 119.686 C 22.676 133.024,22.710 138.439,22.753 131.719 C 22.796 124.999,22.796 114.086,22.753 107.468 C 22.710 100.850,22.676 106.348,22.676 119.686 M117.613 116.690 C 117.613 117.240,117.671 117.464,117.743 117.190 C 117.815 116.915,117.815 116.466,117.743 116.191 C 117.671 115.917,117.613 116.141,117.613 116.690 M117.636 118.951 C 117.665 119.331,117.882 119.693,118.117 119.757 C 118.400 119.833,118.435 119.792,118.221 119.637 C 118.043 119.507,117.827 119.144,117.741 118.830 C 117.617 118.380,117.595 118.406,117.636 118.951 M141.201 119.266 C 141.137 119.654,141.149 125.364,141.228 131.954 L 141.373 143.937 141.514 131.729 C 141.641 120.694,141.552 117.144,141.201 119.266 M234.522 119.829 L 232.668 120.016 234.593 120.065 C 235.720 120.094,236.519 119.996,236.519 119.829 C 236.519 119.672,236.487 119.566,236.448 119.593 C 236.409 119.620,235.542 119.726,234.522 119.829 M219.757 120.042 C 221.444 120.092,224.205 120.092,225.892 120.042 C 227.578 119.991,226.198 119.950,222.825 119.950 C 219.451 119.950,218.071 119.991,219.757 120.042 M242.582 120.042 C 245.367 120.089,249.925 120.089,252.710 120.042 C 255.496 119.996,253.217 119.957,247.646 119.957 C 242.076 119.957,239.797 119.996,242.582 120.042 M260.027 132.240 C 260.027 134.437,260.072 135.298,260.127 134.153 C 260.181 133.008,260.180 131.211,260.126 130.159 C 260.071 129.106,260.027 130.043,260.027 132.240 M260.000 138.088 C 260.000 138.951,260.053 139.305,260.119 138.873 C 260.184 138.442,260.184 137.735,260.119 137.304 C 260.053 136.872,260.000 137.225,260.000 138.088 M248.217 143.514 C 241.705 143.595,257.585 143.691,283.507 143.728 C 309.428 143.765,330.696 143.698,330.769 143.581 C 330.918 143.339,266.424 143.287,248.217 143.514 M378.769 167.007 C 378.976 167.548,379.616 167.626,379.913 167.146 C 380.042 166.937,379.991 166.894,379.775 167.028 C 379.587 167.144,379.243 167.081,379.011 166.889 C 378.663 166.600,378.620 166.621,378.769 167.007 M141.702 167.380 C 141.598 167.485,141.514 167.709,141.516 167.879 C 141.519 168.080,141.595 168.072,141.733 167.855 C 141.850 167.671,142.393 167.467,142.941 167.401 L 143.937 167.281 142.915 167.235 C 142.353 167.210,141.807 167.275,141.702 167.380 M145.155 167.396 C 145.668 167.460,146.438 167.459,146.867 167.394 C 147.295 167.328,146.876 167.277,145.934 167.278 C 144.993 167.280,144.642 167.333,145.155 167.396 M163.127 167.392 C 163.482 167.460,163.996 167.457,164.269 167.386 C 164.541 167.314,164.251 167.259,163.623 167.262 C 162.996 167.265,162.773 167.323,163.127 167.392 M378.441 177.603 C 378.441 181.683,378.481 183.313,378.530 181.224 C 378.579 179.136,378.579 175.798,378.530 173.806 C 378.481 171.815,378.441 173.524,378.441 177.603 M81.883 190.870 L 46.362 191.016 81.795 191.086 C 105.184 191.132,117.287 191.059,117.404 190.870 C 117.501 190.713,117.540 190.616,117.492 190.655 C 117.443 190.693,101.419 190.790,81.883 190.870 M224.417 190.865 C 215.278 190.981,212.727 191.092,212.670 191.377 C 212.629 191.577,212.662 191.609,212.741 191.448 C 212.837 191.255,216.822 191.155,224.401 191.155 C 231.769 191.155,235.978 191.053,236.091 190.870 C 236.188 190.713,236.228 190.615,236.179 190.651 C 236.131 190.688,230.838 190.784,224.417 190.865 M45.364 191.607 C 45.364 192.111,45.978 192.023,46.154 191.494 C 46.216 191.308,46.064 191.155,45.816 191.155 C 45.567 191.155,45.364 191.359,45.364 191.607 M117.842 191.707 C 117.644 192.077,117.569 199.530,117.614 214.318 L 117.682 236.377 117.828 214.041 C 117.955 194.605,118.030 191.670,118.402 191.435 C 118.670 191.266,118.700 191.163,118.484 191.160 C 118.293 191.157,118.004 191.404,117.842 191.707 M136.030 191.366 C 136.859 191.424,138.142 191.423,138.883 191.365 C 139.623 191.306,138.944 191.259,137.375 191.260 C 135.806 191.260,135.200 191.308,136.030 191.366 M46.462 215.193 C 46.985 215.715,93.295 215.716,93.295 215.193 C 93.295 214.910,88.397 214.836,69.700 214.836 C 50.825 214.836,46.177 214.907,46.462 215.193 M117.546 237.891 L 117.546 238.516 139.016 238.447 L 160.485 238.377 139.372 238.304 C 119.927 238.237,118.231 238.193,117.903 237.749 C 117.579 237.311,117.546 237.324,117.546 237.891 M162.126 238.435 C 162.557 238.501,163.263 238.501,163.695 238.435 C 164.126 238.370,163.773 238.317,162.910 238.317 C 162.047 238.317,161.694 238.370,162.126 238.435 M165.261 250.713 C 165.197 261.487,165.223 262.197,165.692 262.192 C 166.044 262.189,166.087 262.122,165.838 261.964 C 165.569 261.793,165.466 259.050,165.407 250.485 L 165.328 239.230 165.261 250.713 " stroke="none" fill="#747474" fill-rule="evenodd"/><path id="path8" d="M141.928 1.784 C 141.852 1.980,141.824 7.148,141.865 13.267 L 141.940 24.394 188.845 24.466 C 222.936 24.518,235.855 24.625,236.134 24.857 C 236.375 25.057,236.519 25.069,236.519 24.887 C 236.519 24.279,234.403 24.251,188.850 24.251 L 142.083 24.251 142.083 12.981 L 142.083 1.711 212.625 1.783 L 283.167 1.854 283.242 13.053 L 283.316 24.251 271.815 24.251 C 260.309 24.251,259.629 24.305,259.629 25.219 C 259.629 25.374,259.790 25.285,259.986 25.020 C 260.309 24.584,261.439 24.532,271.897 24.466 L 283.452 24.394 283.532 13.552 C 283.575 7.589,283.541 2.422,283.455 2.068 L 283.299 1.427 212.682 1.427 C 156.379 1.427,142.037 1.499,141.928 1.784 M93.937 25.594 L 93.295 25.717 93.295 36.612 L 93.295 47.507 94.101 47.864 C 94.729 48.141,99.984 48.204,117.853 48.147 L 140.799 48.074 140.799 36.805 L 140.799 25.535 140.086 25.488 C 139.457 25.447,139.449 25.458,140.014 25.579 L 140.656 25.717 140.656 36.826 L 140.656 47.935 117.618 47.862 L 94.579 47.789 94.504 36.824 C 94.446 28.241,94.508 25.809,94.790 25.630 C 95.164 25.392,95.017 25.386,93.937 25.594 M137.589 25.589 C 137.864 25.661,138.313 25.661,138.588 25.589 C 138.862 25.517,138.638 25.458,138.088 25.458 C 137.539 25.458,137.315 25.517,137.589 25.589 M284.070 25.583 C 283.567 26.086,283.866 47.865,284.379 48.074 C 285.194 48.406,304.713 48.581,305.991 48.268 C 306.800 48.070,303.829 47.980,295.792 47.960 L 284.451 47.932 284.451 36.828 C 284.451 28.213,284.531 25.693,284.807 25.581 C 285.040 25.487,285.007 25.430,284.712 25.415 C 284.464 25.402,284.175 25.478,284.070 25.583 M306.345 25.597 L 306.983 25.715 307.063 36.681 L 307.143 47.646 307.138 36.591 L 307.133 25.535 306.419 25.507 C 305.806 25.484,305.795 25.496,306.345 25.597 M259.751 33.809 C 259.752 37.418,259.793 38.855,259.842 37.002 C 259.892 35.150,259.892 32.197,259.842 30.440 C 259.792 28.684,259.751 30.200,259.751 33.809 M237.018 48.226 C 237.790 48.536,258.932 48.474,259.426 48.160 C 259.616 48.039,254.508 47.946,248.074 47.954 C 240.808 47.962,236.620 48.065,237.018 48.226 M69.764 60.152 C 69.816 66.219,69.943 71.403,70.047 71.670 C 70.151 71.937,70.151 72.322,70.047 72.526 C 69.943 72.729,70.049 72.661,70.284 72.374 C 70.709 71.852,70.713 71.655,70.755 49.715 C 70.757 49.068,93.215 49.210,93.384 49.857 C 93.481 50.227,93.523 50.187,93.548 49.704 L 93.581 49.051 81.626 49.085 L 69.671 49.119 69.764 60.152 M212.937 49.513 C 212.844 49.755,212.848 50.033,212.946 50.131 C 213.044 50.229,213.124 50.097,213.124 49.837 C 213.124 49.406,214.143 49.358,224.608 49.287 L 236.091 49.209 224.599 49.141 C 214.462 49.081,213.086 49.125,212.937 49.513 M308.039 49.260 C 307.670 49.629,307.814 71.466,308.188 71.840 C 308.443 72.095,311.370 72.183,319.595 72.183 L 330.660 72.183 330.816 71.541 C 330.902 71.188,330.936 66.020,330.893 60.057 L 330.813 49.215 319.523 49.141 C 313.313 49.100,308.146 49.153,308.039 49.260 M330.670 60.488 L 330.670 71.619 319.472 71.544 L 308.274 71.469 308.199 60.414 L 308.125 49.358 319.398 49.358 L 330.670 49.358 330.670 60.488 M93.361 51.355 C 93.361 51.904,93.420 52.129,93.492 51.854 C 93.564 51.580,93.564 51.131,93.492 50.856 C 93.420 50.581,93.361 50.806,93.361 51.355 M93.421 60.770 C 93.421 65.243,93.460 67.072,93.509 64.836 C 93.557 62.600,93.557 58.941,93.509 56.705 C 93.460 54.469,93.421 56.298,93.421 60.770 M23.894 72.960 C 24.404 73.023,25.239 73.023,25.749 72.960 C 26.259 72.896,25.842 72.845,24.822 72.845 C 23.802 72.845,23.384 72.896,23.894 72.960 M35.307 72.964 C 36.287 73.020,37.892 73.020,38.873 72.964 C 39.854 72.909,39.051 72.863,37.090 72.863 C 35.128 72.863,34.326 72.909,35.307 72.964 M46.309 72.967 C 48.790 73.014,52.770 73.014,55.153 72.967 C 57.537 72.919,55.506 72.880,50.642 72.880 C 45.777 72.880,43.828 72.919,46.309 72.967 M65.264 72.962 C 65.931 73.022,67.022 73.022,67.689 72.962 C 68.356 72.902,67.810 72.853,66.476 72.853 C 65.143 72.853,64.597 72.902,65.264 72.962 M98.200 72.966 C 100.191 73.015,103.530 73.015,105.618 72.967 C 107.706 72.918,106.077 72.878,101.997 72.878 C 97.917 72.877,96.209 72.917,98.200 72.966 M114.265 72.961 L 116.976 73.059 116.976 84.295 C 116.976 91.683,116.876 95.580,116.683 95.675 C 116.522 95.755,116.555 95.787,116.755 95.747 C 117.042 95.688,117.118 93.286,117.118 84.284 L 117.118 72.896 114.336 72.880 L 111.554 72.863 114.265 72.961 M284.070 72.943 C 283.833 73.181,283.816 118.474,284.053 119.092 C 284.149 119.340,284.309 119.544,284.410 119.544 C 284.511 119.544,284.559 109.081,284.517 96.294 L 284.441 73.045 295.787 72.967 L 307.133 72.889 295.697 72.821 C 289.407 72.784,284.175 72.839,284.070 72.943 M331.717 72.943 C 331.612 73.048,331.526 88.954,331.526 108.291 C 331.526 140.087,331.483 143.465,331.075 143.621 C 330.827 143.717,314.778 143.795,295.412 143.795 L 260.200 143.795 260.267 154.422 L 260.335 165.050 260.414 154.946 C 260.466 148.221,260.596 144.718,260.802 144.470 C 261.053 144.167,267.638 144.095,295.918 144.084 C 319.006 144.076,330.907 143.973,331.268 143.780 C 331.798 143.496,331.812 142.618,331.812 108.276 L 331.812 73.063 334.023 72.965 L 336.234 72.868 334.070 72.811 C 332.880 72.779,331.821 72.839,331.717 72.943 M338.718 72.964 C 339.770 73.019,341.568 73.020,342.712 72.965 C 343.857 72.911,342.996 72.866,340.799 72.866 C 338.602 72.865,337.666 72.910,338.718 72.964 M349.928 72.963 L 354.351 73.053 354.351 108.264 C 354.351 136.120,354.425 143.524,354.708 143.706 C 354.904 143.833,360.200 144.001,366.476 144.080 L 377.889 144.223 378.036 155.635 C 378.117 161.912,378.214 166.822,378.250 166.548 C 378.288 166.261,378.559 166.049,378.887 166.049 C 379.448 166.049,379.458 165.858,379.458 155.239 C 379.458 145.144,379.425 144.431,378.962 144.468 C 378.689 144.490,378.337 144.219,378.181 143.866 L 377.896 143.224 366.267 143.224 L 354.638 143.224 354.566 108.060 L 354.494 72.896 350.000 72.885 L 345.506 72.873 349.928 72.963 M307.126 96.291 C 307.126 108.845,307.161 113.938,307.204 107.611 C 307.247 101.283,307.247 91.012,307.204 84.786 C 307.161 78.560,307.126 83.738,307.126 96.291 M22.761 86.091 C 22.718 91.073,22.794 95.310,22.931 95.506 C 23.129 95.790,32.690 95.849,69.436 95.793 L 115.692 95.723 69.378 95.579 L 23.064 95.435 23.098 86.234 C 23.116 81.173,23.066 77.033,22.986 77.033 C 22.906 77.033,22.805 81.109,22.761 86.091 M11.341 96.646 C 12.949 96.697,15.581 96.697,17.190 96.646 C 18.798 96.596,17.482 96.554,14.265 96.554 C 11.049 96.554,9.733 96.596,11.341 96.646 M21.933 96.818 C 22.163 97.096,22.272 106.969,22.325 132.410 L 22.399 167.618 22.469 132.026 C 22.533 99.356,22.501 96.434,22.076 96.434 C 21.720 96.434,21.687 96.523,21.933 96.818 M118.029 97.932 C 117.794 100.229,117.838 114.225,118.089 117.118 C 118.248 118.955,118.345 116.373,118.428 108.060 C 118.536 97.317,118.413 94.186,118.029 97.932 M139.510 96.636 L 140.650 96.751 140.729 108.076 L 140.809 119.401 140.804 107.989 L 140.799 96.576 139.584 96.548 L 138.370 96.520 139.510 96.636 M141.929 120.471 C 141.854 120.667,141.827 131.227,141.868 143.937 L 141.944 167.047 142.013 143.741 L 142.083 120.436 143.010 120.321 L 143.937 120.205 143.001 120.160 C 142.477 120.134,142.005 120.271,141.929 120.471 M236.562 121.041 C 236.602 121.899,236.614 121.910,236.723 121.187 L 236.842 120.406 247.594 120.328 L 258.345 120.250 247.432 120.182 L 236.519 120.114 236.562 121.041 M259.741 132.097 C 259.741 134.215,259.786 135.082,259.841 134.023 C 259.896 132.964,259.896 131.230,259.841 130.171 C 259.786 129.112,259.741 129.979,259.741 132.097 M259.715 138.374 C 259.715 139.237,259.768 139.590,259.833 139.158 C 259.899 138.727,259.899 138.021,259.833 137.589 C 259.768 137.158,259.715 137.511,259.715 138.374 M164.418 165.621 C 164.420 166.405,164.476 166.692,164.541 166.259 C 164.607 165.825,164.605 165.183,164.537 164.832 C 164.470 164.481,164.416 164.836,164.418 165.621 M380.314 167.313 C 380.314 167.537,380.025 167.776,379.672 167.844 C 379.319 167.912,383.748 167.985,389.515 168.007 C 399.823 168.045,400.000 168.036,400.000 167.475 C 400.000 166.915,399.810 166.904,390.157 166.904 C 381.810 166.904,380.314 166.966,380.314 167.313 M119.829 167.707 C 115.549 168.005,119.651 168.178,129.397 168.111 L 140.650 168.033 140.728 179.238 L 140.806 190.442 140.874 179.235 C 140.927 170.478,140.864 167.999,140.585 167.899 C 140.165 167.747,121.707 167.576,119.829 167.707 M247.076 167.755 L 236.662 167.903 236.615 168.616 C 236.574 169.245,236.585 169.253,236.706 168.688 L 236.844 168.046 248.165 168.017 C 254.392 168.002,259.165 167.886,258.773 167.760 C 258.381 167.635,257.932 167.549,257.775 167.569 C 257.618 167.590,252.803 167.674,247.076 167.755 M28.336 167.974 C 31.602 168.020,36.866 168.020,40.033 167.974 C 43.200 167.928,40.528 167.891,34.094 167.891 C 27.660 167.891,25.069 167.928,28.336 167.974 M46.063 179.030 C 46.063 184.679,46.101 187.030,46.148 184.255 C 46.195 181.480,46.195 176.858,46.148 173.984 C 46.101 171.110,46.063 173.381,46.063 179.030 M118.225 172.325 C 118.225 174.130,118.271 174.868,118.328 173.966 C 118.384 173.063,118.384 171.587,118.328 170.685 C 118.271 169.782,118.225 170.521,118.225 172.325 M46.729 191.675 C 46.286 191.851,88.826 191.833,108.702 191.650 C 113.174 191.608,101.170 191.553,82.026 191.528 C 62.882 191.502,46.998 191.568,46.729 191.675 M219.063 191.654 C 222.094 191.701,226.973 191.701,229.905 191.654 C 232.837 191.608,230.357 191.570,224.394 191.570 C 218.431 191.570,216.032 191.608,219.063 191.654 M262.133 191.650 C 262.804 191.710,263.831 191.709,264.416 191.648 C 265.000 191.587,264.451 191.538,263.195 191.539 C 261.940 191.540,261.462 191.590,262.133 191.650 M321.969 191.725 L 377.889 191.869 377.961 226.750 L 378.034 261.630 319.137 261.557 C 263.898 261.488,260.267 261.513,260.676 261.965 C 260.916 262.230,261.027 262.583,260.924 262.749 C 260.792 262.963,278.049 263.053,319.411 263.053 C 376.897 263.053,378.088 263.042,378.227 262.509 C 378.305 262.209,378.614 261.900,378.914 261.822 C 379.712 261.613,379.777 192.904,378.978 192.970 C 378.686 192.995,378.430 192.731,378.324 192.297 L 378.148 191.583 322.098 191.582 L 266.049 191.581 321.969 191.725 M117.045 214.911 L 116.976 237.952 105.777 237.878 L 94.579 237.803 94.505 226.332 L 94.430 214.861 93.506 214.696 C 92.998 214.605,82.118 214.568,69.330 214.614 L 46.077 214.697 69.683 214.766 L 93.289 214.836 93.363 226.564 L 93.438 238.292 105.136 238.247 C 111.569 238.222,116.930 238.105,117.049 237.987 C 117.167 237.868,117.231 227.443,117.190 214.820 L 117.115 191.869 117.045 214.911 M352.948 214.368 C 353.014 214.424,353.581 214.549,354.208 214.645 C 354.985 214.764,355.213 214.733,354.922 214.547 C 354.532 214.298,352.671 214.129,352.948 214.368 M238.588 215.329 C 239.176 215.391,240.139 215.391,240.728 215.329 C 241.316 215.268,240.835 215.217,239.658 215.217 C 238.481 215.217,237.999 215.268,238.588 215.329 M245.578 215.334 C 247.657 215.383,251.059 215.383,253.138 215.334 C 255.218 215.286,253.516 215.246,249.358 215.246 C 245.200 215.246,243.499 215.286,245.578 215.334 M355.101 238.095 C 355.009 238.334,354.642 238.647,354.286 238.790 C 353.826 238.975,353.777 239.056,354.117 239.069 C 354.626 239.088,355.492 238.368,355.492 237.925 C 355.492 237.521,355.287 237.610,355.101 238.095 M243.314 238.159 C 246.345 238.206,251.224 238.206,254.156 238.159 C 257.088 238.113,254.608 238.075,248.645 238.075 C 242.682 238.075,240.283 238.113,243.314 238.159 M117.898 251.569 L 117.832 263.053 140.999 263.053 C 159.291 263.053,164.092 262.979,163.816 262.703 C 163.539 262.427,163.587 262.262,164.042 261.918 C 164.560 261.528,162.351 261.498,142.438 261.626 C 130.238 261.705,119.807 261.705,119.258 261.626 L 118.260 261.484 118.112 250.785 L 117.964 240.086 117.898 251.569 M260.326 248.930 C 260.326 253.481,260.365 255.302,260.413 252.978 C 260.461 250.654,260.461 246.931,260.413 244.704 C 260.365 242.478,260.326 244.379,260.326 248.930 " stroke="none" fill="#3c3d3c" fill-rule="evenodd"/></g></svg>