<svg xmlns="http://www.w3.org/2000/svg" xmlns:xlink="http://www.w3.org/1999/xlink" id="svg" version="1.1" viewBox="0 -120 400 2531"><g id="svgg"><path id="path0" d="M13.657 2.250 C 13.349 3.488,12.634 139.050,12.069 303.500 C 11.503 467.950,10.563 726.925,9.979 879.000 C 7.623 1492.192,6.689 1772.018,6.285 1985.482 C 5.847 2216.153,5.928 2212.000,1.878 2212.000 C 0.054 2212.000,0.000 2214.710,0.000 2306.000 L 0.000 2400.000 189.500 2400.000 L 379.000 2400.000 379.000 2306.617 L 379.000 2213.233 376.874 2212.677 L 374.748 2212.121 375.449 2092.311 C 377.770 1695.907,378.251 1502.126,378.684 789.750 L 379.165 -0.000 371.333 -0.000 L 363.500 0.000 363.500 104.250 C 363.500 211.817,362.368 602.415,361.500 794.500 C 360.626 987.999,360.012 1163.029,359.490 1368.000 C 359.209 1478.275,358.764 1591.675,358.501 1620.000 C 358.237 1648.325,357.759 1789.625,357.438 1934.000 C 357.096 2087.613,356.469 2198.754,355.927 2201.934 C 355.417 2204.922,355.000 2208.999,355.000 2210.993 C 355.000 2218.996,368.586 2218.281,219.918 2218.098 C 69.180 2217.912,29.200 2217.411,27.117 2215.682 C 25.721 2214.523,25.921 1922.710,27.519 1630.000 C 27.803 1578.025,28.468 1395.775,28.997 1225.000 C 29.527 1054.225,30.194 865.900,30.480 806.500 C 30.767 747.100,31.285 600.625,31.631 481.000 C 31.978 361.375,32.540 204.212,32.881 131.750 L 33.500 -0.001 23.858 -0.000 C 14.692 -0.000,14.189 0.111,13.657 2.250 M325.215 2233.330 C 371.525 2233.523,368.605 2232.949,370.339 2242.210 C 371.927 2250.692,372.286 2378.910,370.730 2381.966 C 368.431 2386.482,369.531 2386.458,220.562 2385.136 C 43.587 2383.566,13.106 2382.866,11.250 2380.327 C 10.165 2378.843,9.972 2365.326,10.209 2307.165 L 10.500 2235.823 12.757 2233.996 C 15.132 2232.073,21.627 2232.059,325.215 2233.330 " stroke="none" fill="#554040" fill-rule="evenodd"/><path id="path1" d="M212.000 0.988 C 212.000 1.545,211.213 2.007,210.250 2.015 C 209.262 2.024,208.935 2.350,209.500 2.765 C 210.164 3.253,210.258 42.654,209.779 120.000 C 209.223 209.722,208.512 387.129,208.121 533.500 C 208.116 535.700,208.020 600.050,207.908 676.500 C 207.796 752.950,207.329 862.525,206.870 920.000 C 206.411 977.475,206.065 1025.963,206.101 1027.750 C 206.477 1046.357,206.382 1123.051,205.743 1316.000 C 205.327 1441.675,204.761 1622.800,204.486 1718.500 C 204.211 1814.200,203.764 1930.075,203.492 1976.000 C 202.714 2107.453,202.919 2197.319,204.000 2198.400 C 206.551 2200.951,273.339 2201.660,279.971 2199.207 L 282.237 2198.368 282.596 2094.934 C 282.949 1993.320,283.496 1860.983,284.451 1646.000 C 284.716 1586.325,285.166 1460.550,285.451 1366.500 C 286.622 979.923,287.668 691.389,288.591 500.500 C 288.888 438.900,289.244 333.825,289.381 267.000 C 289.519 200.175,289.736 112.875,289.864 73.000 L 290.097 0.500 251.048 0.238 C 225.212 0.065,212.000 0.319,212.000 0.988 M265.500 2252.195 C 258.350 2252.694,252.099 2253.503,251.609 2253.992 C 251.111 2254.489,250.669 2278.982,250.609 2309.391 C 250.533 2347.584,250.171 2364.230,249.399 2365.001 C 248.794 2365.606,243.619 2366.305,237.899 2366.555 C 228.082 2366.984,225.028 2367.320,207.231 2369.933 C 203.234 2370.520,198.658 2371.000,197.063 2371.000 C 191.441 2371.000,187.966 2376.622,192.510 2378.366 C 195.324 2379.445,289.359 2381.226,311.000 2380.609 C 350.166 2379.493,353.000 2379.069,353.000 2374.327 C 353.000 2371.721,358.869 2368.352,361.589 2369.396 C 365.815 2371.018,366.000 2368.484,366.000 2308.928 L 366.000 2252.302 356.250 2251.656 C 342.495 2250.745,281.052 2251.110,265.500 2252.195 " stroke="none" fill="#d4ee7e" fill-rule="evenodd"/><path id="path2" d="M184.378 1.197 C 184.064 1.706,183.649 42.257,183.458 91.311 C 182.754 271.290,181.946 520.113,181.486 698.500 C 181.227 799.150,180.779 932.350,180.491 994.500 C 179.925 1116.713,179.320 1269.277,178.527 1489.000 C 178.251 1565.725,177.768 1696.225,177.455 1779.000 C 177.142 1861.775,176.720 1989.936,176.516 2063.803 L 176.146 2198.105 178.409 2198.965 C 188.451 2202.784,302.936 2202.653,307.687 2198.818 C 309.852 2197.070,309.922 2189.352,310.471 1888.500 C 310.771 1724.050,311.234 1570.150,311.499 1546.500 C 311.764 1522.850,312.210 1420.250,312.491 1318.500 C 313.502 952.486,314.216 730.379,314.960 550.500 C 315.377 449.850,315.835 300.675,315.977 219.000 C 316.120 137.325,316.521 54.637,316.869 35.249 L 317.500 -0.002 303.797 -0.001 L 290.095 0.000 289.863 72.750 C 289.736 112.763,289.519 200.175,289.382 267.000 C 289.244 333.825,288.888 438.900,288.591 500.500 C 287.668 691.389,286.622 979.923,285.451 1366.500 C 285.166 1460.550,284.716 1586.325,284.451 1646.000 C 283.496 1860.983,282.949 1993.320,282.596 2094.934 L 282.237 2198.368 279.971 2199.207 C 273.339 2201.660,206.551 2200.951,204.000 2198.400 C 202.919 2197.319,202.714 2107.453,203.492 1976.000 C 203.764 1930.075,204.211 1814.200,204.486 1718.500 C 204.761 1622.800,205.327 1441.675,205.743 1316.000 C 206.382 1123.051,206.477 1046.357,206.101 1027.750 C 206.065 1025.963,206.411 977.475,206.870 920.000 C 207.329 862.525,207.796 752.950,207.908 676.500 C 208.020 600.050,208.116 535.700,208.121 533.500 C 208.512 387.129,209.223 209.722,209.779 120.000 C 210.258 42.654,210.164 3.253,209.500 2.765 C 208.935 2.350,209.262 2.024,210.250 2.015 C 211.213 2.007,212.000 1.530,212.000 0.956 C 212.000 -0.365,185.199 -0.131,184.378 1.197 M262.000 2250.027 C 223.734 2251.043,219.371 2251.438,217.996 2254.007 C 217.370 2255.177,217.000 2275.890,217.000 2309.810 L 217.000 2363.752 211.750 2364.336 C 208.863 2364.657,202.900 2365.402,198.500 2365.991 C 186.500 2367.598,175.321 2368.971,167.500 2369.798 C 159.070 2370.689,158.000 2371.274,158.000 2374.992 C 158.000 2378.971,156.292 2378.741,204.750 2381.291 C 207.088 2381.414,209.000 2381.233,209.000 2380.888 C 209.000 2380.095,202.637 2379.025,197.832 2379.011 C 192.442 2378.995,191.000 2378.148,191.000 2375.000 C 191.000 2371.970,192.470 2371.000,197.063 2371.000 C 198.658 2371.000,203.234 2370.520,207.231 2369.933 C 225.028 2367.320,228.082 2366.984,237.899 2366.555 C 243.619 2366.305,248.794 2365.606,249.399 2365.001 C 250.171 2364.230,250.533 2347.584,250.609 2309.391 C 250.669 2278.967,251.111 2254.498,251.609 2254.011 C 254.417 2251.265,359.857 2249.874,366.500 2252.495 C 368.298 2253.204,368.349 2253.123,367.000 2251.691 C 365.051 2249.622,310.088 2248.751,262.000 2250.027 M368.272 2258.000 C 368.272 2260.475,368.467 2261.488,368.706 2260.250 C 368.944 2259.012,368.944 2256.988,368.706 2255.750 C 368.467 2254.512,368.272 2255.525,368.272 2258.000 M367.232 2270.000 C 367.232 2271.925,367.438 2272.713,367.689 2271.750 C 367.941 2270.787,367.941 2269.213,367.689 2268.250 C 367.438 2267.287,367.232 2268.075,367.232 2270.000 M366.801 2304.750 C 366.589 2307.912,366.734 2311.625,367.122 2313.000 C 367.554 2314.528,367.862 2312.293,367.914 2307.250 C 368.013 2297.751,367.366 2296.298,366.801 2304.750 M366.846 2321.250 C 366.225 2326.300,366.486 2355.182,367.157 2355.597 C 367.620 2355.883,368.000 2347.991,368.000 2338.059 C 368.000 2322.923,367.513 2315.831,366.846 2321.250 M367.000 2360.429 C 367.000 2364.684,363.669 2370.194,361.581 2369.393 C 358.920 2368.372,353.000 2371.723,353.000 2374.249 C 353.000 2377.894,351.090 2379.000,344.800 2379.000 C 341.610 2379.000,339.000 2379.429,339.000 2379.954 C 339.000 2380.479,336.188 2381.090,332.750 2381.312 C 329.313 2381.533,335.050 2381.508,345.500 2381.256 C 355.950 2381.003,365.010 2380.382,365.632 2379.874 C 366.831 2378.896,368.625 2358.292,367.601 2357.267 C 367.270 2356.937,367.000 2358.360,367.000 2360.429 M236.750 2381.723 C 238.537 2381.945,241.463 2381.945,243.250 2381.723 C 245.037 2381.502,243.575 2381.320,240.000 2381.320 C 236.425 2381.320,234.963 2381.502,236.750 2381.723 " stroke="none" fill="#b6d56b" fill-rule="evenodd"/><path id="path3" d="M33.679 0.750 C 33.437 1.163,32.957 87.900,32.612 193.500 C 32.266 299.100,31.766 442.650,31.499 512.500 C 30.798 696.497,30.086 901.502,29.005 1230.000 C 28.482 1389.225,27.817 1567.425,27.528 1626.000 C 25.888 1958.343,25.708 2214.513,27.114 2215.680 C 29.201 2217.412,69.117 2217.912,219.918 2218.098 C 368.586 2218.281,355.000 2218.996,355.000 2210.993 C 355.000 2208.999,355.417 2204.922,355.927 2201.934 C 356.469 2198.754,357.096 2087.613,357.438 1934.000 C 357.759 1789.625,358.237 1648.325,358.501 1620.000 C 358.764 1591.675,359.209 1478.275,359.490 1368.000 C 360.012 1163.029,360.626 987.999,361.500 794.500 C 363.645 319.839,363.976 0.825,362.324 0.275 C 361.426 -0.025,361.114 35.687,361.007 151.191 C 360.930 234.411,360.707 308.575,360.512 316.000 C 360.316 323.425,359.894 439.750,359.574 574.500 C 359.254 709.250,358.771 842.900,358.501 871.500 C 358.232 900.100,357.777 1029.025,357.491 1158.000 C 357.204 1286.975,356.758 1417.925,356.500 1449.000 C 356.242 1480.075,355.730 1616.875,355.362 1753.000 C 354.994 1889.125,354.625 2007.250,354.541 2015.500 C 354.457 2023.750,354.294 2068.525,354.179 2115.000 C 354.056 2164.359,353.586 2200.105,353.049 2200.955 C 349.006 2207.347,178.696 2206.798,123.500 2200.216 L 117.500 2199.500 117.761 2019.500 C 117.904 1920.500,118.248 1785.275,118.525 1719.000 C 118.801 1652.725,119.235 1525.825,119.489 1437.000 C 119.744 1348.175,120.185 1213.400,120.471 1137.500 C 121.590 839.977,122.016 714.901,122.559 523.500 C 123.695 123.360,124.580 1.922,126.366 0.765 C 126.990 0.361,106.489 0.024,80.809 0.015 C 55.129 0.007,33.920 0.337,33.679 0.750 M12.757 2233.996 L 10.500 2235.823 10.209 2307.165 C 9.973 2365.149,10.167 2378.846,11.243 2380.318 C 12.765 2382.399,57.405 2384.021,107.500 2383.815 C 133.152 2383.710,133.306 2383.697,119.000 2382.846 C 85.416 2380.848,69.937 2379.253,68.115 2377.604 C 67.140 2376.722,64.915 2376.000,63.171 2376.000 C 61.427 2376.000,60.000 2375.550,60.000 2375.000 C 60.000 2374.450,61.350 2374.000,63.000 2374.000 C 64.650 2374.000,66.000 2373.622,66.000 2373.161 C 66.000 2370.625,74.118 2369.079,100.596 2366.571 C 116.185 2365.094,119.000 2364.160,119.000 2360.465 C 119.000 2358.310,119.445 2358.000,122.531 2358.000 C 127.433 2358.000,127.189 2360.736,127.353 2303.774 L 127.500 2252.527 130.000 2251.367 C 140.949 2246.286,364.513 2243.617,370.065 2248.500 L 372.339 2250.500 371.527 2248.500 C 371.081 2247.400,370.408 2244.344,370.032 2241.710 C 368.796 2233.049,371.329 2233.523,325.215 2233.330 C 21.627 2232.059,15.132 2232.073,12.757 2233.996 M371.310 2374.500 C 371.315 2377.800,371.502 2379.029,371.725 2377.232 C 371.947 2375.435,371.943 2372.735,371.715 2371.232 C 371.486 2369.729,371.304 2371.200,371.310 2374.500 M143.250 2384.746 C 148.613 2384.925,157.387 2384.925,162.750 2384.746 C 168.113 2384.566,163.725 2384.419,153.000 2384.419 C 142.275 2384.419,137.887 2384.566,143.250 2384.746 M251.776 2385.733 C 254.128 2385.945,257.728 2385.942,259.776 2385.727 C 261.824 2385.512,259.900 2385.339,255.500 2385.343 C 251.100 2385.346,249.424 2385.522,251.776 2385.733 M354.776 2385.733 C 357.128 2385.945,360.728 2385.942,362.776 2385.727 C 364.824 2385.512,362.900 2385.339,358.500 2385.343 C 354.100 2385.346,352.424 2385.522,354.776 2385.733 " stroke="none" fill="#5c882a" fill-rule="evenodd"/><path id="path4" d="M168.632 1.713 C 168.064 3.637,167.759 78.989,165.494 776.500 C 164.895 960.975,164.260 1119.274,163.530 1266.000 C 163.266 1319.075,162.807 1448.450,162.509 1553.500 C 162.212 1658.550,161.718 1802.775,161.412 1874.000 C 160.375 2115.301,160.555 2198.175,162.115 2199.014 C 170.672 2203.617,316.478 2203.649,323.919 2199.050 C 324.867 2198.464,325.483 2090.622,326.493 1748.500 C 326.770 1654.450,327.229 1526.875,327.511 1465.000 C 327.794 1403.125,328.239 1281.625,328.500 1195.000 C 328.760 1108.375,329.216 971.575,329.513 891.000 C 330.388 652.898,330.909 491.362,331.459 286.500 C 331.744 180.350,332.251 72.918,332.585 47.762 L 333.193 2.024 330.411 0.966 C 328.881 0.384,325.350 0.041,322.564 0.204 L 317.500 0.500 316.882 35.000 C 316.543 53.975,316.142 136.550,315.991 218.500 C 315.841 300.450,315.377 449.850,314.960 550.500 C 314.216 730.374,313.502 952.450,312.491 1318.500 C 312.210 1420.250,311.764 1522.850,311.499 1546.500 C 311.234 1570.150,310.771 1724.050,310.471 1888.500 C 309.922 2189.352,309.852 2197.070,307.687 2198.818 C 302.936 2202.653,188.451 2202.784,178.409 2198.965 L 176.146 2198.105 176.516 2063.803 C 176.720 1989.936,177.142 1861.775,177.455 1779.000 C 177.768 1696.225,178.251 1565.725,178.527 1489.000 C 179.320 1269.277,179.925 1116.713,180.491 994.500 C 180.779 932.350,181.227 799.150,181.486 698.500 C 181.946 520.113,182.754 271.290,183.458 91.311 C 183.649 42.257,184.065 1.704,184.381 1.193 C 184.714 0.654,181.628 0.192,177.057 0.094 C 170.249 -0.051,169.086 0.172,168.632 1.713 M250.000 2249.214 C 215.289 2249.913,193.223 2251.126,191.073 2252.455 C 190.330 2252.914,190.000 2269.997,190.000 2308.000 C 190.000 2347.186,189.682 2363.078,188.888 2363.569 C 187.721 2364.291,181.936 2365.086,160.500 2367.470 C 140.459 2369.700,132.049 2370.852,130.979 2371.513 C 128.929 2372.780,129.876 2377.936,132.250 2378.432 C 142.704 2380.615,205.885 2383.009,247.500 2382.800 L 279.500 2382.638 237.500 2381.947 C 199.950 2381.328,166.509 2379.815,160.250 2378.452 C 158.542 2378.080,158.000 2377.258,158.000 2375.040 C 158.000 2371.271,159.051 2370.691,167.500 2369.798 C 175.321 2368.971,186.500 2367.598,198.500 2365.991 C 202.900 2365.402,208.863 2364.657,211.750 2364.336 L 217.000 2363.752 217.000 2309.567 C 217.000 2265.557,217.254 2255.034,218.355 2253.529 C 219.882 2251.441,231.798 2250.802,301.000 2249.098 C 333.718 2248.292,334.502 2248.235,311.000 2248.362 C 296.975 2248.438,269.525 2248.821,250.000 2249.214 M351.244 2249.748 C 365.264 2250.038,366.053 2250.163,367.294 2252.277 C 369.444 2255.942,368.106 2377.324,365.890 2379.539 C 364.504 2380.924,359.355 2381.263,328.890 2381.970 L 293.500 2382.792 329.105 2382.638 C 356.226 2382.521,365.075 2382.182,366.240 2381.215 C 368.579 2379.274,368.927 2370.820,369.226 2308.670 C 369.552 2241.142,371.924 2248.904,351.059 2249.221 L 336.500 2249.442 351.244 2249.748 " stroke="none" fill="#a4c45c" fill-rule="evenodd"/><path id="path5" d="M126.220 0.876 C 124.601 1.898,123.658 136.422,122.559 523.500 C 122.016 714.901,121.590 839.977,120.471 1137.500 C 120.185 1213.400,119.744 1348.175,119.489 1437.000 C 119.235 1525.825,118.801 1652.725,118.525 1719.000 C 118.248 1785.275,117.904 1920.500,117.761 2019.500 L 117.500 2199.500 123.500 2200.216 C 178.696 2206.798,349.006 2207.347,353.049 2200.955 C 353.586 2200.105,354.056 2164.359,354.179 2115.000 C 354.294 2068.525,354.457 2023.750,354.541 2015.500 C 354.625 2007.250,354.994 1889.125,355.362 1753.000 C 355.730 1616.875,356.242 1480.075,356.500 1449.000 C 356.758 1417.925,357.204 1286.975,357.491 1158.000 C 357.777 1029.025,358.232 900.100,358.501 871.500 C 358.771 842.900,359.254 709.250,359.574 574.500 C 359.894 439.750,360.316 323.425,360.510 316.000 C 360.776 305.832,361.253 24.458,361.039 3.750 L 361.000 0.000 348.750 0.160 C 342.012 0.248,338.075 0.482,340.000 0.680 C 341.925 0.878,344.530 1.269,345.789 1.549 L 348.077 2.057 347.563 40.779 C 347.280 62.075,346.811 183.675,346.521 311.000 C 346.230 438.325,345.771 587.050,345.500 641.500 C 345.229 695.950,344.777 812.050,344.495 899.500 C 343.887 1087.583,343.188 1296.949,342.469 1506.000 C 342.182 1589.325,341.758 1717.125,341.526 1790.000 C 341.295 1862.875,340.786 1984.750,340.396 2060.834 L 339.687 2199.169 337.593 2199.956 C 323.109 2205.407,152.003 2204.336,146.427 2198.760 C 145.649 2197.983,145.708 1809.162,146.495 1748.500 C 146.767 1727.600,147.256 1623.650,147.583 1517.500 C 147.909 1411.350,148.320 1316.175,148.494 1306.000 C 148.669 1295.825,149.079 1164.875,149.405 1015.000 C 149.731 865.125,150.235 709.200,150.524 668.500 C 150.813 627.800,151.262 516.650,151.521 421.500 C 151.781 326.350,152.252 192.873,152.568 124.884 C 153.106 9.289,153.033 1.227,151.448 0.618 C 149.330 -0.194,127.565 0.028,126.220 0.876 M193.500 2247.049 C 160.975 2247.905,133.413 2249.778,130.000 2251.364 L 127.500 2252.527 127.353 2303.774 C 127.189 2360.736,127.433 2358.000,122.531 2358.000 C 119.445 2358.000,119.000 2358.310,119.000 2360.465 C 119.000 2364.160,116.185 2365.094,100.596 2366.571 C 74.118 2369.079,66.000 2370.625,66.000 2373.161 C 66.000 2373.622,64.650 2374.000,63.000 2374.000 C 61.350 2374.000,60.000 2374.450,60.000 2375.000 C 60.000 2375.550,61.427 2376.000,63.171 2376.000 C 64.915 2376.000,67.140 2376.722,68.116 2377.605 C 70.713 2379.955,98.609 2381.991,125.500 2381.792 C 137.600 2381.703,145.025 2381.489,142.000 2381.317 C 135.773 2380.963,117.264 2379.204,109.000 2378.181 C 101.949 2377.308,99.689 2372.000,106.368 2372.000 C 108.294 2372.000,111.137 2371.513,112.685 2370.918 C 114.233 2370.322,119.100 2369.410,123.500 2368.889 C 127.900 2368.369,134.650 2367.531,138.500 2367.027 C 142.350 2366.523,148.200 2365.833,151.500 2365.493 C 162.750 2364.334,162.000 2364.999,162.000 2356.181 C 162.000 2351.901,162.445 2347.955,162.990 2347.410 C 163.608 2346.792,164.078 2328.769,164.240 2299.496 L 164.500 2252.572 174.000 2251.358 C 199.385 2248.116,361.458 2246.034,366.780 2248.882 C 368.586 2249.849,369.000 2249.807,369.000 2248.660 C 369.000 2247.881,367.602 2246.970,365.875 2246.625 C 361.781 2245.806,228.258 2246.135,193.500 2247.049 " stroke="none" fill="#83a844" fill-rule="evenodd"/><path id="path6" d="M151.822 0.871 C 152.911 1.560,153.043 23.334,152.570 124.603 C 152.254 192.197,151.782 325.800,151.522 421.500 C 151.261 517.200,150.812 628.350,150.523 668.500 C 150.235 708.650,149.732 864.350,149.405 1014.500 C 149.079 1164.650,148.669 1295.825,148.494 1306.000 C 148.320 1316.175,147.909 1411.350,147.583 1517.500 C 147.256 1623.650,146.767 1727.600,146.495 1748.500 C 145.708 1809.162,145.649 2197.983,146.427 2198.760 C 152.003 2204.336,323.109 2205.407,337.593 2199.956 L 339.687 2199.169 340.396 2060.834 C 340.786 1984.750,341.295 1862.875,341.526 1790.000 C 341.758 1717.125,342.182 1589.325,342.469 1506.000 C 343.188 1296.949,343.887 1087.583,344.495 899.500 C 344.777 812.050,345.229 695.950,345.500 641.500 C 345.771 587.050,346.230 438.325,346.521 311.000 C 346.811 183.675,347.280 62.098,347.562 40.829 C 348.047 4.299,347.977 2.130,346.288 1.642 C 342.462 0.536,328.425 -0.055,330.847 0.993 L 333.193 2.007 332.585 47.753 C 332.251 72.914,331.744 180.350,331.459 286.500 C 330.909 491.362,330.388 652.898,329.513 891.000 C 329.216 971.575,328.760 1108.375,328.500 1195.000 C 328.239 1281.625,327.794 1403.125,327.511 1465.000 C 327.229 1526.875,326.770 1654.450,326.493 1748.500 C 325.483 2090.622,324.867 2198.464,323.919 2199.050 C 316.478 2203.649,170.672 2203.617,162.115 2199.014 C 160.555 2198.175,160.375 2115.301,161.412 1874.000 C 161.718 1802.775,162.212 1658.550,162.509 1553.500 C 162.807 1448.450,163.266 1319.075,163.530 1266.000 C 164.260 1119.274,164.895 960.975,165.494 776.500 C 167.734 86.795,168.065 3.636,168.578 1.882 C 168.988 0.480,167.817 0.249,159.775 0.150 C 154.463 0.084,151.065 0.392,151.822 0.871 M303.206 2247.741 C 306.895 2247.932,313.195 2247.934,317.206 2247.743 C 321.218 2247.553,318.200 2247.396,310.500 2247.395 C 302.800 2247.393,299.518 2247.549,303.206 2247.741 M204.500 2249.154 C 193.500 2249.621,180.000 2250.584,174.500 2251.294 L 164.500 2252.584 164.240 2299.502 C 164.078 2328.771,163.608 2346.792,162.990 2347.410 C 162.445 2347.955,162.000 2351.901,162.000 2356.181 C 162.000 2364.999,162.750 2364.334,151.500 2365.493 C 148.200 2365.833,142.350 2366.523,138.500 2367.027 C 134.650 2367.531,127.900 2368.369,123.500 2368.889 C 119.100 2369.410,114.233 2370.322,112.685 2370.918 C 111.137 2371.513,108.294 2372.000,106.368 2372.000 C 100.038 2372.000,101.881 2377.297,108.500 2378.128 C 125.703 2380.289,135.846 2381.010,154.500 2381.396 C 177.236 2381.867,176.603 2381.638,150.500 2379.950 C 129.866 2378.615,130.000 2378.647,130.000 2374.992 C 130.000 2370.753,129.182 2370.955,160.500 2367.470 C 181.936 2365.086,187.721 2364.291,188.888 2363.569 C 189.682 2363.078,190.000 2347.186,190.000 2308.000 C 190.000 2269.997,190.330 2252.914,191.073 2252.455 C 193.180 2251.153,215.046 2249.916,250.000 2249.123 L 285.500 2248.317 255.000 2248.311 C 238.225 2248.307,215.500 2248.687,204.500 2249.154 M287.762 2248.707 C 289.006 2248.946,290.806 2248.937,291.762 2248.687 C 292.718 2248.437,291.700 2248.241,289.500 2248.252 C 287.300 2248.263,286.518 2248.468,287.762 2248.707 M351.000 2248.950 C 359.525 2249.253,367.175 2249.871,368.000 2250.324 C 368.825 2250.777,368.626 2250.440,367.559 2249.574 C 365.958 2248.276,362.981 2248.035,350.559 2248.200 L 335.500 2248.400 351.000 2248.950 M369.328 2277.500 C 369.333 2281.350,369.513 2282.802,369.730 2280.728 C 369.946 2278.653,369.943 2275.503,369.722 2273.728 C 369.501 2271.952,369.324 2273.650,369.328 2277.500 M369.447 2318.000 C 369.447 2335.875,369.582 2343.188,369.748 2334.250 C 369.914 2325.313,369.914 2310.688,369.748 2301.750 C 369.582 2292.813,369.447 2300.125,369.447 2318.000 M368.168 2375.628 C 367.956 2380.826,366.765 2381.789,359.970 2382.255 L 354.500 2382.630 360.095 2382.815 C 367.114 2383.047,369.332 2381.130,368.734 2375.348 L 368.336 2371.500 368.168 2375.628 M195.250 2382.728 C 197.313 2382.944,200.688 2382.944,202.750 2382.728 C 204.813 2382.513,203.125 2382.336,199.000 2382.336 C 194.875 2382.336,193.188 2382.513,195.250 2382.728 " stroke="none" fill="#92b651" fill-rule="evenodd"/><path id="path7" d="M369.416 2313.645 C 369.334 2377.193,369.274 2379.171,367.378 2381.066 C 365.211 2383.234,319.207 2383.603,175.500 2382.606 C 141.400 2382.370,118.450 2382.527,124.500 2382.956 C 172.522 2386.359,366.058 2386.386,369.455 2382.990 C 372.069 2380.377,373.395 2251.400,370.831 2249.278 C 369.726 2248.363,369.486 2259.279,369.416 2313.645 " stroke="none" fill="#929264" fill-rule="evenodd"/><path id="path8" d="M366.000 2281.167 C 366.000 2296.658,366.259 2309.074,366.576 2308.757 C 367.669 2307.664,368.107 2253.000,367.023 2253.000 C 366.350 2253.000,366.000 2262.641,366.000 2281.167 M366.063 2317.083 C 366.112 2322.042,366.336 2322.977,367.050 2321.199 C 367.877 2319.137,367.431 2312.140,366.405 2311.083 C 366.182 2310.854,366.029 2313.554,366.063 2317.083 M366.000 2360.000 C 366.000 2362.933,366.184 2365.146,366.409 2364.917 C 367.171 2364.141,367.424 2356.090,366.709 2355.376 C 366.319 2354.986,366.000 2357.067,366.000 2360.000 M206.250 2379.665 C 207.762 2379.922,209.000 2380.540,209.000 2381.038 C 209.000 2381.553,219.009 2381.919,232.250 2381.888 C 245.037 2381.859,270.575 2381.864,289.000 2381.900 C 307.425 2381.937,326.325 2381.636,331.000 2381.233 C 335.805 2380.819,315.374 2380.458,284.000 2380.402 C 253.475 2380.349,222.875 2380.056,216.000 2379.751 C 209.125 2379.446,204.738 2379.408,206.250 2379.665 " stroke="none" fill="#c4cc7c" fill-rule="evenodd"/></g></svg>