<svg xmlns="http://www.w3.org/2000/svg" xmlns:xlink="http://www.w3.org/1999/xlink" id="svg" version="1.1" viewBox="0 0 400 2462.447257383966"><g id="svgg"><path id="path0" d="M345.490 18.161 C 334.484 18.558,323.459 19.409,320.990 20.052 C 318.520 20.696,314.564 21.296,312.199 21.385 C 307.824 21.551,306.044 22.946,306.015 26.231 C 305.999 28.105,304.305 28.668,296.500 29.392 C 287.357 30.240,273.527 31.895,271.500 32.383 C 270.400 32.648,265.225 33.372,260.000 33.992 C 254.775 34.611,249.150 35.316,247.500 35.558 L 244.500 35.997 244.521 90.048 C 244.534 124.150,244.903 144.357,245.521 144.799 C 249.663 147.763,244.210 151.963,236.192 151.985 C 233.272 151.993,227.872 152.426,224.192 152.947 C 212.190 154.646,148.861 156.082,82.500 156.159 C 9.650 156.244,12.367 155.983,13.594 162.797 C 13.961 164.834,14.707 167.063,15.253 167.750 C 17.187 170.187,377.657 169.509,378.965 167.066 C 380.589 164.032,380.381 21.889,378.750 19.720 C 377.113 17.542,370.822 17.248,345.490 18.161 M31.205 187.569 C 28.632 189.371,28.069 197.344,30.299 200.394 C 31.951 202.654,37.482 203.839,42.000 202.902 C 59.794 199.212,188.944 198.185,226.500 201.436 C 253.846 203.802,254.196 203.838,256.803 204.489 L 259.105 205.064 258.982 259.782 C 258.878 306.221,258.934 456.246,259.139 684.500 C 259.165 713.650,259.149 757.750,259.102 782.500 C 259.056 807.250,259.021 936.400,259.024 1069.500 C 259.028 1261.685,258.734 1971.083,258.641 1995.000 C 258.629 1998.025,258.747 2090.387,258.903 2200.250 L 259.186 2400.000 312.093 2400.000 L 365.000 2400.000 365.000 1295.191 C 365.000 342.635,364.804 190.115,363.581 188.441 C 361.598 185.729,35.055 184.872,31.205 187.569 " stroke="none" fill="#658c2f" fill-rule="evenodd"/><path id="path1" d="M56.112 19.095 C 29.482 19.965,28.577 20.093,29.454 22.854 C 30.783 27.042,24.812 31.771,19.481 30.752 C 15.840 30.056,15.919 28.550,16.224 93.000 L 16.500 151.500 19.500 151.659 C 29.517 152.192,103.870 152.014,117.520 151.425 C 136.026 150.626,134.800 151.357,134.000 141.597 C 133.725 138.243,133.621 113.117,133.768 85.761 L 134.036 36.022 136.268 34.610 C 137.658 33.731,144.156 32.760,153.500 32.037 C 161.750 31.398,171.425 30.449,175.000 29.929 C 178.575 29.410,184.200 28.709,187.500 28.374 C 194.601 27.651,195.946 26.786,195.567 23.190 C 195.285 20.520,195.210 20.495,185.391 19.863 C 168.464 18.774,81.728 18.258,56.112 19.095 M116.831 203.874 C 109.863 204.218,103.788 204.875,103.331 205.333 C 102.874 205.792,102.405 233.467,102.290 266.833 C 102.174 300.200,101.985 329.525,101.869 332.000 C 101.753 334.475,101.985 347.075,102.385 360.000 C 102.785 372.925,102.693 392.950,102.181 404.500 C 101.613 417.304,101.608 425.952,102.170 426.657 C 102.714 427.340,102.894 442.512,102.609 463.657 C 102.344 483.371,102.171 511.425,102.226 526.000 C 102.280 540.575,102.235 568.025,102.126 587.000 C 102.018 605.975,102.017 623.750,102.126 626.500 C 102.558 637.426,102.130 665.752,101.470 669.851 C 101.027 672.606,101.206 675.017,101.958 676.422 C 102.767 677.934,102.964 681.804,102.576 688.570 C 102.263 694.032,102.031 700.525,102.061 703.000 C 102.304 723.028,102.357 763.417,102.171 787.000 C 101.939 816.515,101.809 906.517,101.987 915.750 C 102.211 927.479,102.363 948.282,102.317 961.000 C 102.290 968.425,102.279 980.575,102.293 988.000 C 102.321 1002.878,102.308 1017.622,102.144 1156.500 C 102.082 1208.750,102.030 1253.300,102.028 1255.500 C 102.026 1257.700,102.131 1291.450,102.262 1330.500 C 102.397 1370.635,102.114 1402.051,101.613 1402.768 C 101.117 1403.476,101.081 1406.345,101.531 1409.268 C 102.467 1415.346,102.325 1555.669,101.377 1561.242 C 101.027 1563.299,101.146 1565.549,101.640 1566.242 C 102.145 1566.947,102.405 1582.209,102.233 1601.000 C 102.064 1619.425,102.055 1639.900,102.213 1646.500 C 102.458 1656.753,102.320 1689.580,101.976 1702.500 C 101.918 1704.700,101.931 1752.625,102.005 1809.000 C 102.080 1865.375,102.111 1913.750,102.076 1916.500 C 101.973 1924.476,101.660 2004.088,101.715 2008.500 C 102.407 2064.599,102.510 2157.862,101.884 2161.926 C 101.362 2165.315,101.419 2167.800,102.038 2168.545 C 103.003 2169.709,102.594 2194.795,101.438 2205.341 C 101.110 2208.333,101.355 2210.723,102.079 2211.595 C 102.919 2212.607,103.056 2216.340,102.564 2224.754 C 101.597 2241.258,101.603 2239.724,102.405 2269.318 C 102.942 2289.127,102.829 2296.502,101.972 2297.534 C 101.279 2298.368,101.050 2300.454,101.401 2302.715 C 101.840 2305.533,103.120 2380.997,103.014 2397.750 L 103.000 2400.000 143.506 2400.000 L 184.012 2400.000 183.898 2213.250 C 183.835 2110.537,183.727 1985.550,183.659 1935.500 C 183.590 1885.450,183.752 1837.750,184.017 1829.500 C 184.283 1821.250,184.467 1802.800,184.427 1788.500 C 184.297 1742.293,183.850 1289.786,183.893 1248.500 C 184.024 1124.657,183.924 715.689,183.754 677.000 C 183.507 620.912,183.507 621.498,183.741 534.000 C 183.998 438.066,183.924 320.069,183.574 269.500 C 183.548 265.650,183.595 256.425,183.680 249.000 C 183.765 241.575,183.780 230.325,183.715 224.000 C 183.649 217.675,183.799 211.161,184.048 209.524 C 184.416 207.100,184.037 206.331,182.000 205.373 C 178.977 203.951,135.519 202.952,116.831 203.874 M189.295 1576.513 C 188.345 1577.543,188.428 1577.950,189.688 1578.434 C 191.751 1579.225,192.403 1578.534,191.342 1576.678 C 190.651 1575.471,190.283 1575.441,189.295 1576.513 " stroke="none" fill="#d3ed7e" fill-rule="evenodd"/><path id="path2" d="M203.570 18.753 C 197.348 19.128,194.618 20.954,195.563 24.109 C 196.294 26.547,194.111 27.701,187.500 28.374 C 184.200 28.709,178.575 29.410,175.000 29.929 C 171.425 30.449,161.750 31.398,153.500 32.037 C 144.082 32.766,137.663 33.728,136.250 34.622 L 134.000 36.046 133.882 85.773 C 133.816 113.123,133.800 135.788,133.845 136.140 C 134.215 139.040,134.190 150.143,133.813 150.520 C 132.932 151.401,64.763 152.506,42.500 152.000 C 30.400 151.725,19.150 151.755,17.500 152.068 C 5.663 154.308,129.034 153.524,159.000 151.168 L 167.500 150.500 167.758 93.267 L 168.016 36.034 170.258 35.576 C 171.491 35.324,174.750 34.855,177.500 34.534 C 180.250 34.214,185.650 33.494,189.500 32.934 C 198.325 31.652,210.391 30.160,219.725 29.197 C 227.736 28.370,228.492 27.912,229.461 23.308 C 230.097 20.287,229.956 20.089,226.817 19.611 C 221.445 18.793,209.953 18.369,203.570 18.753 M23.500 20.742 C 14.863 21.618,12.511 31.000,20.928 31.000 C 23.533 31.000,28.715 28.184,29.402 26.396 C 30.077 24.636,29.121 19.911,28.142 20.168 C 27.789 20.261,25.700 20.519,23.500 20.742 M102.420 203.041 C 86.239 203.690,80.970 204.193,76.000 205.563 C 74.511 205.973,74.418 399.915,74.977 2321.750 L 75.000 2400.000 89.050 2400.000 L 103.099 2400.000 102.521 2352.750 C 102.203 2326.762,101.680 2304.033,101.358 2302.239 C 101.018 2300.344,101.267 2298.383,101.953 2297.557 C 102.834 2296.495,102.948 2289.368,102.405 2269.318 C 101.603 2239.724,101.597 2241.258,102.564 2224.754 C 103.056 2216.340,102.919 2212.607,102.079 2211.595 C 101.355 2210.723,101.110 2208.333,101.438 2205.341 C 102.594 2194.795,103.003 2169.709,102.038 2168.545 C 101.419 2167.800,101.362 2165.315,101.884 2161.926 C 102.510 2157.862,102.407 2064.599,101.715 2008.500 C 101.660 2004.088,101.973 1924.476,102.076 1916.500 C 102.111 1913.750,102.080 1865.375,102.005 1809.000 C 101.931 1752.625,101.918 1704.700,101.976 1702.500 C 102.320 1689.580,102.458 1656.753,102.213 1646.500 C 102.055 1639.900,102.064 1619.425,102.233 1601.000 C 102.405 1582.209,102.145 1566.947,101.640 1566.242 C 101.146 1565.549,101.027 1563.299,101.377 1561.242 C 102.325 1555.669,102.467 1415.346,101.531 1409.268 C 101.081 1406.345,101.117 1403.476,101.613 1402.768 C 102.114 1402.051,102.397 1370.635,102.262 1330.500 C 102.131 1291.450,102.026 1257.700,102.028 1255.500 C 102.030 1253.300,102.082 1208.750,102.144 1156.500 C 102.308 1017.622,102.321 1002.878,102.293 988.000 C 102.279 980.575,102.290 968.425,102.317 961.000 C 102.363 948.282,102.211 927.479,101.987 915.750 C 101.809 906.517,101.939 816.515,102.171 787.000 C 102.357 763.417,102.304 723.028,102.061 703.000 C 102.031 700.525,102.263 694.032,102.576 688.570 C 102.964 681.804,102.767 677.934,101.958 676.422 C 101.206 675.017,101.027 672.606,101.470 669.851 C 102.130 665.752,102.558 637.426,102.126 626.500 C 102.017 623.750,102.018 605.975,102.126 587.000 C 102.235 568.025,102.280 540.575,102.226 526.000 C 102.171 511.425,102.344 483.371,102.609 463.657 C 102.894 442.512,102.714 427.340,102.170 426.657 C 101.608 425.952,101.613 417.304,102.181 404.500 C 102.693 392.950,102.785 372.925,102.385 360.000 C 101.985 347.075,101.753 334.475,101.869 332.000 C 101.985 329.525,102.174 300.102,102.290 266.615 L 102.500 205.729 105.000 204.733 C 106.491 204.139,121.839 203.729,143.045 203.716 C 182.975 203.692,184.893 203.964,184.048 209.524 C 183.799 211.161,183.649 217.675,183.715 224.000 C 183.780 230.325,183.765 241.575,183.680 249.000 C 183.595 256.425,183.548 265.650,183.574 269.500 C 183.924 320.069,183.998 438.066,183.741 534.000 C 183.507 621.498,183.507 620.912,183.754 677.000 C 183.924 715.689,184.024 1124.657,183.893 1248.500 C 183.850 1289.786,184.297 1742.293,184.427 1788.500 C 184.467 1802.800,184.283 1821.250,184.017 1829.500 C 183.752 1837.750,183.591 1885.450,183.659 1935.500 C 183.756 2005.977,183.933 2244.831,183.994 2385.250 L 184.000 2400.000 197.371 2400.000 L 210.742 2400.000 211.311 2395.250 C 211.623 2392.637,211.703 2369.800,211.489 2344.500 C 211.116 2300.554,210.955 2177.130,211.160 2093.000 C 211.213 2071.275,211.223 2040.450,211.181 2024.500 C 211.112 1997.711,211.056 1759.029,211.083 1603.000 C 211.109 1450.766,211.082 1312.269,211.016 1263.500 C 210.978 1234.900,211.020 1188.100,211.111 1159.500 C 211.201 1130.900,211.204 1079.375,211.117 1045.000 C 211.030 1010.625,211.005 807.699,211.063 594.053 L 211.167 205.606 209.076 204.832 C 203.139 202.636,139.240 201.563,102.420 203.041 M191.735 1578.599 C 190.517 1579.817,188.129 1577.777,189.295 1576.513 C 190.283 1575.441,190.651 1575.471,191.342 1576.678 C 191.805 1577.488,191.981 1578.352,191.735 1578.599 " stroke="none" fill="#b6d56a" fill-rule="evenodd"/><path id="path3" d="M0.000 1.000 C 0.000 1.663,65.500 2.000,194.500 2.000 C 323.500 2.000,389.000 1.663,389.000 1.000 C 389.000 0.337,323.500 0.000,194.500 0.000 C 65.500 0.000,0.000 0.337,0.000 1.000 M0.000 186.000 C 0.000 187.566,0.667 188.000,3.071 188.000 C 4.761 188.000,6.786 188.643,7.571 189.429 C 8.808 190.665,9.000 339.467,9.000 1295.429 L 9.000 2400.000 12.500 2400.000 L 16.000 2400.000 16.000 1294.366 L 16.000 188.733 13.250 186.368 C 9.481 183.126,0.000 182.863,0.000 186.000 M380.557 186.223 C 379.150 188.231,379.000 295.026,379.000 1294.223 L 379.000 2400.000 382.000 2400.000 L 385.000 2400.000 385.000 1295.221 C 385.000 191.589,385.002 190.440,387.000 189.000 C 388.100 188.207,389.000 186.758,389.000 185.779 C 389.000 183.005,382.574 183.343,380.557 186.223 " stroke="none" fill="#cdc4cb" fill-rule="evenodd"/><path id="path4" d="M198.762 16.707 C 200.006 16.946,201.806 16.937,202.762 16.687 C 203.718 16.437,202.700 16.241,200.500 16.252 C 198.300 16.263,197.518 16.468,198.762 16.707 M209.500 17.523 C 212.250 18.230,216.975 18.857,220.000 18.918 C 228.920 19.095,230.218 19.708,229.446 23.380 C 228.494 27.905,227.714 28.372,219.725 29.197 C 210.391 30.160,198.325 31.652,189.500 32.934 C 185.650 33.494,180.250 34.214,177.500 34.534 C 174.750 34.855,171.488 35.325,170.250 35.578 L 168.000 36.038 168.000 93.050 C 168.000 137.776,167.731 150.151,166.750 150.471 C 159.940 152.693,21.205 154.627,15.125 152.584 C 13.628 152.081,12.974 152.150,13.358 152.770 C 15.070 155.541,122.935 154.969,176.000 151.908 C 194.633 150.833,199.185 149.969,196.135 148.083 C 195.192 147.501,195.120 147.044,195.895 146.565 C 196.688 146.075,196.963 130.391,196.861 91.572 C 196.706 32.601,196.499 35.000,201.749 35.000 C 203.746 35.000,207.882 34.567,210.940 34.038 C 213.998 33.508,220.100 32.636,224.500 32.099 C 258.845 27.906,258.547 27.964,258.326 25.512 C 258.231 24.451,258.555 22.832,259.046 21.913 C 260.708 18.809,235.897 15.755,212.000 16.122 L 204.500 16.238 209.500 17.523 M12.300 26.000 C 12.300 29.025,12.487 30.263,12.716 28.750 C 12.945 27.238,12.945 24.763,12.716 23.250 C 12.487 21.738,12.300 22.975,12.300 26.000 M111.500 201.654 C 94.488 202.112,61.499 204.226,60.179 204.942 C 59.159 205.495,57.974 2333.159,58.958 2397.250 L 59.000 2400.000 66.964 2400.000 L 74.928 2400.000 74.714 1303.011 C 74.527 344.597,74.683 205.952,75.953 205.465 C 79.436 204.128,100.944 202.853,132.500 202.113 C 161.896 201.423,163.386 201.322,143.500 201.363 C 130.850 201.390,116.450 201.520,111.500 201.654 M186.582 203.122 C 197.627 203.572,207.677 204.315,208.915 204.773 L 211.167 205.606 211.063 594.053 C 211.005 807.699,211.030 1010.625,211.117 1045.000 C 211.204 1079.375,211.201 1130.900,211.111 1159.500 C 211.020 1188.100,210.978 1234.900,211.016 1263.500 C 211.082 1312.269,211.109 1450.766,211.083 1603.000 C 211.056 1759.029,211.112 1997.711,211.181 2024.500 C 211.223 2040.450,211.213 2071.275,211.160 2093.000 C 211.021 2149.996,211.108 2290.153,211.319 2349.250 L 211.500 2400.000 219.250 2400.000 L 227.000 2400.000 227.004 2366.750 C 227.150 1069.350,226.854 205.468,226.262 204.925 C 225.180 203.931,190.616 201.964,177.500 202.149 C 168.919 202.270,170.915 202.484,186.582 203.122 " stroke="none" fill="#a4c45c" fill-rule="evenodd"/><path id="path5" d="M247.500 17.613 C 255.603 18.438,260.025 20.085,259.046 21.913 C 258.555 22.832,258.231 24.451,258.326 25.512 C 258.544 27.934,258.057 28.029,225.500 31.966 C 220.550 32.565,213.998 33.492,210.940 34.027 C 207.882 34.562,203.746 35.000,201.749 35.000 C 196.499 35.000,196.706 32.601,196.861 91.572 C 196.963 130.391,196.688 146.075,195.895 146.565 C 195.120 147.044,195.192 147.501,196.135 148.083 C 202.359 151.930,103.262 156.012,41.000 154.473 C 19.156 153.934,13.744 154.049,14.685 155.032 C 15.618 156.007,33.886 156.131,100.685 155.616 C 195.402 154.887,199.673 154.746,235.284 151.179 L 242.067 150.500 242.275 100.500 C 242.390 73.000,242.356 48.475,242.201 46.000 C 241.612 36.641,242.672 35.045,249.500 35.010 C 251.700 34.998,255.075 34.568,257.000 34.054 C 260.487 33.122,264.654 32.591,277.000 31.503 C 280.575 31.188,285.750 30.508,288.500 29.993 C 291.250 29.477,295.589 28.798,298.143 28.483 C 305.829 27.534,305.740 20.000,298.043 20.000 C 296.087 20.000,292.915 19.514,290.993 18.919 C 289.072 18.325,277.600 17.696,265.500 17.522 C 253.400 17.348,245.300 17.389,247.500 17.613 M122.000 199.242 C 121.725 199.509,108.225 200.022,92.000 200.382 C 59.209 201.111,33.812 202.854,32.177 204.489 C 31.355 205.312,30.930 2226.182,31.732 2327.750 L 32.302 2400.000 45.567 2400.000 L 58.833 2400.000 58.845 1302.830 C 58.855 394.388,59.084 205.539,60.178 204.955 C 68.093 200.736,221.742 200.698,226.263 204.914 C 226.682 205.305,227.022 699.359,227.019 1302.813 L 227.013 2400.000 242.006 2400.000 L 257.000 2400.000 257.044 2378.250 C 257.367 2217.336,257.196 204.862,256.859 204.525 C 256.604 204.270,254.844 203.995,252.948 203.914 C 251.051 203.832,247.025 203.376,244.000 202.900 C 231.617 200.953,123.576 197.713,122.000 199.242 " stroke="none" fill="#92b54f" fill-rule="evenodd"/><path id="path6" d="M369.000 11.986 C 369.000 12.624,346.668 12.960,305.750 12.939 C 270.962 12.922,238.900 12.943,234.500 12.987 C 230.100 13.031,179.334 12.802,121.687 12.477 C 9.064 11.844,12.504 11.705,10.174 16.969 C 8.321 21.156,8.278 170.928,10.130 172.101 C 13.482 174.225,15.502 173.164,13.058 170.562 C 9.567 166.846,9.053 159.637,12.052 156.445 C 13.843 154.538,14.102 153.702,13.187 152.787 C 11.526 151.126,11.477 23.242,13.135 19.602 C 13.760 18.231,14.997 16.775,15.885 16.365 C 18.064 15.361,187.202 15.066,213.000 16.022 C 244.512 17.190,282.212 17.231,306.500 16.124 C 318.600 15.572,339.649 14.859,353.275 14.540 L 378.050 13.959 380.525 16.434 L 383.000 18.909 383.000 92.873 C 383.000 133.553,382.720 167.565,382.379 168.455 C 381.607 170.467,376.853 173.000,373.850 173.000 C 372.223 173.000,371.902 173.302,372.693 174.093 C 373.483 174.883,374.350 174.883,375.827 174.093 C 376.950 173.492,378.698 173.000,379.712 173.000 C 385.166 173.000,385.000 175.511,385.000 93.000 C 385.000 9.842,385.224 13.000,379.337 13.000 C 378.116 13.000,376.840 12.550,376.500 12.000 C 375.700 10.705,369.000 10.692,369.000 11.986 M16.500 174.000 C 16.840 174.550,17.965 175.000,19.000 175.000 C 20.035 175.000,21.160 174.550,21.500 174.000 C 21.862 173.415,20.824 173.000,19.000 173.000 C 17.176 173.000,16.138 173.415,16.500 174.000 M0.000 183.000 C 0.000 183.550,2.390 184.000,5.311 184.000 C 9.325 184.000,11.174 184.513,12.878 186.101 C 15.660 188.693,16.460 188.104,14.877 184.629 C 13.628 181.888,0.000 180.396,0.000 183.000 M25.615 184.465 C 22.788 188.779,23.172 2400.000,26.000 2400.000 C 27.989 2400.000,28.000 2399.330,28.010 2273.250 C 28.137 689.884,27.904 204.878,27.013 202.535 C 23.922 194.404,26.754 184.000,32.059 184.000 C 33.191 184.000,33.840 183.550,33.500 183.000 C 32.260 180.993,27.284 181.918,25.615 184.465 M37.500 183.000 C 37.089 183.665,90.509 184.000,197.000 184.000 C 303.491 184.000,356.911 183.665,356.500 183.000 C 355.645 181.616,38.355 181.616,37.500 183.000 M359.000 183.000 C 359.000 183.550,360.107 184.000,361.461 184.000 C 362.815 184.000,364.840 184.985,365.961 186.189 L 368.000 188.377 368.000 1294.189 C 368.000 2030.730,368.334 2400.000,369.000 2400.000 C 370.938 2400.000,370.324 187.424,368.385 184.465 C 366.724 181.930,359.000 180.724,359.000 183.000 M379.000 183.763 C 377.161 185.832,376.161 2400.000,377.999 2400.000 C 378.667 2400.000,379.000 2031.733,379.000 1294.223 C 379.000 295.026,379.150 188.231,380.557 186.223 C 381.653 184.658,383.132 184.000,385.557 184.000 C 387.451 184.000,389.000 183.550,389.000 183.000 C 389.000 181.277,380.644 181.915,379.000 183.763 " stroke="none" fill="#93947c" fill-rule="evenodd"/><path id="path7" d="M215.250 12.716 C 216.762 12.945,219.238 12.945,220.750 12.716 C 222.262 12.487,221.025 12.300,218.000 12.300 C 214.975 12.300,213.738 12.487,215.250 12.716 M247.768 12.725 C 249.565 12.947,252.265 12.943,253.768 12.715 C 255.271 12.486,253.800 12.304,250.500 12.310 C 247.200 12.315,245.971 12.502,247.768 12.725 M283.250 12.689 C 284.212 12.941,285.788 12.941,286.750 12.689 C 287.712 12.438,286.925 12.232,285.000 12.232 C 283.075 12.232,282.288 12.438,283.250 12.689 M326.750 12.748 C 334.587 12.917,347.412 12.917,355.250 12.748 C 363.087 12.579,356.675 12.441,341.000 12.441 C 325.325 12.441,318.912 12.579,326.750 12.748 M326.000 15.216 C 311.425 15.610,296.125 16.238,292.000 16.612 L 284.500 17.291 289.500 18.626 C 292.250 19.361,296.098 19.970,298.050 19.981 C 303.767 20.012,306.277 27.871,300.637 28.079 C 299.461 28.122,299.082 28.391,299.793 28.677 C 302.208 29.646,306.000 28.043,306.000 26.052 C 306.000 22.946,308.856 20.809,312.065 21.514 C 313.615 21.855,315.813 21.635,316.950 21.027 C 322.995 17.792,376.421 16.487,378.638 19.520 C 380.371 21.889,380.685 163.852,378.965 167.066 C 377.657 169.509,17.187 170.187,15.253 167.750 C 12.969 164.872,12.835 159.229,15.014 157.702 C 16.876 156.398,16.916 156.182,15.400 155.600 C 10.026 153.538,8.086 165.269,12.946 170.442 C 15.025 172.656,15.052 172.846,13.339 173.209 C 11.962 173.501,12.183 173.739,14.220 174.155 C 15.716 174.461,16.702 174.326,16.411 173.856 C 16.120 173.385,17.285 173.000,19.000 173.000 C 20.715 173.000,21.900 173.354,21.632 173.786 C 21.365 174.218,22.014 174.571,23.073 174.571 C 24.133 174.571,25.007 174.105,25.015 173.536 C 25.025 172.854,25.282 172.841,25.765 173.500 C 26.634 174.683,373.076 174.933,372.346 173.750 C 372.091 173.337,372.831 173.000,373.991 173.000 C 376.873 173.000,381.622 170.427,382.379 168.455 C 382.720 167.565,383.000 133.553,383.000 92.873 L 383.000 18.909 380.496 16.405 C 377.665 13.574,382.688 13.684,326.000 15.216 M242.972 36.000 C 242.303 37.472,241.951 42.031,242.201 46.000 C 242.356 48.475,242.390 73.000,242.275 100.500 L 242.067 150.500 235.284 151.073 L 228.500 151.647 235.000 151.809 C 238.575 151.898,242.589 151.415,243.921 150.735 C 246.417 149.462,247.513 145.411,245.564 144.663 C 244.788 144.365,244.501 129.137,244.581 92.371 C 244.675 48.551,244.238 33.216,242.972 36.000 M213.250 153.716 C 214.762 153.945,217.238 153.945,218.750 153.716 C 220.262 153.487,219.025 153.300,216.000 153.300 C 212.975 153.300,211.738 153.487,213.250 153.716 M156.768 155.725 C 158.565 155.947,161.265 155.943,162.768 155.715 C 164.271 155.486,162.800 155.304,159.500 155.310 C 156.200 155.315,154.971 155.502,156.768 155.725 M58.789 156.741 C 62.248 156.937,67.648 156.936,70.789 156.738 C 73.930 156.540,71.100 156.380,64.500 156.382 C 57.900 156.384,55.330 156.546,58.789 156.741 M7.252 163.500 C 7.263 165.700,7.468 166.482,7.707 165.238 C 7.946 163.994,7.937 162.194,7.687 161.238 C 7.437 160.282,7.241 161.300,7.252 163.500 M376.000 174.014 C 374.945 174.706,375.538 174.807,378.000 174.355 C 382.313 173.564,383.126 172.995,379.917 173.015 C 378.587 173.024,376.825 173.473,376.000 174.014 M33.500 183.000 C 33.840 183.550,33.191 184.000,32.059 184.000 C 26.751 184.000,23.922 194.405,27.017 202.545 C 27.704 204.353,28.033 561.100,28.030 1302.610 C 28.025 2344.289,28.113 2400.000,29.764 2400.000 C 31.414 2400.000,31.502 2344.279,31.494 1302.378 L 31.487 204.755 33.493 203.941 C 34.597 203.493,34.938 203.098,34.250 203.063 C 29.049 202.800,26.723 190.538,31.305 187.536 C 35.374 184.870,361.620 185.759,363.581 188.441 C 364.804 190.115,365.000 342.635,365.000 1295.191 C 365.000 2276.577,365.168 2400.000,366.500 2400.000 C 367.832 2400.000,368.000 2276.465,368.000 1294.189 L 368.000 188.377 365.961 186.189 C 364.840 184.985,362.815 184.000,361.461 184.000 C 360.107 184.000,359.000 183.550,359.000 183.000 C 359.000 182.450,358.298 182.000,357.441 182.000 C 356.584 182.000,356.160 182.450,356.500 183.000 C 356.911 183.665,303.491 184.000,197.000 184.000 C 90.509 184.000,37.089 183.665,37.500 183.000 C 37.852 182.431,36.991 182.000,35.500 182.000 C 34.009 182.000,33.148 182.431,33.500 183.000 M110.776 199.733 C 113.128 199.945,116.728 199.942,118.776 199.727 C 120.824 199.512,118.900 199.339,114.500 199.343 C 110.100 199.346,108.424 199.522,110.776 199.733 M170.728 199.722 C 172.503 199.943,175.653 199.946,177.728 199.730 C 179.802 199.513,178.350 199.333,174.500 199.328 C 170.650 199.324,168.952 199.501,170.728 199.722 M257.665 207.750 C 256.695 213.151,257.079 1990.000,258.050 1990.000 C 258.605 1990.000,259.007 1984.066,259.017 1975.750 C 259.033 1962.796,259.034 1770.558,259.023 1069.500 C 259.020 936.400,259.056 807.250,259.102 782.500 C 259.149 757.750,259.165 713.650,259.139 684.500 C 258.934 456.202,258.878 306.216,258.983 259.750 C 259.097 208.491,258.904 200.852,257.665 207.750 M257.594 2000.849 C 256.698 2002.298,257.336 2400.000,258.234 2400.000 C 259.155 2400.000,259.155 2400.056,259.024 2177.544 C 258.923 2005.246,258.871 1998.782,257.594 2000.849 " stroke="none" fill="#81905f" fill-rule="evenodd"/><path id="path8" d="M27.829 15.915 C 20.860 16.237,14.795 16.865,14.351 17.312 C 12.639 19.032,12.140 35.556,12.071 92.750 L 12.000 152.000 14.250 152.000 L 16.500 152.000 16.276 88.131 C 16.016 14.112,14.721 21.584,28.000 20.479 C 53.874 18.326,156.760 17.957,186.000 19.912 C 191.775 20.298,196.650 20.251,196.833 19.807 C 197.017 19.363,199.829 19.000,203.083 19.000 C 208.210 19.000,212.025 17.110,207.250 16.936 C 206.287 16.901,203.250 16.660,200.500 16.400 C 192.820 15.675,42.183 15.252,27.829 15.915 " stroke="none" fill="#c4cc88" fill-rule="evenodd"/></g></svg>