<svg xmlns="http://www.w3.org/2000/svg" viewBox="32.953 72.953 1435.09 383.094" width="100" height="100">
<path fill="#4c3b46" stroke="#4c3b46" stroke-width="0.094" d="M 81.4 73 h 206.601 v 112 h 15.3 c 0.399 -5.1 0.6 -10.3 0.899 -15.4 c 5.2 -0.5 10.4 -0.7 15.601 -1.6 c 0.1 -3.8 0.399 -11.3 0.6 -15 h 222.5 c 0.2 5.3 0.4 10.7 0.7 16 h 31.3 c 0.2 5.3 0.4 10.7 0.7 16 h 15.4 v -32 H 701.9 c 0.2 5.3 0.4 10.7 0.7 16 h 31.3 c 0.2 5.3 0.4 10.7 0.7 16 H 750 v -48 h 160 V 73 h 126.899 c 0.2 5.3 0.4 10.7 0.7 16 h 15.4 c 0 5.2 0.1 10.4 0.199 15.7 c 5.2 0.1 10.5 0.2 15.801 0.3 c 0 5.3 0.1 10.5 0.199 15.7 c 5.2 0.1 10.5 0.3 15.801 0.3 v 16 h 80 v 48 h 15.3 c 0.3 -5.1 0.6 -10.3 0.899 -15.4 c 5.2 -0.5 10.4 -0.7 15.601 -1.6 c 0.1 -3.8 0.399 -11.3 0.6 -15 H 1308 v 32 h 15.3 c 0.3 -5.1 0.6 -10.3 0.899 -15.4 c 5.2 -0.5 10.4 -0.6 15.601 -1.6 c 0.1 -3.8 0.399 -11.3 0.6 -15 h 31.601 V 73 h 96 v 319 h -128 v -16 h -16 v -16 h -16 v -16 h -16 v -79 h -32 v 16 h -16 v 111 h -175 v -16 v -16 h -16 v 16 h -16 v 16 h -111 v 16 h -16 v 16 h -16 v 16 h -16 v 16 h -80 v -96 v -16 h -16 v -15 h -16 v 15 h -16 c -5.301 0 -10.5 0.1 -15.7 0.2 c -0.101 5.2 -0.3 10.5 -0.3 15.8 v 16 h -16 v 16 h -32 v 64 h -95 v -96 h -16 v 16 h -16 v 16 h -32 v 64 h -96 v -64 h -111 v -16 h -16 v -16 h -16 v 32 h -96 V 281 h -63 v 111 h -96 V 121 h 15.3 c 0.4 -5.1 0.6 -10.3 0.9 -15.5 c 4.8 -1.2 11.3 1.1 15.3 -1.9 c 0.3 -3.5 0.8 -10.5 1 -14 c 5.1 -0.5 10.2 -0.7 15.3 -1.6 c 0.099 -3.8 0.399 -11.3 0.599 -15 M 81 89 v 16 H 65 v 16 H 49 v 239 h 64 V 249 h 79 v -80 h -79 v -16 h 79 v -32 h 16 v 239 h 64 V 89 h -64 v 16 h -16 V 89 H 81 m 845 0 v 271 h 111 v -16 h 16 v -15 h 16 V 121 h -16 v -16 h -16 V 89 H 926 m 462 0 v 80 h -48 v 16 h -16 v 16 h -16 v 128 h 16 v 15 h 16 v 16 h 112 V 89 h -64 m -622 64 v 144 h 16 v 16 h 16 v 16 h 32 v 31 h -16 v 64 h 64 v -16 h 16 v -16 h 16 V 153 h -64 v 112 h -16 V 153 h -64 m 319 0 v 64 h 64 v -64 h -64 m -765 16 v 16 h -16 v 16 h -16 v 128 h 16 v 15 h 16 v 16 h 111 V 169 H 320 m 127 0 v 255 h 64 v -64 h 48 v -16 h 16 v -15 h 16 V 201 h -16 v -16 h -32 v -16 h -96 m 160 0 v 255 h 64 v -64 h 47 v -16 h 16 v -15 h 16 V 201 h -16 v -16 h -32 v -16 h -95 m 590 0 v 16 h -16 v 16 h -16 v 159 h 64 V 249 h 15 v -16 h 48 v -64 h -95 m -112 64 v 127 h 64 V 233 h -64 Z" />
<path opacity="0.05" fill="#040203" stroke="#040203" stroke-width="0.094" d="M 288 73 h 16 v 32 h -16 V 73 Z" />
<path opacity="0.06" fill="#040303" stroke="#040303" stroke-width="0.094" d="M 1052.9 73 h 16.101 v 32 c -5.301 -0.1 -10.601 -0.2 -15.801 -0.3 c -0.1 -5.3 -0.2 -10.5 -0.2 -15.7 c 0 -5.3 -0.1 -10.7 -0.1 -16 Z" />
<path fill="#fefefe" stroke="#fefefe" stroke-width="0.094" d="M 81 89 h 111 v 64 h -79 v 16 h 79 v 80 h -79 v 111 H 49 V 121 h 16 v -16 h 16 V 89 Z" />
<path fill="#fff" stroke="#fff" stroke-width="0.094" d="M 208 89 h 64 v 271 h -64 V 121 v -16 v -16 Z M 926 89 h 111 v 16 h 16 v 16 h 16 v 208 h -16 v 15 h -16 v 16 H 926 V 89 m 63 64 v 32 h 16 v -32 h -16 m 0 112 v 32 h 16 v -32 h -16 Z M 1388 89 h 64 v 271 h -112 v -16 h -16 v -15 h -16 V 201 h 16 v -16 h 16 v -16 h 48 V 89 m -16 144 v 64 h 16 v -64 h -16 Z" />
<path opacity="0.9" fill="#44363f" stroke="#44363f" stroke-width="0.094" d="M 192 105 h 16 v 16 h -16 v -16 Z" />
<path opacity="0.05" fill="#040303" stroke="#040303" stroke-width="0.094" d="M 1085 121 h 16 v 16 h -16 v -16 Z" />
<path fill="#fefefe" stroke="#fefefe" stroke-width="0.094" d="M 766 153 h 64 v 112 h 16 V 153 h 64 v 239 h -16 v 16 h -16 v 16 h -64 v -64 h 16 v -31 h -32 v -16 h -16 v -16 h -16 V 153 Z" />
<path fill="#4c3b46" stroke="#4c3b46" stroke-width="0.094" d="M 989 153 h 16 v 32 h -16 v -32 Z" />
<path fill="#fff" stroke="#fff" stroke-width="0.094" d="M 1085 153 h 64 v 64 h -64 v -64 Z" />
<path fill="#fefefe" stroke="#fefefe" stroke-width="0.094" d="M 320 169 h 111 v 191 H 320 v -16 h -16 v -15 h -16 V 201 h 16 v -16 h 16 v -16 m 32 64 v 64 h 16 v -64 h -16 Z" />
<path fill="#fff" stroke="#fff" stroke-width="0.094" d="M 447 169 h 96 v 16 h 32 v 16 h 16 v 128 h -16 v 15 h -16 v 16 h -48 v 64 h -64 V 169 m 64 64 v 64 h 16 v -64 h -16 Z" />
<path fill="#fefefe" stroke="#fefefe" stroke-width="0.094" d="M 607 169 h 95 v 16 h 32 v 16 h 16 v 128 h -16 v 15 h -16 v 16 h -47 v 64 h -64 V 169 m 64 64 v 64 h 15 v -64 h -15 Z" />
<path fill="#fff" stroke="#fff" stroke-width="0.094" d="M 1197 169 h 95 v 64 h -48 v 16 h -15 v 111 h -64 V 201 h 16 v -16 h 16 v -16 Z" />
<path fill="#4b3b45" stroke="#4b3b45" stroke-width="0.094" d="M 352 233 h 16 v 64 h -16 v -64 Z M 511 233 h 16 v 64 h -16 v -64 Z M 671 233 h 15 v 64 h -15 v -64 Z" />
<path fill="#fff" stroke="#fff" stroke-width="0.094" d="M 1085 233 h 64 v 127 h -64 V 233 Z" />
<path fill="#4b3b45" stroke="#4b3b45" stroke-width="0.094" d="M 1372 233 h 16 v 64 h -16 v -64 Z" />
<path fill="#4c3b46" stroke="#4c3b46" stroke-width="0.094" d="M 989 265 h 16 v 32 h -16 v -32 Z" />
<path opacity="0.9" fill="#44363f" stroke="#44363f" stroke-width="0.094" d="M 734.3 344.2 c 5.2 -0.101 10.399 -0.2 15.7 -0.2 v 16 h -16 c 0 -5.3 0.199 -10.6 0.3 -15.8 Z" />
<path opacity="0.2" fill="#0f0c0e" stroke="#0f0c0e" stroke-width="0.094" d="M 750 344 h 16 v 16 h -16 v -16 Z" />
<path opacity="0.14" fill="#0a0809" stroke="#0a0809" stroke-width="0.094" d="M 782 344 h 16 v 16 h -16 v -16 Z" />
<path opacity="0.08" fill="#060405" stroke="#060405" stroke-width="0.094" d="M 288 360 h 16 v 16 h -16 v -16 Z" />
<path opacity="0.11" fill="#080607" stroke="#080607" stroke-width="0.094" d="M 1053 360 h 16 v 16 h -16 v -16 Z" />
<path opacity="0.12" fill="#080708" stroke="#080708" stroke-width="0.094" d="M 288 376 h 16 v 16 h -16 v -16 Z" />
<path opacity="0.05" fill="#040303" stroke="#040303" stroke-width="0.094" d="M 1037 376 h 16 v 16 h -16 v -16 Z M 926 392 h 16 v 16 h -16 v -16 Z" />
<path opacity="0.16" fill="#0c090b" stroke="#0c090b" stroke-width="0.094" d="M 878 440 h 16 v 16 h -16 v -16 Z" />
</svg>