<svg xmlns="http://www.w3.org/2000/svg" xmlns:xlink="http://www.w3.org/1999/xlink" id="svg" version="1.1" 
width="100" height="100" viewBox="0 0 400 400">
<g id="svgg">
<path id="path0" d="M150.000 156.250 L 150.000 162.500 137.500 162.500 L 125.000 162.500 125.000 168.750 L 125.000 175.000 131.250 175.000 L 137.500 175.000 137.500 181.250 L 137.500 187.500 143.750 187.500 L 150.000 187.500 150.000 193.750 L 150.000 200.000 156.250 200.000 L 162.500 200.000 162.500 212.500 L 162.500 225.000 156.250 225.000 L 150.000 225.000 150.000 218.750 L 150.000 212.500 143.750 212.500 L 137.500 212.500 137.500 218.750 L 137.500 225.000 118.750 225.000 L 100.000 225.000 100.000 218.750 L 100.000 212.500 93.750 212.500 L 87.500 212.500 87.500 218.750 L 87.500 225.000 93.750 225.000 L 100.000 225.000 100.000 231.250 L 100.000 237.500 118.750 237.500 L 137.500 237.500 137.500 231.250 L 137.500 225.000 143.750 225.000 L 150.000 225.000 150.000 231.250 L 150.000 237.500 175.000 237.500 L 200.000 237.500 200.000 231.250 L 200.000 225.000 206.250 225.000 L 212.500 225.000 212.500 218.750 L 212.500 212.500 206.250 212.500 L 200.000 212.500 200.000 206.250 L 200.000 200.000 193.750 200.000 L 187.500 200.000 187.500 181.250 L 187.500 162.500 193.750 162.500 L 200.000 162.500 200.000 156.250 L 200.000 150.000 175.000 150.000 L 150.000 150.000 150.000 156.250 " stroke="none" fill="#fcec3c" fill-rule="evenodd"/>
<path id="path1" d="M212.500 156.250 L 212.500 162.500 206.250 162.500 L 200.000 162.500 200.000 181.250 L 200.000 200.000 206.250 200.000 L 212.500 200.000 212.500 206.250 L 212.500 212.500 231.250 212.500 L 250.000 212.500 250.000 193.750 L 250.000 175.000 243.750 175.000 L 237.500 175.000 237.500 168.750 L 237.500 162.500 231.250 162.500 L 225.000 162.500 225.000 156.250 L 225.000 150.000 218.750 150.000 L 212.500 150.000 212.500 156.250 M237.500 187.500 L 237.500 200.000 231.250 200.000 L 225.000 200.000 225.000 187.500 L 225.000 175.000 231.250 175.000 L 237.500 175.000 237.500 187.500 M87.500 200.000 L 87.500 212.500 93.750 212.500 L 100.000 212.500 100.000 218.750 L 100.000 225.000 118.750 225.000 L 137.500 225.000 137.500 218.750 L 137.500 212.500 143.750 212.500 L 150.000 212.500 150.000 206.250 L 150.000 200.000 143.750 200.000 L 137.500 200.000 137.500 193.750 L 137.500 187.500 112.500 187.500 L 87.500 187.500 87.500 200.000 " stroke="none" fill="#fcfcfc" fill-rule="evenodd"/>
<path id="path2" d="M212.500 231.250 L 212.500 237.500 206.250 237.500 L 200.000 237.500 200.000 243.750 L 200.000 250.000 206.250 250.000 L 212.500 250.000 212.500 256.250 L 212.500 262.500 237.500 262.500 L 262.500 262.500 262.500 256.250 L 262.500 250.000 237.500 250.000 L 212.500 250.000 212.500 243.750 L 212.500 237.500 243.750 237.500 L 275.000 237.500 275.000 231.250 L 275.000 225.000 243.750 225.000 L 212.500 225.000 212.500 231.250 " stroke="none" fill="#fc5424" fill-rule="evenodd"/>
<path id="path3" d="M137.500 250.000 L 137.500 262.500 150.000 262.500 L 162.500 262.500 162.500 268.750 L 162.500 275.000 187.500 275.000 L 212.500 275.000 212.500 268.750 L 212.500 262.500 206.250 262.500 L 200.000 262.500 200.000 256.250 L 200.000 250.000 193.750 250.000 L 187.500 250.000 187.500 243.750 L 187.500 237.500 162.500 237.500 L 137.500 237.500 137.500 250.000 " stroke="none" fill="#fcc404" fill-rule="evenodd"/>
<path id="path4" d="M150.000 143.750 L 150.000 150.000 137.500 150.000 L 125.000 150.000 125.000 156.250 L 125.000 162.500 118.750 162.500 L 112.500 162.500 112.500 168.750 L 112.500 175.000 100.000 175.000 L 87.500 175.000 87.500 181.250 L 87.500 187.500 81.250 187.500 L 75.000 187.500 75.000 206.250 L 75.000 225.000 81.250 225.000 L 87.500 225.000 87.500 231.250 L 87.500 237.500 93.750 237.500 L 100.000 237.500 100.000 243.750 L 100.000 250.000 112.500 250.000 L 125.000 250.000 125.000 256.250 L 125.000 262.500 131.250 262.500 L 137.500 262.500 137.500 268.750 L 137.500 275.000 150.000 275.000 L 162.500 275.000 162.500 281.250 L 162.500 287.500 187.500 287.500 L 212.500 287.500 212.500 281.250 L 212.500 275.000 243.750 275.000 L 275.000 275.000 275.000 256.250 L 275.000 237.500 281.250 237.500 L 287.500 237.500 287.500 231.250 L 287.500 225.000 281.250 225.000 L 275.000 225.000 275.000 218.750 L 275.000 212.500 268.750 212.500 L 262.500 212.500 262.500 193.750 L 262.500 175.000 256.250 175.000 L 250.000 175.000 250.000 168.750 L 250.000 162.500 243.750 162.500 L 237.500 162.500 237.500 156.250 L 237.500 150.000 231.250 150.000 L 225.000 150.000 225.000 143.750 L 225.000 137.500 187.500 137.500 L 150.000 137.500 150.000 143.750 M200.000 156.250 L 200.000 162.500 206.250 162.500 L 212.500 162.500 212.500 156.250 L 212.500 150.000 218.750 150.000 L 225.000 150.000 225.000 156.250 L 225.000 162.500 231.250 162.500 L 237.500 162.500 237.500 168.750 L 237.500 175.000 243.750 175.000 L 250.000 175.000 250.000 193.750 L 250.000 212.500 231.250 212.500 L 212.500 212.500 212.500 218.750 L 212.500 225.000 243.750 225.000 L 275.000 225.000 275.000 231.250 L 275.000 237.500 243.750 237.500 L 212.500 237.500 212.500 243.750 L 212.500 250.000 237.500 250.000 L 262.500 250.000 262.500 256.250 L 262.500 262.500 237.500 262.500 L 212.500 262.500 212.500 268.750 L 212.500 275.000 187.500 275.000 L 162.500 275.000 162.500 268.750 L 162.500 262.500 150.000 262.500 L 137.500 262.500 137.500 250.000 L 137.500 237.500 118.750 237.500 L 100.000 237.500 100.000 231.250 L 100.000 225.000 93.750 225.000 L 87.500 225.000 87.500 206.250 L 87.500 187.500 112.500 187.500 L 137.500 187.500 137.500 181.250 L 137.500 175.000 131.250 175.000 L 125.000 175.000 125.000 168.750 L 125.000 162.500 137.500 162.500 L 150.000 162.500 150.000 156.250 L 150.000 150.000 175.000 150.000 L 200.000 150.000 200.000 156.250 M187.500 181.250 L 187.500 200.000 193.750 200.000 L 200.000 200.000 200.000 206.250 L 200.000 212.500 206.250 212.500 L 212.500 212.500 212.500 206.250 L 212.500 200.000 206.250 200.000 L 200.000 200.000 200.000 181.250 L 200.000 162.500 193.750 162.500 L 187.500 162.500 187.500 181.250 M225.000 187.500 L 225.000 200.000 231.250 200.000 L 237.500 200.000 237.500 187.500 L 237.500 175.000 231.250 175.000 L 225.000 175.000 225.000 187.500 M137.500 193.750 L 137.500 200.000 143.750 200.000 L 150.000 200.000 150.000 212.500 L 150.000 225.000 143.750 225.000 L 137.500 225.000 137.500 231.250 L 137.500 237.500 143.750 237.500 L 150.000 237.500 150.000 231.250 L 150.000 225.000 156.250 225.000 L 162.500 225.000 162.500 212.500 L 162.500 200.000 156.250 200.000 L 150.000 200.000 150.000 193.750 L 150.000 187.500 143.750 187.500 L 137.500 187.500 137.500 193.750 M200.000 231.250 L 200.000 237.500 193.750 237.500 L 187.500 237.500 187.500 243.750 L 187.500 250.000 193.750 250.000 L 200.000 250.000 200.000 256.250 L 200.000 262.500 206.250 262.500 L 212.500 262.500 212.500 256.250 L 212.500 250.000 206.250 250.000 L 200.000 250.000 200.000 243.750 L 200.000 237.500 206.250 237.500 L 212.500 237.500 212.500 231.250 L 212.500 225.000 206.250 225.000 L 200.000 225.000 200.000 231.250 " stroke="none" fill="#040404" fill-rule="evenodd"/>
<path id="path5" d="" stroke="none" fill="#3c8480" fill-rule="evenodd"/>
<path id="path6" d="" stroke="none" fill="#3c0484" fill-rule="evenodd"/>
<path id="path7" d="" stroke="none" fill="#400404" fill-rule="evenodd"/>
<path id="path8" d="" stroke="none" fill="#080404" fill-rule="evenodd"/>
</g>
</svg>