<svg id="svg" version="1.1" width="400" height="144.82758620689654" viewBox="0 0 400 144.82758620689654" xmlns="http://www.w3.org/2000/svg" xmlns:xlink="http://www.w3.org/1999/xlink" ><g id="svgg"><path id="path0" d="M122.000 54.167 L 122.000 55.333 120.833 55.333 L 119.667 55.333 119.667 56.500 L 119.667 57.667 116.250 57.667 L 112.833 57.667 112.833 59.917 L 112.833 62.167 111.667 62.167 L 110.500 62.167 110.500 63.333 L 110.500 64.500 108.250 64.500 L 106.000 64.500 106.000 65.667 L 106.000 66.833 102.500 66.833 L 99.000 66.833 99.000 67.917 L 99.000 69.000 96.750 69.000 L 94.500 69.000 94.500 70.167 L 94.500 71.333 88.750 71.333 L 83.000 71.333 83.000 72.500 L 83.000 73.667 81.833 73.667 L 80.667 73.667 80.667 74.833 L 80.667 76.000 79.500 76.000 L 78.333 76.000 78.333 77.167 L 78.333 78.333 76.083 78.333 L 73.833 78.333 73.833 79.417 L 73.833 80.500 66.750 80.500 L 59.667 80.500 59.667 79.417 L 59.667 78.333 57.333 78.333 L 55.000 78.333 55.000 77.167 L 55.000 76.000 52.667 76.000 L 50.333 76.000 50.333 74.833 L 50.333 73.667 49.250 73.667 L 48.167 73.667 48.167 72.500 L 48.167 71.333 47.000 71.333 L 45.833 71.333 45.833 70.167 L 45.833 69.000 42.583 69.000 L 39.333 69.000 39.333 70.167 L 39.333 71.333 35.833 71.333 L 32.333 71.333 32.333 77.083 L 32.333 82.833 31.167 82.833 L 30.000 82.833 30.000 84.000 L 30.000 85.167 28.917 85.167 L 27.833 85.167 27.833 86.333 L 27.833 87.500 26.667 87.500 L 25.500 87.500 25.500 88.583 L 25.500 89.667 17.417 89.667 L 9.333 89.667 9.333 93.167 L 9.333 96.667 8.250 96.667 L 7.167 96.667 7.167 97.833 L 7.167 99.000 6.000 99.000 L 4.833 99.000 4.833 101.083 L 4.833 103.167 197.750 103.167 L 390.667 103.167 390.667 88.417 L 390.667 73.667 381.417 73.667 L 372.167 73.667 372.167 72.500 L 372.167 71.333 370.042 71.313 C 368.873 71.301,367.392 71.245,366.750 71.188 L 365.583 71.083 365.534 70.042 L 365.484 69.000 363.159 69.000 L 360.833 69.000 360.833 67.917 L 360.833 66.833 358.500 66.833 L 356.167 66.833 356.167 65.667 L 356.167 64.500 353.833 64.500 L 351.500 64.500 351.500 63.333 L 351.500 62.167 348.083 62.167 L 344.667 62.167 344.667 61.000 L 344.667 59.833 335.667 59.833 L 326.667 59.833 326.667 62.167 L 326.667 64.500 324.333 64.500 L 322.000 64.500 322.000 65.667 L 322.000 66.833 320.833 66.833 L 319.667 66.833 319.667 67.917 L 319.667 69.000 317.417 69.000 L 315.167 69.000 315.167 70.167 L 315.167 71.333 314.000 71.333 L 312.833 71.333 312.833 72.500 L 312.833 73.667 311.667 73.667 L 310.500 73.667 310.500 74.833 L 310.500 76.000 304.750 76.000 L 299.000 76.000 299.000 77.167 L 299.000 78.333 296.750 78.333 L 294.500 78.333 294.500 79.417 L 294.500 80.500 281.667 80.500 L 268.833 80.500 268.833 79.417 L 268.833 78.333 267.833 78.333 L 266.833 78.333 266.833 79.417 L 266.833 80.500 265.500 80.500 L 264.167 80.500 264.167 79.417 L 264.167 78.333 260.917 78.333 L 257.667 78.333 257.667 79.417 L 257.667 80.500 251.917 80.500 L 246.167 80.500 246.167 81.667 L 246.167 82.833 237.917 82.833 L 229.667 82.833 229.667 81.667 L 229.667 80.500 227.417 80.500 L 225.167 80.500 225.167 79.417 L 225.167 78.333 224.000 78.333 L 222.833 78.333 222.833 77.167 L 222.833 76.000 219.417 76.000 L 216.000 76.000 216.000 74.833 L 216.000 73.667 211.333 73.667 L 206.667 73.667 206.667 72.500 L 206.667 71.333 200.917 71.333 L 195.167 71.333 195.167 70.167 L 195.167 69.000 192.917 69.000 L 190.667 69.000 190.667 67.917 L 190.667 66.833 187.167 66.833 L 183.667 66.833 183.667 65.667 L 183.667 64.500 174.500 64.500 L 165.333 64.500 165.333 63.333 L 165.333 62.167 159.583 62.167 L 153.833 62.167 153.833 61.000 L 153.833 59.833 151.583 59.833 L 149.333 59.833 149.333 58.750 L 149.333 57.667 145.833 57.667 L 142.333 57.667 142.333 56.500 L 142.333 55.333 138.917 55.333 L 135.500 55.333 135.500 54.167 L 135.500 53.000 128.750 53.000 L 122.000 53.000 122.000 54.167 " stroke="none" fill="#3cc404" fill-rule="evenodd"></path><path id="path1" d="M121.667 51.500 L 121.667 52.667 120.500 52.667 L 119.333 52.667 119.333 53.833 L 119.333 55.000 115.917 55.000 L 112.500 55.000 112.500 56.083 L 112.500 57.167 111.333 57.167 L 110.167 57.167 110.167 58.333 L 110.167 59.500 109.000 59.500 L 107.833 59.500 107.833 60.667 L 107.833 61.833 105.583 61.833 L 103.333 61.833 103.333 63.000 L 103.333 64.167 99.833 64.167 L 96.333 64.167 96.333 65.333 L 96.333 66.500 95.250 66.500 L 94.167 66.500 94.167 67.583 L 94.167 68.667 88.417 68.667 L 82.667 68.667 82.667 69.833 L 82.667 71.000 81.500 71.000 L 80.333 71.000 80.333 72.167 L 80.333 73.333 79.167 73.333 L 78.000 73.333 78.000 74.500 L 78.000 75.667 75.667 75.667 L 73.333 75.667 73.333 76.750 L 73.333 77.833 66.667 77.833 L 60.000 77.833 60.000 76.750 L 60.000 75.667 57.667 75.667 L 55.333 75.667 55.333 74.500 L 55.333 73.333 53.083 73.333 L 50.833 73.333 50.833 72.167 L 50.833 71.000 49.667 71.000 L 48.500 71.000 48.500 69.833 L 48.500 68.667 47.333 68.667 L 46.167 68.667 46.167 67.583 L 46.167 66.500 42.500 66.500 L 38.833 66.500 38.833 67.583 L 38.833 68.667 35.417 68.667 L 32.000 68.667 32.000 69.833 L 32.000 71.000 30.833 71.000 L 29.667 71.000 29.667 76.750 L 29.667 82.500 28.583 82.500 L 27.500 82.500 27.500 83.667 L 27.500 84.833 26.333 84.833 L 25.167 84.833 25.167 86.000 L 25.167 87.167 17.083 87.167 L 9.000 87.167 9.000 88.250 L 9.000 89.333 7.833 89.333 L 6.667 89.333 6.667 91.667 L 6.667 94.000 5.583 94.000 L 4.500 94.000 4.500 96.250 L 4.500 98.500 3.333 98.500 L 2.167 98.500 2.167 101.000 L 2.167 103.500 3.333 103.500 L 4.500 103.500 4.500 104.667 L 4.500 105.833 197.750 105.833 L 391.000 105.833 391.000 104.667 L 391.000 103.500 392.167 103.500 L 393.333 103.500 393.333 87.250 L 393.333 71.000 392.167 71.000 L 391.000 71.000 391.000 69.833 L 391.000 68.667 389.667 68.667 L 388.333 68.667 388.333 69.833 L 388.333 71.000 380.500 71.000 L 372.667 71.000 372.667 69.833 L 372.667 68.667 370.333 68.667 L 368.000 68.667 368.000 67.583 L 368.000 66.500 364.583 66.500 L 361.167 66.500 361.167 65.333 L 361.167 64.167 358.833 64.167 L 356.500 64.167 356.500 63.000 L 356.500 61.833 354.167 61.833 L 351.833 61.833 351.833 60.667 L 351.833 59.500 348.417 59.500 L 345.000 59.500 345.000 58.333 L 345.000 57.167 335.667 57.167 L 326.333 57.167 326.333 58.333 L 326.333 59.500 325.167 59.500 L 324.000 59.500 324.000 60.667 L 324.000 61.833 322.833 61.833 L 321.667 61.833 321.667 63.000 L 321.667 64.167 320.500 64.167 L 319.333 64.167 319.333 65.333 L 319.333 66.500 317.083 66.500 L 314.833 66.500 314.833 67.583 L 314.833 68.667 313.667 68.667 L 312.500 68.667 312.500 69.833 L 312.500 71.000 311.333 71.000 L 310.167 71.000 310.167 72.167 L 310.167 73.333 303.250 73.333 L 296.333 73.333 296.333 74.500 L 296.333 75.667 294.083 75.667 L 291.833 75.667 291.833 76.750 L 291.833 77.833 281.667 77.833 L 271.500 77.833 271.500 76.750 L 271.500 75.667 264.417 75.667 L 257.333 75.667 257.333 76.750 L 257.333 77.833 251.583 77.833 L 245.833 77.833 245.833 79.000 L 245.833 80.167 237.917 80.167 L 230.000 80.167 230.000 79.000 L 230.000 77.833 228.917 77.833 L 227.833 77.833 227.833 76.750 L 227.833 75.667 225.500 75.667 L 223.167 75.667 223.167 74.500 L 223.167 73.333 219.750 73.333 L 216.333 73.333 216.333 72.167 L 216.333 71.000 212.833 71.000 L 209.333 71.000 209.333 69.833 L 209.333 68.667 202.500 68.667 L 195.667 68.667 195.667 67.583 L 195.667 66.500 193.333 66.500 L 191.000 66.500 191.000 65.333 L 191.000 64.167 187.583 64.167 L 184.167 64.167 184.167 63.000 L 184.167 61.833 176.083 61.833 L 168.000 61.833 168.000 60.667 L 168.000 59.500 161.083 59.500 L 154.167 59.500 154.167 58.333 L 154.167 57.167 151.917 57.167 L 149.667 57.167 149.667 56.083 L 149.667 55.000 146.167 55.000 L 142.667 55.000 142.667 53.833 L 142.667 52.667 139.250 52.667 L 135.833 52.667 135.833 51.500 L 135.833 50.333 128.750 50.333 L 121.667 50.333 121.667 51.500 M135.799 53.875 L 135.849 55.000 139.258 55.000 L 142.667 55.000 142.667 56.167 L 142.667 57.333 146.076 57.333 L 149.485 57.333 149.534 58.458 L 149.583 59.583 151.875 59.630 L 154.167 59.676 154.167 60.753 L 154.167 61.830 161.042 61.873 L 167.917 61.917 167.966 63.042 L 168.015 64.167 176.008 64.167 L 184.000 64.167 184.000 65.333 L 184.000 66.500 187.500 66.500 L 191.000 66.500 191.000 67.667 L 191.000 68.833 193.250 68.833 L 195.500 68.833 195.500 69.915 L 195.500 70.996 202.375 71.040 L 209.250 71.083 209.299 72.208 L 209.349 73.333 212.758 73.333 L 216.167 73.333 216.167 74.500 L 216.167 75.667 219.667 75.667 L 223.167 75.667 223.167 76.833 L 223.167 78.000 225.409 78.000 L 227.651 78.000 227.701 79.125 L 227.750 80.250 228.875 80.299 L 230.000 80.349 230.000 81.424 L 230.000 82.500 237.917 82.500 L 245.833 82.500 245.833 81.417 L 245.833 80.333 251.583 80.333 L 257.333 80.333 257.333 79.167 L 257.333 78.000 264.326 78.000 L 271.318 78.000 271.367 79.125 L 271.417 80.250 281.625 80.293 L 291.833 80.336 291.833 79.173 L 291.833 78.009 294.125 77.963 L 296.417 77.917 296.466 76.792 L 296.515 75.667 303.333 75.667 L 310.151 75.667 310.201 74.542 L 310.250 73.417 311.368 73.368 L 312.485 73.318 312.534 72.201 L 312.583 71.083 313.708 71.034 L 314.833 70.985 314.833 69.914 L 314.833 68.843 317.125 68.796 L 319.417 68.750 319.466 67.625 L 319.515 66.500 320.591 66.500 L 321.667 66.500 321.667 65.333 L 321.667 64.167 322.826 64.167 L 323.985 64.167 324.034 63.042 L 324.083 61.917 325.208 61.867 L 326.333 61.818 326.333 60.742 L 326.333 59.667 335.667 59.667 L 345.000 59.667 345.000 60.750 L 345.000 61.833 348.417 61.833 L 351.833 61.833 351.833 63.000 L 351.833 64.167 354.167 64.167 L 356.500 64.167 356.500 65.333 L 356.500 66.500 358.742 66.500 L 360.985 66.500 361.034 67.625 L 361.083 68.750 364.542 68.795 L 368.000 68.840 368.000 69.915 L 368.000 70.990 370.208 71.037 L 372.417 71.083 372.466 72.208 L 372.515 73.333 380.424 73.333 L 388.333 73.333 388.333 72.268 C 388.333 71.450,388.395 71.179,388.597 71.101 C 388.977 70.955,390.546 70.981,390.793 71.138 C 390.958 71.243,390.993 74.595,390.959 87.344 L 390.917 103.417 197.708 103.458 L 4.500 103.500 4.500 101.083 L 4.500 98.667 5.667 98.667 L 6.833 98.667 6.833 96.333 L 6.833 94.000 7.917 94.000 L 9.000 94.000 9.000 91.750 L 9.000 89.500 17.083 89.500 L 25.167 89.500 25.167 88.333 L 25.167 87.167 26.333 87.167 L 27.500 87.167 27.500 86.000 L 27.500 84.833 28.667 84.833 L 29.833 84.833 29.833 83.667 L 29.833 82.500 30.914 82.500 L 31.996 82.500 32.039 76.792 L 32.083 71.083 35.542 71.038 L 39.000 70.993 39.000 69.913 L 39.000 68.833 42.583 68.833 L 46.167 68.833 46.167 69.909 L 46.167 70.985 47.292 71.034 L 48.417 71.083 48.466 72.208 L 48.515 73.333 49.591 73.333 L 50.667 73.333 50.667 74.500 L 50.667 75.667 53.000 75.667 L 55.333 75.667 55.333 76.833 L 55.333 78.000 57.576 78.000 L 59.818 78.000 59.867 79.125 L 59.917 80.250 66.667 80.250 L 73.417 80.250 73.466 79.125 L 73.515 78.000 75.758 78.000 L 78.000 78.000 78.000 76.833 L 78.000 75.667 79.167 75.667 L 80.333 75.667 80.333 74.500 L 80.333 73.333 81.492 73.333 L 82.651 73.333 82.701 72.208 L 82.750 71.083 88.458 71.039 L 94.167 70.996 94.167 69.922 L 94.167 68.849 95.292 68.799 L 96.417 68.750 96.466 67.625 L 96.515 66.500 99.924 66.500 L 103.333 66.500 103.333 65.333 L 103.333 64.167 105.667 64.167 L 108.000 64.167 108.000 63.000 L 108.000 61.833 110.250 61.833 L 112.500 61.833 112.500 59.587 L 112.500 57.340 115.958 57.295 L 119.417 57.250 119.466 56.125 L 119.515 55.000 120.591 55.000 L 121.667 55.000 121.667 53.944 C 121.667 52.545,121.019 52.658,128.821 52.707 L 135.750 52.750 135.799 53.875 " stroke="none" fill="#040404" fill-rule="evenodd"></path><path id="path2" d="M121.946 52.943 C 121.884 53.005,121.833 53.527,121.833 54.103 L 121.833 55.151 120.708 55.210 L 119.583 55.268 120.792 55.301 L 122.000 55.333 122.000 54.167 L 122.000 53.000 128.750 53.000 L 135.500 53.000 135.500 54.167 L 135.500 55.333 138.917 55.333 L 142.333 55.333 142.333 56.500 L 142.333 57.667 145.875 57.630 L 149.417 57.594 146.000 57.505 L 142.583 57.417 142.534 56.292 L 142.485 55.167 139.083 55.167 L 135.682 55.167 135.633 54.042 L 135.583 52.917 128.821 52.873 C 125.102 52.849,122.008 52.880,121.946 52.943 M116.125 57.458 L 112.667 57.507 112.667 59.753 L 112.667 62.000 110.424 62.000 L 108.182 62.000 108.133 63.125 L 108.083 64.250 105.799 64.296 L 103.515 64.343 103.466 65.463 L 103.417 66.583 100.055 66.628 L 96.694 66.673 96.639 67.837 L 96.583 69.001 97.792 69.000 L 99.000 69.000 99.000 67.917 L 99.000 66.833 102.500 66.833 L 106.000 66.833 106.000 65.667 L 106.000 64.500 108.250 64.500 L 110.500 64.500 110.500 63.333 L 110.500 62.167 111.667 62.167 L 112.833 62.167 112.833 59.917 L 112.833 57.667 116.250 57.667 C 118.417 57.667,119.667 57.606,119.667 57.500 C 119.667 57.408,119.648 57.350,119.625 57.371 C 119.602 57.392,118.027 57.431,116.125 57.458 M153.866 60.958 L 153.833 62.167 159.583 62.167 L 165.333 62.167 165.333 63.333 L 165.333 64.500 174.500 64.500 L 183.667 64.500 183.667 65.667 L 183.667 66.833 187.167 66.833 L 190.667 66.833 190.667 67.917 C 190.667 68.512,190.723 69.000,190.792 69.000 C 190.860 69.000,190.879 68.494,190.833 67.875 L 190.750 66.750 187.333 66.667 L 183.917 66.583 183.867 65.458 L 183.818 64.333 175.833 64.333 L 167.849 64.333 167.799 63.208 L 167.750 62.083 160.883 62.040 L 154.015 61.996 153.957 60.873 L 153.899 59.750 153.866 60.958 M326.500 60.909 L 326.500 61.985 325.375 62.034 L 324.250 62.083 324.201 63.201 L 324.152 64.318 323.034 64.368 L 321.917 64.417 321.868 65.534 L 321.818 66.652 320.701 66.710 L 319.583 66.768 320.792 66.801 L 322.000 66.833 322.000 65.667 L 322.000 64.500 324.333 64.500 L 326.667 64.500 326.667 62.167 C 326.667 60.883,326.629 59.833,326.583 59.833 C 326.537 59.833,326.500 60.317,326.500 60.909 M344.699 60.958 L 344.667 62.167 348.083 62.167 L 351.500 62.167 351.500 63.333 L 351.500 64.500 353.833 64.500 L 356.167 64.500 356.167 65.667 L 356.167 66.833 358.542 66.797 L 360.917 66.760 358.625 66.709 L 356.333 66.657 356.333 65.500 L 356.333 64.343 354.042 64.296 L 351.750 64.250 351.667 63.167 L 351.583 62.083 348.216 62.038 L 344.848 61.993 344.790 60.872 L 344.732 59.750 344.699 60.958 M366.625 68.955 L 367.667 69.015 367.667 70.174 C 367.667 70.812,367.723 71.333,367.792 71.334 C 367.860 71.334,367.879 70.790,367.833 70.125 L 367.750 68.917 366.667 68.905 L 365.583 68.894 366.625 68.955 M39.167 70.069 C 39.167 70.769,39.095 71.168,38.958 71.223 C 38.834 71.273,38.867 71.312,39.042 71.320 C 39.293 71.332,39.333 71.172,39.333 70.167 C 39.333 69.525,39.296 69.000,39.250 69.000 C 39.204 69.000,39.167 69.481,39.167 70.069 M45.856 70.125 C 45.844 70.790,45.890 71.333,45.958 71.333 C 46.027 71.333,46.062 70.940,46.035 70.458 C 45.955 68.991,45.880 68.853,45.856 70.125 M94.305 70.167 C 94.275 70.809,94.306 71.334,94.375 71.334 C 94.444 71.334,94.500 70.808,94.500 70.167 C 94.500 68.660,94.377 68.660,94.305 70.167 M195.199 70.125 C 195.171 71.178,195.204 71.333,195.458 71.331 C 195.656 71.329,195.685 71.287,195.551 71.201 C 195.441 71.132,195.324 70.589,195.291 69.996 L 195.231 68.917 195.199 70.125 M314.972 70.167 C 314.942 70.809,314.973 71.334,315.042 71.334 C 315.110 71.334,315.167 70.808,315.167 70.167 C 315.167 68.660,315.043 68.660,314.972 70.167 M82.833 72.417 L 82.833 73.500 81.667 73.500 L 80.500 73.500 80.500 74.659 L 80.500 75.818 79.375 75.867 L 78.250 75.917 78.201 77.042 L 78.151 78.167 75.923 78.167 L 73.694 78.167 73.639 79.334 C 73.608 79.976,73.640 80.501,73.708 80.500 C 73.777 80.500,73.833 80.012,73.833 79.417 L 73.833 78.333 76.083 78.333 L 78.333 78.333 78.333 77.167 L 78.333 76.000 79.500 76.000 L 80.667 76.000 80.667 74.833 L 80.667 73.667 81.833 73.667 L 83.000 73.667 83.000 72.500 C 83.000 71.858,82.962 71.333,82.917 71.333 C 82.871 71.333,82.833 71.821,82.833 72.417 M206.667 72.500 L 206.667 73.667 211.375 73.629 C 215.714 73.593,215.812 73.587,212.625 73.542 L 209.167 73.493 209.167 72.413 L 209.167 71.333 207.917 71.333 L 206.667 71.333 206.667 72.500 M312.667 72.409 L 312.667 73.485 311.542 73.543 L 310.417 73.601 311.625 73.634 L 312.833 73.667 312.833 72.500 C 312.833 71.858,312.796 71.333,312.750 71.333 C 312.704 71.333,312.667 71.817,312.667 72.409 M372.195 72.458 L 372.167 73.667 381.417 73.667 L 390.667 73.667 390.667 88.417 L 390.667 103.167 197.750 103.167 L 4.833 103.167 4.833 101.083 L 4.833 99.000 6.000 99.000 L 7.167 99.000 7.167 97.833 L 7.167 96.667 8.250 96.667 L 9.333 96.667 9.334 95.375 L 9.334 94.083 8.172 94.138 L 7.009 94.194 6.963 96.472 L 6.917 98.750 5.792 98.799 L 4.667 98.849 4.667 101.091 L 4.667 103.333 197.708 103.292 L 390.750 103.250 390.793 87.292 L 390.835 71.333 389.668 71.333 L 388.500 71.333 388.500 72.418 L 388.500 73.503 380.458 73.460 L 372.417 73.417 372.320 72.333 L 372.224 71.250 372.195 72.458 M48.166 73.542 C 48.166 73.610,48.654 73.667,49.250 73.667 L 50.333 73.667 50.333 74.833 L 50.333 76.000 52.667 76.000 L 55.000 76.000 55.000 77.167 L 55.000 78.333 57.375 78.299 L 59.750 78.265 57.500 78.174 L 55.250 78.083 55.201 76.963 L 55.152 75.843 52.867 75.796 L 50.583 75.750 50.534 74.638 L 50.485 73.527 49.326 73.472 C 48.688 73.441,48.166 73.473,48.166 73.542 M216.000 75.875 C 216.000 75.944,217.537 76.000,219.417 76.000 L 222.833 76.000 222.833 77.167 L 222.833 78.333 224.000 78.333 L 225.167 78.333 225.167 79.417 L 225.167 80.500 226.375 80.500 L 227.583 80.501 227.528 79.338 L 227.473 78.176 225.278 78.130 L 223.083 78.083 223.034 76.965 L 222.985 75.846 219.492 75.798 C 217.571 75.772,216.000 75.806,216.000 75.875 M303.549 75.792 L 296.682 75.837 296.633 76.960 L 296.583 78.083 294.305 78.130 L 292.027 78.176 291.972 79.338 L 291.917 80.501 293.208 80.500 L 294.500 80.500 294.500 79.417 L 294.500 78.333 296.750 78.333 L 299.000 78.333 299.000 77.167 L 299.000 76.000 304.750 76.000 C 308.472 76.000,310.500 75.941,310.500 75.833 C 310.500 75.742,310.481 75.685,310.458 75.706 C 310.435 75.728,307.326 75.767,303.549 75.792 M257.472 79.334 C 257.442 79.976,257.473 80.501,257.542 80.500 C 257.610 80.500,257.667 80.012,257.667 79.417 L 257.667 78.333 260.917 78.333 L 264.167 78.333 264.167 79.417 L 264.167 80.500 265.500 80.500 L 266.833 80.500 266.833 79.417 L 266.833 78.333 267.833 78.333 L 268.833 78.333 268.833 79.417 L 268.833 80.500 270.042 80.500 L 271.250 80.501 271.195 79.334 L 271.139 78.167 264.333 78.167 L 257.527 78.167 257.472 79.334 M229.699 81.625 L 229.667 82.833 237.917 82.833 L 246.167 82.833 246.134 81.625 L 246.101 80.417 246.043 81.542 L 245.985 82.667 237.917 82.667 L 229.849 82.667 229.790 81.542 L 229.732 80.417 229.699 81.625 M31.083 82.667 L 29.917 82.774 31.125 82.804 C 31.839 82.821,32.333 82.765,32.333 82.667 C 32.333 82.575,32.315 82.513,32.292 82.529 C 32.269 82.546,31.725 82.607,31.083 82.667 M28.799 84.957 L 27.682 85.015 27.632 86.132 L 27.583 87.250 26.472 87.299 L 25.360 87.348 25.305 88.508 C 25.275 89.146,25.306 89.667,25.375 89.667 C 25.444 89.667,25.500 89.179,25.500 88.583 L 25.500 87.500 26.667 87.500 L 27.833 87.500 27.833 86.333 L 27.833 85.167 28.917 85.167 C 29.528 85.167,30.000 85.094,30.000 85.000 C 30.000 84.908,29.981 84.848,29.958 84.866 C 29.935 84.884,29.414 84.925,28.799 84.957 " stroke="none" fill="#3cbc04" fill-rule="evenodd"></path><path id="path3" d="M365.534 70.042 L 365.583 71.083 366.625 71.133 L 367.667 71.183 367.667 70.091 L 367.667 69.000 366.575 69.000 L 365.484 69.000 365.534 70.042 " stroke="none" fill="#04fc04" fill-rule="evenodd"></path><path id="path4" d="M121.780 52.776 C 121.717 52.838,121.667 53.364,121.667 53.944 L 121.667 55.000 120.591 55.000 L 119.515 55.000 119.466 56.125 L 119.417 57.250 115.958 57.295 L 112.500 57.340 112.500 59.587 L 112.500 61.833 110.250 61.833 L 108.000 61.833 108.000 63.000 L 108.000 64.167 105.667 64.167 L 103.333 64.167 103.333 65.333 L 103.333 66.500 99.924 66.500 L 96.515 66.500 96.466 67.625 L 96.417 68.750 95.292 68.799 L 94.167 68.849 94.167 69.922 L 94.167 70.996 88.458 71.039 L 82.750 71.083 82.701 72.208 L 82.651 73.333 81.492 73.333 L 80.333 73.333 80.333 74.500 L 80.333 75.667 79.167 75.667 L 78.000 75.667 78.000 76.833 L 78.000 78.000 75.758 78.000 L 73.515 78.000 73.466 79.125 L 73.417 80.250 66.667 80.250 L 59.917 80.250 59.867 79.125 L 59.818 78.000 57.576 78.000 L 55.333 78.000 55.333 76.833 L 55.333 75.667 53.000 75.667 L 50.667 75.667 50.667 74.500 L 50.667 73.333 49.591 73.333 L 48.515 73.333 48.466 72.208 L 48.417 71.083 47.292 71.034 L 46.167 70.985 46.167 69.909 L 46.167 68.833 42.583 68.833 L 39.000 68.833 39.000 69.913 L 39.000 70.993 35.542 71.038 L 32.083 71.083 32.039 76.792 L 31.996 82.500 30.914 82.500 L 29.833 82.500 29.833 83.667 L 29.833 84.833 28.667 84.833 L 27.500 84.833 27.500 86.000 L 27.500 87.167 26.333 87.167 L 25.167 87.167 25.167 88.333 L 25.167 89.500 17.083 89.500 L 9.000 89.500 9.000 91.750 L 9.000 94.000 7.917 94.000 L 6.833 94.000 6.833 96.333 L 6.833 98.667 5.667 98.667 L 4.500 98.667 4.500 101.083 L 4.500 103.500 197.708 103.458 L 390.917 103.417 390.959 87.344 C 390.993 74.595,390.958 71.243,390.793 71.138 C 390.546 70.981,388.977 70.955,388.597 71.101 C 388.395 71.179,388.333 71.450,388.333 72.268 L 388.333 73.333 380.424 73.333 L 372.515 73.333 372.466 72.208 L 372.417 71.083 370.208 71.037 L 368.000 70.990 368.000 69.912 C 368.000 69.319,367.944 68.833,367.875 68.833 C 367.806 68.833,367.787 69.377,367.833 70.041 L 367.917 71.250 370.117 71.296 L 372.318 71.343 372.367 72.380 L 372.417 73.417 380.458 73.460 L 388.500 73.503 388.500 72.418 L 388.500 71.333 389.668 71.333 L 390.835 71.333 390.793 87.292 L 390.750 103.250 197.708 103.292 L 4.667 103.333 4.667 101.091 L 4.667 98.849 5.792 98.799 L 6.917 98.750 6.963 96.466 L 7.009 94.182 8.130 94.133 L 9.250 94.083 9.296 91.877 L 9.343 89.670 17.296 89.627 L 25.250 89.583 25.299 88.466 L 25.348 87.348 26.466 87.299 L 27.583 87.250 27.632 86.132 L 27.682 85.015 28.799 84.966 L 29.917 84.917 29.966 83.799 L 30.015 82.682 31.132 82.632 L 32.250 82.583 32.294 76.958 L 32.338 71.333 35.489 71.333 C 39.370 71.333,39.167 71.403,39.167 70.066 L 39.167 69.000 42.576 69.000 L 45.985 69.000 46.034 70.125 L 46.083 71.250 47.117 71.299 L 48.151 71.349 48.201 72.383 L 48.250 73.417 49.368 73.466 L 50.485 73.515 50.534 74.632 L 50.583 75.750 52.867 75.796 L 55.152 75.843 55.201 76.963 L 55.250 78.083 57.451 78.130 L 59.652 78.176 59.701 79.296 L 59.750 80.417 66.667 80.417 L 73.583 80.417 73.633 79.292 L 73.682 78.167 75.917 78.167 L 78.151 78.167 78.201 77.042 L 78.250 75.917 79.375 75.867 L 80.500 75.818 80.500 74.659 L 80.500 73.500 81.667 73.500 L 82.833 73.500 82.833 72.419 L 82.833 71.338 88.542 71.294 L 94.250 71.250 94.299 70.132 L 94.348 69.015 95.466 68.966 L 96.583 68.917 96.633 67.795 L 96.682 66.674 100.049 66.628 L 103.417 66.583 103.466 65.463 L 103.515 64.343 105.799 64.296 L 108.083 64.250 108.133 63.125 L 108.182 62.000 110.424 62.000 L 112.667 62.000 112.667 59.753 L 112.667 57.507 116.125 57.462 L 119.583 57.417 119.633 56.292 L 119.682 55.167 120.750 55.167 L 121.818 55.167 121.867 54.042 L 121.917 52.917 128.750 52.917 L 135.583 52.917 135.633 54.042 L 135.682 55.167 139.083 55.167 L 142.485 55.167 142.534 56.292 L 142.583 57.417 145.951 57.462 L 149.318 57.507 149.367 58.628 L 149.417 59.750 151.708 59.796 L 154.000 59.843 154.000 60.920 L 154.000 61.996 160.875 62.040 L 167.750 62.083 167.799 63.208 L 167.849 64.333 175.833 64.333 L 183.818 64.333 183.867 65.458 L 183.917 66.583 187.333 66.667 L 190.750 66.750 190.833 67.833 L 190.917 68.917 193.125 68.963 L 195.333 69.010 195.333 70.070 C 195.333 71.440,194.729 71.333,202.514 71.333 L 209.167 71.333 209.167 72.417 L 209.167 73.500 212.576 73.500 L 215.985 73.500 216.034 74.625 L 216.083 75.750 219.534 75.795 L 222.985 75.840 223.034 76.962 L 223.083 78.083 225.284 78.130 L 227.485 78.176 227.534 79.296 L 227.583 80.417 228.708 80.466 L 229.833 80.515 229.833 81.591 L 229.833 82.667 237.917 82.667 L 246.000 82.667 246.000 81.586 L 246.000 80.504 251.708 80.461 L 257.417 80.417 257.466 79.292 L 257.515 78.167 264.333 78.167 L 271.151 78.167 271.201 79.292 L 271.250 80.417 281.583 80.417 L 291.917 80.417 291.966 79.296 L 292.015 78.176 294.299 78.130 L 296.583 78.083 296.633 76.960 L 296.682 75.837 303.549 75.794 L 310.417 75.750 310.466 74.625 L 310.515 73.500 311.591 73.500 L 312.667 73.500 312.667 72.424 L 312.667 71.349 313.792 71.299 L 314.917 71.250 314.966 70.130 L 315.015 69.009 317.299 68.963 L 319.583 68.917 319.633 67.792 L 319.682 66.667 320.750 66.667 L 321.818 66.667 321.867 65.542 L 321.917 64.417 323.034 64.368 L 324.152 64.318 324.201 63.201 L 324.250 62.083 325.375 62.034 L 326.500 61.985 326.500 60.909 L 326.500 59.833 335.667 59.833 L 344.833 59.833 344.833 60.913 L 344.833 61.993 348.208 62.038 L 351.583 62.083 351.667 63.167 L 351.750 64.250 354.042 64.296 L 356.333 64.343 356.333 65.505 L 356.333 66.667 358.576 66.667 L 360.818 66.667 360.867 67.792 L 360.917 68.917 363.250 68.927 L 365.583 68.936 363.333 68.843 L 361.083 68.750 361.034 67.625 L 360.985 66.500 358.742 66.500 L 356.500 66.500 356.500 65.333 L 356.500 64.167 354.167 64.167 L 351.833 64.167 351.833 63.000 L 351.833 61.833 348.417 61.833 L 345.000 61.833 345.000 60.750 L 345.000 59.667 335.667 59.667 L 326.333 59.667 326.333 60.742 L 326.333 61.818 325.208 61.867 L 324.083 61.917 324.034 63.042 L 323.985 64.167 322.826 64.167 L 321.667 64.167 321.667 65.333 L 321.667 66.500 320.591 66.500 L 319.515 66.500 319.466 67.625 L 319.417 68.750 317.125 68.796 L 314.833 68.843 314.833 69.914 L 314.833 70.985 313.708 71.034 L 312.583 71.083 312.534 72.201 L 312.485 73.318 311.368 73.368 L 310.250 73.417 310.201 74.542 L 310.151 75.667 303.333 75.667 L 296.515 75.667 296.466 76.792 L 296.417 77.917 294.125 77.963 L 291.833 78.009 291.833 79.173 L 291.833 80.336 281.625 80.293 L 271.417 80.250 271.367 79.125 L 271.318 78.000 264.326 78.000 L 257.333 78.000 257.333 79.167 L 257.333 80.333 251.583 80.333 L 245.833 80.333 245.833 81.417 L 245.833 82.500 237.917 82.500 L 230.000 82.500 230.000 81.424 L 230.000 80.349 228.875 80.299 L 227.750 80.250 227.701 79.125 L 227.651 78.000 225.409 78.000 L 223.167 78.000 223.167 76.833 L 223.167 75.667 219.667 75.667 L 216.167 75.667 216.167 74.500 L 216.167 73.333 212.758 73.333 L 209.349 73.333 209.299 72.208 L 209.250 71.083 202.375 71.040 L 195.500 70.996 195.500 69.915 L 195.500 68.833 193.250 68.833 L 191.000 68.833 191.000 67.667 L 191.000 66.500 187.500 66.500 L 184.000 66.500 184.000 65.333 L 184.000 64.167 176.008 64.167 L 168.015 64.167 167.966 63.042 L 167.917 61.917 161.042 61.873 L 154.167 61.830 154.167 60.753 L 154.167 59.676 151.875 59.630 L 149.583 59.583 149.534 58.458 L 149.485 57.333 146.076 57.333 L 142.667 57.333 142.667 56.167 L 142.667 55.000 139.258 55.000 L 135.849 55.000 135.799 53.875 L 135.750 52.750 128.821 52.707 C 125.010 52.683,121.842 52.714,121.780 52.776 " stroke="none" fill="#243404" fill-rule="evenodd"></path></g></svg>