<svg id="svg" version="1.1" width="400" height="318.8405797101449" viewBox="0 0 400 318.8405797101449" xmlns="http://www.w3.org/2000/svg" xmlns:xlink="http://www.w3.org/1999/xlink" ><g id="svgg"><path id="path0" d="M313.238 55.183 L 313.238 58.054 304.466 58.054 L 295.694 58.054 295.694 60.925 L 295.694 63.796 284.211 63.796 L 272.727 63.796 272.727 78.309 L 272.727 92.823 275.598 92.823 L 278.469 92.823 278.469 98.565 L 278.469 104.306 281.340 104.306 L 284.211 104.306 284.211 107.144 L 284.211 109.981 294.258 110.094 C 299.785 110.156,308.822 110.156,314.342 110.094 L 324.378 109.981 324.470 107.224 L 324.561 104.466 330.370 104.379 L 336.180 104.292 336.272 101.508 L 336.364 98.724 346.252 98.527 C 351.691 98.419,356.822 98.311,357.656 98.288 L 359.171 98.246 359.171 95.706 L 359.171 93.167 356.380 93.075 L 353.589 92.982 353.506 78.389 L 353.423 63.796 350.555 63.796 L 347.687 63.796 347.687 60.925 L 347.687 58.054 344.817 58.054 L 341.946 58.054 341.946 55.183 L 341.946 52.313 327.592 52.313 L 313.238 52.313 313.238 55.183 M332.137 69.747 L 336.204 69.955 336.204 72.605 L 336.204 75.254 333.413 75.346 L 330.622 75.439 330.530 78.389 L 330.439 81.340 328.776 81.338 C 327.861 81.338,325.283 81.244,323.046 81.130 L 318.979 80.922 318.979 78.101 L 318.979 75.279 321.691 75.279 L 324.402 75.279 324.402 72.408 L 324.402 69.537 326.236 69.539 C 327.245 69.539,329.900 69.633,332.137 69.747 M307.177 72.568 L 307.177 75.279 304.466 75.279 L 301.754 75.279 301.754 72.568 L 301.754 69.856 304.466 69.856 L 307.177 69.856 307.177 72.568 M382.775 101.595 L 382.775 104.306 385.486 104.306 L 388.198 104.306 388.198 101.595 L 388.198 98.884 385.486 98.884 L 382.775 98.884 382.775 101.595 M208.612 136.364 L 208.612 139.075 223.126 139.075 L 237.640 139.075 237.640 136.364 L 237.640 133.652 223.126 133.652 L 208.612 133.652 208.612 136.364 M185.646 142.105 L 185.646 144.817 191.388 144.817 L 197.129 144.817 197.129 142.105 L 197.129 139.394 191.388 139.394 L 185.646 139.394 185.646 142.105 M243.700 142.105 L 243.700 144.817 249.282 144.817 L 254.864 144.817 254.864 142.105 L 254.864 139.394 249.282 139.394 L 243.700 139.394 243.700 142.105 M174.163 147.847 L 174.163 150.558 179.745 150.558 L 185.327 150.558 185.327 147.847 L 185.327 145.136 179.745 145.136 L 174.163 145.136 174.163 147.847 M255.183 147.834 L 255.183 150.533 257.974 150.626 L 260.766 150.718 260.925 153.589 L 261.085 156.459 263.876 156.551 L 266.667 156.644 266.667 162.361 L 266.667 168.078 269.617 168.170 L 272.568 168.262 272.568 176.874 L 272.568 185.486 269.697 185.646 L 266.826 185.805 266.667 191.547 L 266.507 197.289 263.716 197.381 L 260.925 197.473 260.925 203.202 L 260.925 208.931 258.054 208.931 L 255.183 208.931 255.183 211.802 L 255.183 214.673 249.442 214.673 L 243.700 214.673 243.700 217.544 L 243.700 220.415 249.442 220.415 L 255.183 220.415 255.183 223.126 L 255.183 225.837 257.882 225.837 L 260.581 225.837 260.673 223.046 L 260.766 220.255 263.704 220.164 L 266.642 220.072 266.734 217.293 L 266.826 214.514 272.476 214.427 L 278.125 214.339 278.217 211.556 L 278.309 208.772 283.959 208.685 L 289.609 208.598 289.701 205.814 L 289.793 203.030 292.743 202.939 L 295.694 202.847 295.694 199.988 L 295.694 197.129 301.435 197.129 L 307.177 197.129 307.177 194.258 L 307.177 191.388 310.041 191.388 L 312.904 191.388 312.991 185.566 L 313.078 179.745 315.831 179.653 L 318.584 179.562 318.816 173.991 L 319.048 168.421 321.706 168.421 C 325.016 168.421,324.833 168.823,324.556 162.178 L 324.324 156.619 319.977 156.620 C 317.586 156.621,313.800 156.715,311.563 156.829 L 307.496 157.036 307.496 159.664 C 307.496 162.935,307.839 162.784,301.048 162.498 L 295.717 162.273 295.626 159.526 L 295.534 156.778 283.971 156.695 L 272.408 156.611 272.408 153.744 L 272.408 150.877 269.537 150.877 L 266.667 150.877 266.667 148.006 L 266.667 145.136 260.925 145.136 L 255.183 145.136 255.183 147.834 M162.428 153.668 L 162.520 156.459 165.231 156.459 L 167.943 156.459 168.035 153.668 L 168.127 150.877 165.231 150.877 L 162.336 150.877 162.428 153.668 M150.877 159.490 L 150.877 162.385 153.668 162.293 L 156.459 162.201 156.459 159.490 L 156.459 156.778 153.668 156.686 L 150.877 156.594 150.877 159.490 M139.394 165.391 L 139.394 168.102 144.976 168.102 L 150.558 168.102 150.558 165.391 L 150.558 162.679 144.976 162.679 L 139.394 162.679 139.394 165.391 M133.333 171.132 L 133.333 173.844 136.204 173.844 L 139.075 173.844 139.075 171.132 L 139.075 168.421 136.204 168.421 L 133.333 168.421 133.333 171.132 M121.850 176.874 L 121.850 179.585 124.721 179.585 L 127.592 179.585 127.592 176.874 L 127.592 174.163 124.721 174.163 L 121.850 174.163 121.850 176.874 M110.367 182.775 L 110.367 185.646 113.078 185.646 L 115.789 185.646 115.789 182.775 L 115.789 179.904 113.078 179.904 L 110.367 179.904 110.367 182.775 M98.777 185.859 C 98.418 186.218,98.537 191.014,98.910 191.245 C 99.101 191.362,101.684 191.354,104.652 191.227 L 110.048 190.996 110.048 188.321 L 110.048 185.646 104.519 185.646 C 101.478 185.646,98.894 185.742,98.777 185.859 M87.081 194.217 L 87.081 197.144 92.743 197.057 L 98.405 196.970 98.498 194.338 L 98.590 191.707 96.903 191.705 C 95.975 191.705,93.385 191.611,91.148 191.497 L 87.081 191.289 87.081 194.217 M75.279 200.159 L 75.279 202.871 78.150 202.871 L 81.021 202.871 81.021 200.159 L 81.021 197.448 78.150 197.448 L 75.279 197.448 75.279 200.159 M52.313 205.901 L 52.313 208.612 58.054 208.612 L 63.796 208.612 63.796 205.901 L 63.796 203.190 58.054 203.190 L 52.313 203.190 52.313 205.901 M29.027 211.643 L 29.027 214.354 31.898 214.354 L 34.769 214.354 34.769 211.643 L 34.769 208.931 31.898 208.931 L 29.027 208.931 29.027 211.643 M237.959 223.285 L 237.959 226.156 240.670 226.156 L 243.381 226.156 243.381 223.285 L 243.381 220.415 240.670 220.415 L 237.959 220.415 237.959 223.285 M69.856 223.285 L 69.856 225.837 72.568 225.837 L 75.279 225.837 75.279 223.285 L 75.279 220.734 72.568 220.734 L 69.856 220.734 69.856 223.285 M220.415 229.187 L 220.415 231.898 223.126 231.898 L 225.837 231.898 225.837 229.187 L 225.837 226.475 223.126 226.475 L 220.415 226.475 220.415 229.187 M156.619 235.088 L 156.619 237.959 153.748 237.959 L 150.877 237.959 150.877 240.670 L 150.877 243.381 153.736 243.381 L 156.595 243.381 156.687 246.332 L 156.778 249.282 159.649 249.244 C 161.228 249.222,165.140 249.274,168.341 249.358 L 174.163 249.511 174.163 252.347 L 174.163 255.183 177.033 255.183 L 179.904 255.183 179.904 258.054 L 179.904 260.925 182.603 260.925 L 185.302 260.925 185.394 258.134 L 185.486 255.343 188.357 255.183 L 191.228 255.024 191.320 252.245 L 191.412 249.466 194.191 249.374 L 196.970 249.282 197.061 246.332 L 197.153 243.381 200.012 243.381 L 202.871 243.381 202.871 240.510 L 202.871 237.640 205.742 237.640 L 208.612 237.640 208.612 234.928 L 208.612 232.217 182.616 232.217 L 156.619 232.217 156.619 235.088 M162.360 240.670 L 162.360 243.381 159.490 243.381 L 156.619 243.381 156.619 240.670 L 156.619 237.959 159.490 237.959 L 162.360 237.959 162.360 240.670 M104.625 258.214 L 104.625 260.925 107.337 260.925 L 110.048 260.925 110.048 258.214 L 110.048 255.502 107.337 255.502 L 104.625 255.502 104.625 258.214 M116.108 263.955 L 116.108 266.667 118.979 266.667 L 121.850 266.667 121.850 263.955 L 121.850 261.244 118.979 261.244 L 116.108 261.244 116.108 263.955 M127.592 269.697 L 127.592 272.408 136.204 272.408 L 144.817 272.408 144.817 269.697 L 144.817 266.986 136.204 266.986 L 127.592 266.986 127.592 269.697 M156.619 269.697 L 156.619 272.408 159.490 272.408 L 162.360 272.408 162.360 269.697 L 162.360 266.986 159.490 266.986 L 156.619 266.986 156.619 269.697 M150.877 281.180 L 150.877 283.892 153.589 283.892 L 156.300 283.892 156.300 281.180 L 156.300 278.469 153.589 278.469 L 150.877 278.469 150.877 281.180 " stroke="none" fill="#eeeae8" fill-rule="evenodd"></path><path id="path1" d="M301.116 31.579 L 301.116 34.450 295.375 34.450 L 289.633 34.450 289.633 37.480 L 289.633 40.510 283.892 40.510 L 278.150 40.510 278.150 43.381 L 278.150 46.252 275.120 46.252 L 272.089 46.252 272.089 49.123 L 272.089 51.994 269.219 51.994 L 266.348 51.994 266.348 57.735 L 266.348 63.477 263.477 63.477 L 260.606 63.477 260.606 69.378 L 260.606 75.279 257.735 75.279 L 254.864 75.279 254.864 81.021 L 254.864 86.762 249.123 86.762 L 243.381 86.762 243.381 89.633 L 243.381 92.504 220.096 92.504 L 196.810 92.504 196.810 95.375 L 196.810 98.246 185.167 98.246 L 173.525 98.246 173.525 101.276 L 173.525 104.306 167.783 104.306 L 162.041 104.306 162.041 107.177 L 162.041 110.048 156.300 110.048 L 150.558 110.048 150.558 112.919 L 150.558 115.789 144.657 115.789 L 138.756 115.789 138.756 118.660 L 138.756 121.531 133.014 121.531 L 127.273 121.531 127.273 124.402 L 127.273 127.273 124.402 127.273 L 121.531 127.273 121.531 130.144 L 121.531 133.014 115.789 133.014 L 110.048 133.014 110.048 136.045 L 110.048 139.075 107.018 139.075 L 103.987 139.075 103.987 141.946 L 103.987 144.817 101.116 144.817 L 98.246 144.817 98.246 147.687 L 98.246 150.558 92.504 150.558 L 86.762 150.558 86.762 153.429 L 86.762 156.300 83.892 156.300 L 81.021 156.300 81.021 159.171 L 81.021 162.041 78.150 162.041 L 75.279 162.041 75.279 165.072 L 75.279 168.102 69.378 168.102 L 63.477 168.102 63.477 170.973 L 63.477 173.844 60.606 173.844 L 57.735 173.844 57.735 176.715 L 57.735 179.585 54.864 179.585 L 51.994 179.585 51.994 182.456 L 51.994 185.327 46.093 185.327 L 40.191 185.327 40.191 188.198 L 40.191 191.069 37.321 191.069 L 34.450 191.069 34.450 193.939 L 34.450 196.810 28.708 196.810 L 22.967 196.810 22.967 199.841 L 22.967 202.871 20.096 202.871 L 17.225 202.871 17.225 205.901 L 17.225 208.931 20.096 208.931 L 22.967 208.931 22.967 211.962 L 22.967 214.992 25.837 214.992 L 28.708 214.992 28.708 217.863 L 28.708 220.734 37.480 220.734 L 46.252 220.734 46.252 223.604 L 46.252 226.475 57.735 226.475 L 69.219 226.475 69.219 229.346 L 69.219 232.217 86.603 232.217 L 103.987 232.217 103.987 235.088 L 103.987 237.959 124.402 237.959 L 144.817 237.959 144.817 243.860 L 144.817 249.761 147.687 249.761 L 150.558 249.761 150.558 252.313 L 150.558 254.864 144.976 254.864 L 139.394 254.864 139.394 251.994 L 139.394 249.123 130.463 249.123 L 121.531 249.123 121.531 251.994 L 121.531 254.864 115.949 254.864 L 110.367 254.864 110.367 251.994 L 110.367 249.123 107.177 249.123 L 103.987 249.123 103.987 251.994 L 103.987 254.864 101.116 254.864 L 98.246 254.864 98.246 257.735 L 98.246 260.606 92.504 260.606 L 86.762 260.606 86.762 263.636 L 86.762 266.667 83.892 266.667 L 81.021 266.667 81.021 269.697 L 81.021 272.727 83.892 272.727 L 86.762 272.727 86.762 275.758 L 86.762 278.788 89.633 278.788 L 92.504 278.788 92.504 281.659 L 92.504 284.530 95.375 284.530 L 98.246 284.530 98.246 287.400 L 98.246 290.271 101.116 290.271 L 103.987 290.271 103.987 293.142 L 103.987 296.013 110.048 296.013 L 116.108 296.013 116.108 293.142 L 116.108 290.271 142.265 290.271 L 168.421 290.271 168.421 287.400 L 168.421 284.530 171.292 284.530 L 174.163 284.530 174.163 281.659 L 174.163 278.788 177.033 278.788 L 179.904 278.788 179.904 275.758 L 179.904 272.727 182.775 272.727 L 185.646 272.727 185.646 269.856 L 185.646 266.986 188.676 266.986 L 191.707 266.986 191.707 264.115 L 191.707 261.244 194.577 261.244 L 197.448 261.244 197.448 258.373 L 197.448 255.502 200.319 255.502 L 203.190 255.502 203.190 252.632 L 203.190 249.761 206.061 249.761 L 208.931 249.761 208.931 246.730 L 208.931 243.700 214.673 243.700 L 220.415 243.700 220.415 240.829 L 220.415 237.959 229.187 237.959 L 237.959 237.959 237.959 235.088 L 237.959 232.217 249.601 232.217 L 261.244 232.217 261.244 229.346 L 261.244 226.475 266.986 226.475 L 272.727 226.475 272.727 223.604 L 272.727 220.734 278.469 220.734 L 284.211 220.734 284.211 217.863 L 284.211 214.992 290.112 214.992 L 296.013 214.992 296.013 211.962 L 296.013 208.931 298.884 208.931 L 301.754 208.931 301.754 206.061 L 301.754 203.190 304.625 203.190 L 307.496 203.190 307.496 200.319 L 307.496 197.448 310.367 197.448 L 313.238 197.448 313.238 194.577 L 313.238 191.707 316.108 191.707 L 318.979 191.707 318.979 188.836 L 318.979 185.965 322.010 185.965 L 325.040 185.965 325.040 182.935 L 325.040 179.904 327.911 179.904 L 330.781 179.904 330.781 174.163 L 330.781 168.421 333.652 168.421 L 336.523 168.421 336.523 148.166 L 336.523 127.911 342.105 127.911 L 347.687 127.911 347.687 130.781 L 347.687 133.652 359.171 133.652 L 370.654 133.652 370.654 136.523 L 370.654 139.394 379.585 139.394 L 388.517 139.394 388.517 136.523 L 388.517 133.652 391.547 133.652 L 394.577 133.652 394.577 115.949 L 394.577 98.246 391.547 98.246 L 388.517 98.246 388.517 92.504 L 388.517 86.762 385.646 86.762 L 382.775 86.762 382.775 83.892 L 382.775 81.021 379.904 81.021 L 377.033 81.021 377.033 78.150 L 377.033 75.279 374.163 75.279 L 371.292 75.279 371.292 72.249 L 371.292 69.219 368.421 69.219 L 365.550 69.219 365.550 63.477 L 365.550 57.735 362.679 57.735 L 359.809 57.735 359.809 54.864 L 359.809 51.994 356.778 51.994 L 353.748 51.994 353.748 49.123 L 353.748 46.252 350.877 46.252 L 348.006 46.252 348.006 43.381 L 348.006 40.510 345.136 40.510 L 342.265 40.510 342.265 37.480 L 342.265 34.450 336.523 34.450 L 330.781 34.450 330.781 31.579 L 330.781 28.708 315.949 28.708 L 301.116 28.708 301.116 31.579 M330.395 37.719 L 330.487 40.510 327.604 40.510 L 324.721 40.510 324.721 37.852 C 324.721 34.606,324.602 34.725,327.736 34.837 L 330.303 34.928 330.395 37.719 M342.197 54.932 L 342.289 57.711 345.068 57.803 L 347.847 57.895 347.939 60.858 L 348.031 63.820 350.810 63.728 L 353.589 63.636 353.681 60.845 L 353.773 58.054 356.631 58.054 L 359.490 58.054 359.490 60.925 L 359.490 63.796 356.619 63.796 L 353.748 63.796 353.748 78.309 L 353.748 92.823 356.619 92.823 L 359.490 92.823 359.490 95.657 L 359.490 98.491 353.755 98.724 L 348.021 98.956 347.934 104.582 L 347.847 110.207 344.976 110.312 C 343.397 110.369,339.486 110.318,336.284 110.197 L 330.463 109.979 330.463 107.302 L 330.463 104.625 327.592 104.625 L 324.721 104.625 324.721 107.496 L 324.721 110.367 315.949 110.367 L 307.177 110.367 307.177 113.250 L 307.177 116.133 304.386 116.041 L 301.595 115.949 301.503 113.163 L 301.411 110.377 292.731 110.292 L 284.051 110.207 283.959 107.429 L 283.867 104.650 281.088 104.558 L 278.309 104.466 278.222 98.644 L 278.136 92.823 275.272 92.823 L 272.408 92.823 272.408 78.313 L 272.408 63.804 283.971 63.720 L 295.534 63.636 295.694 60.766 L 295.853 57.895 304.386 57.810 L 312.919 57.725 312.919 54.856 L 312.919 51.987 327.512 52.070 L 342.105 52.153 342.197 54.932 M324.721 75.439 L 324.721 81.021 327.592 81.021 L 330.463 81.021 330.463 75.439 L 330.463 69.856 327.592 69.856 L 324.721 69.856 324.721 75.439 M370.973 78.469 L 370.973 81.340 373.831 81.340 L 376.690 81.340 376.782 84.131 L 376.874 86.922 379.665 87.014 L 382.456 87.106 382.456 92.835 L 382.456 98.565 385.489 98.565 L 388.522 98.565 388.440 115.869 L 388.357 133.174 379.665 133.259 L 370.973 133.344 370.973 130.468 L 370.973 127.592 359.490 127.592 L 348.006 127.592 348.006 124.721 L 348.006 121.850 356.619 121.850 L 365.231 121.850 365.231 118.979 L 365.231 116.108 368.102 116.108 L 370.973 116.108 370.973 98.737 L 370.973 81.365 368.182 81.272 L 365.391 81.180 365.299 78.389 L 365.206 75.598 368.090 75.598 L 370.973 75.598 370.973 78.469 M179.745 107.337 L 179.745 110.207 176.874 110.207 L 174.003 110.207 173.909 107.684 C 173.777 104.145,173.667 104.265,176.949 104.373 L 179.745 104.466 179.745 107.337 M341.946 118.820 L 341.946 121.531 339.234 121.531 L 336.523 121.531 336.523 118.820 L 336.523 116.108 339.234 116.108 L 341.946 116.108 341.946 118.820 M237.799 136.364 L 237.799 139.234 226.156 139.334 C 219.753 139.389,211.894 139.337,208.692 139.220 L 202.871 139.006 202.871 136.382 C 202.871 134.939,202.968 133.662,203.086 133.543 C 203.205 133.425,211.063 133.365,220.550 133.410 L 237.799 133.493 237.799 136.364 M197.289 142.105 L 197.289 144.976 191.467 145.063 L 185.646 145.150 185.646 148.014 L 185.646 150.877 179.745 150.877 L 173.844 150.877 173.844 153.557 L 173.844 156.236 168.102 156.468 L 162.360 156.700 162.360 159.494 L 162.360 162.287 156.631 162.519 L 150.901 162.752 150.809 165.507 L 150.718 168.262 145.068 168.349 L 139.419 168.436 139.327 171.219 L 139.234 174.003 136.284 174.095 L 133.333 174.187 133.333 171.144 L 133.333 168.102 136.204 168.102 L 139.075 168.102 139.075 165.231 L 139.075 162.360 144.805 162.360 L 150.534 162.360 150.626 159.410 L 150.718 156.459 156.367 156.568 L 162.017 156.677 162.109 153.698 L 162.201 150.718 168.022 150.825 L 173.844 150.933 173.844 147.875 L 173.844 144.817 179.585 144.817 L 185.327 144.817 185.327 142.158 C 185.327 138.795,184.809 139.047,191.527 139.148 L 197.289 139.234 197.289 142.105 M255.183 141.946 L 255.183 144.817 260.925 144.817 L 266.667 144.817 266.667 147.651 L 266.667 150.485 272.408 150.718 L 278.150 150.951 278.150 153.625 L 278.150 156.300 281.260 156.379 C 282.970 156.422,286.882 156.482,289.952 156.512 C 293.022 156.542,296.862 156.661,298.485 156.775 L 301.435 156.983 301.435 159.512 L 301.435 162.041 304.306 162.041 L 307.177 162.041 307.177 159.381 L 307.177 156.721 315.667 156.515 C 325.649 156.272,324.721 155.965,324.721 159.508 L 324.721 162.360 327.592 162.360 L 330.463 162.360 330.463 165.231 L 330.463 168.102 327.604 168.102 L 324.745 168.102 324.653 171.053 L 324.561 174.003 321.770 174.095 L 318.979 174.188 318.979 177.046 L 318.979 179.904 316.108 179.904 L 313.238 179.904 313.238 185.634 L 313.238 191.364 310.287 191.455 L 307.337 191.547 307.245 194.300 L 307.153 197.053 301.595 197.284 L 296.037 197.516 295.945 200.273 L 295.853 203.030 292.903 203.122 L 289.952 203.214 289.952 206.073 L 289.952 208.931 284.223 208.931 L 278.494 208.931 278.402 211.722 L 278.309 214.514 272.568 214.673 L 266.826 214.833 266.734 217.624 L 266.642 220.415 263.783 220.415 L 260.925 220.415 260.925 223.297 L 260.925 226.180 257.974 226.089 L 255.024 225.997 254.932 223.206 L 254.840 220.415 252.153 220.415 L 249.467 220.415 249.374 223.206 L 249.282 225.997 243.449 226.084 L 237.615 226.171 237.707 223.213 L 237.799 220.255 240.578 220.163 L 243.357 220.071 243.449 217.292 L 243.541 214.514 249.190 214.427 L 254.840 214.339 254.932 211.556 L 255.024 208.772 257.808 208.680 L 260.591 208.588 260.678 202.938 L 260.766 197.289 263.716 197.197 L 266.667 197.105 266.667 191.388 L 266.667 185.671 269.458 185.579 L 272.249 185.486 272.334 176.954 L 272.419 168.421 269.550 168.421 L 266.681 168.421 266.594 162.600 L 266.507 156.778 263.636 156.619 L 260.766 156.459 260.673 153.668 L 260.581 150.877 257.723 150.877 L 254.864 150.877 254.864 148.006 L 254.864 145.136 249.123 145.136 L 243.381 145.136 243.381 142.105 L 243.381 139.075 249.282 139.075 L 255.183 139.075 255.183 141.946 M330.463 148.006 L 330.463 150.877 327.592 150.877 L 324.721 150.877 324.721 148.006 L 324.721 145.136 327.592 145.136 L 330.463 145.136 330.463 148.006 M127.592 176.874 L 127.592 179.904 124.561 179.904 L 121.531 179.904 121.531 182.581 L 121.531 185.258 115.949 185.491 L 110.367 185.723 110.367 188.517 L 110.367 191.310 104.466 191.543 L 98.565 191.776 98.565 194.619 L 98.565 197.463 92.743 197.376 L 86.922 197.289 86.830 194.345 L 86.739 191.402 92.572 191.315 L 98.405 191.228 98.565 188.357 L 98.724 185.486 104.374 185.595 L 110.023 185.704 110.115 182.725 L 110.207 179.745 115.869 179.850 L 121.531 179.954 121.531 177.112 C 121.531 173.653,121.342 173.844,124.774 173.844 L 127.592 173.844 127.592 176.874 M69.537 177.033 L 69.537 179.904 66.667 179.904 L 63.796 179.904 63.796 177.033 L 63.796 174.163 66.667 174.163 L 69.537 174.163 69.537 177.033 M46.504 194.338 L 46.596 197.129 43.553 197.129 L 40.510 197.129 40.510 194.471 C 40.510 191.213,40.371 191.345,43.685 191.456 L 46.411 191.547 46.504 194.338 M81.272 200.080 L 81.180 203.030 75.439 203.030 L 69.697 203.030 69.605 200.080 L 69.514 197.129 75.439 197.129 L 81.364 197.129 81.272 200.080 M65.470 203.081 L 69.537 203.288 69.537 205.901 L 69.537 208.514 65.470 208.721 C 63.234 208.835,59.286 208.929,56.699 208.930 L 51.994 208.931 51.994 205.901 L 51.994 202.871 56.699 202.872 C 59.286 202.873,63.234 202.967,65.470 203.081 M36.154 208.821 L 40.510 209.030 40.510 211.643 L 40.510 214.256 36.443 214.463 C 34.207 214.577,31.623 214.671,30.702 214.672 L 29.027 214.673 29.027 211.643 L 29.027 208.612 30.412 208.612 C 31.174 208.612,33.758 208.706,36.154 208.821 M52.245 217.464 L 52.153 220.255 49.282 220.255 L 46.411 220.255 46.317 217.893 C 46.183 214.566,46.080 214.673,49.444 214.673 L 52.337 214.673 52.245 217.464 M75.439 223.285 L 75.439 225.997 72.488 226.089 L 69.537 226.180 69.537 223.285 L 69.537 220.391 72.488 220.482 L 75.439 220.574 75.439 223.285 M226.156 229.027 L 226.156 231.898 223.126 231.898 L 220.096 231.898 220.096 229.027 L 220.096 226.156 223.126 226.156 L 226.156 226.156 226.156 229.027 M210.287 232.108 L 214.354 232.315 214.354 234.941 L 214.354 237.566 208.612 237.799 L 202.871 238.032 202.871 240.866 L 202.871 243.700 200.000 243.700 L 197.129 243.700 197.129 245.404 C 197.129 246.342,197.035 248.854,196.921 250.987 L 196.712 254.864 194.273 254.864 C 191.179 254.864,191.069 254.982,191.069 258.278 L 191.069 260.925 185.327 260.925 L 179.585 260.925 179.585 266.654 L 179.585 272.383 176.794 272.476 L 174.003 272.568 173.911 275.518 L 173.820 278.469 170.961 278.469 L 168.102 278.469 168.102 281.338 L 168.102 284.207 142.026 284.288 L 115.949 284.370 115.857 287.161 L 115.765 289.952 110.035 289.952 L 104.306 289.952 104.306 287.081 L 104.306 284.211 101.435 284.211 L 98.565 284.211 98.565 281.340 L 98.565 278.469 95.694 278.469 L 92.823 278.469 92.823 275.598 L 92.823 272.727 89.952 272.727 L 87.081 272.727 87.081 269.672 L 87.081 266.617 92.743 266.721 L 98.405 266.826 98.565 263.955 L 98.724 261.085 101.515 260.992 L 104.306 260.900 104.306 258.042 L 104.306 255.183 107.177 255.183 L 110.048 255.183 110.048 258.054 L 110.048 260.925 115.949 260.925 L 121.850 260.925 121.850 258.054 L 121.850 255.183 130.463 255.183 L 139.075 255.183 139.075 258.054 L 139.075 260.925 141.934 260.925 L 144.793 260.925 144.884 263.876 L 144.976 266.826 147.847 266.826 L 150.718 266.826 150.805 261.005 L 150.892 255.183 156.619 255.183 L 162.346 255.183 162.433 261.005 L 162.520 266.826 165.231 266.826 L 167.943 266.826 168.102 263.955 L 168.262 261.085 173.923 260.997 L 179.585 260.910 179.585 258.219 L 179.585 255.527 176.794 255.435 L 174.003 255.343 173.912 252.397 L 173.820 249.452 165.140 249.367 L 156.459 249.282 156.367 246.503 L 156.275 243.725 153.497 243.633 L 150.718 243.541 150.718 240.670 L 150.718 237.799 153.509 237.707 L 156.300 237.615 156.300 234.969 C 156.300 233.514,156.396 232.228,156.512 232.111 C 156.786 231.837,204.921 231.834,210.287 232.108 " stroke="none" fill="#2a2a2a" fill-rule="evenodd"></path><path id="path2" d="M365.299 78.389 L 365.391 81.180 368.182 81.272 L 370.973 81.365 370.973 98.737 L 370.973 116.108 368.102 116.108 L 365.231 116.108 365.231 118.979 L 365.231 121.850 356.619 121.850 L 348.006 121.850 348.006 124.721 L 348.006 127.592 359.490 127.592 L 370.973 127.592 370.973 130.468 L 370.973 133.344 379.665 133.259 L 388.357 133.174 388.357 118.820 L 388.357 104.466 385.615 104.374 L 382.873 104.283 382.665 99.938 C 382.550 97.548,382.456 93.683,382.456 91.350 L 382.456 87.106 379.665 87.014 L 376.874 86.922 376.782 84.131 L 376.690 81.340 373.831 81.340 L 370.973 81.340 370.973 78.469 L 370.973 75.598 368.090 75.598 L 365.206 75.598 365.299 78.389 M336.523 118.820 L 336.523 121.531 339.234 121.531 L 341.946 121.531 341.946 118.820 L 341.946 116.108 339.234 116.108 L 336.523 116.108 336.523 118.820 M121.850 260.920 L 121.850 266.667 118.992 266.667 L 116.133 266.667 116.041 263.876 L 115.949 261.085 107.337 261.085 L 98.724 261.085 98.565 263.955 L 98.405 266.826 92.743 266.913 L 87.081 267.000 87.081 269.692 L 87.081 272.383 89.872 272.476 L 92.663 272.568 92.755 275.518 L 92.847 278.469 95.706 278.469 L 98.565 278.469 98.565 281.340 L 98.565 284.211 101.435 284.211 L 104.306 284.211 104.306 287.081 L 104.306 289.952 110.035 289.952 L 115.765 289.952 115.857 287.161 L 115.949 284.370 133.413 284.288 L 150.877 284.205 150.877 281.337 L 150.877 278.469 153.589 278.469 L 156.300 278.469 156.300 281.340 L 156.300 284.211 162.201 284.211 L 168.102 284.211 168.102 281.340 L 168.102 278.469 170.961 278.469 L 173.820 278.469 173.911 275.518 L 174.003 272.568 176.794 272.476 L 179.585 272.383 179.585 266.647 L 179.585 260.910 173.923 260.997 L 168.262 261.085 168.102 263.955 L 167.943 266.826 165.231 266.826 L 162.520 266.826 162.433 261.005 L 162.346 255.183 156.619 255.183 L 150.892 255.183 150.805 261.005 L 150.718 266.826 147.847 266.826 L 144.976 266.826 144.884 263.876 L 144.793 260.925 141.946 260.925 L 139.100 260.925 139.008 258.134 L 138.915 255.343 130.383 255.258 L 121.850 255.173 121.850 260.920 M140.241 266.986 L 144.817 266.986 144.817 269.646 L 144.817 272.307 136.469 272.503 C 126.675 272.732,127.592 273.018,127.592 269.731 C 127.592 266.405,127.377 266.553,131.868 266.787 C 133.957 266.896,137.725 266.986,140.241 266.986 M162.360 269.697 L 162.360 272.408 159.490 272.408 L 156.619 272.408 156.619 269.697 L 156.619 266.986 159.490 266.986 L 162.360 266.986 162.360 269.697 " stroke="none" fill="#f94e3b" fill-rule="evenodd"></path><path id="path3" d="M324.945 34.970 C 324.822 35.093,324.721 36.390,324.721 37.852 L 324.721 40.510 327.604 40.510 L 330.487 40.510 330.395 37.719 L 330.303 34.928 327.736 34.837 C 326.325 34.786,325.069 34.846,324.945 34.970 M312.919 54.856 L 312.919 57.725 304.386 57.815 L 295.853 57.906 304.545 57.980 L 313.238 58.054 313.238 55.183 L 313.238 52.313 327.592 52.313 L 341.946 52.313 341.946 55.183 L 341.946 58.054 344.805 58.054 L 347.663 58.054 347.775 61.005 L 347.887 63.955 347.867 60.925 L 347.847 57.895 345.068 57.803 L 342.289 57.711 342.197 54.932 L 342.105 52.153 327.512 52.070 L 312.919 51.987 312.919 54.856 M353.603 63.557 C 353.486 66.583,353.434 74.442,353.489 81.021 L 353.589 92.982 356.380 93.075 L 359.171 93.167 359.171 95.674 L 359.171 98.182 353.429 98.414 L 347.687 98.646 347.687 104.347 L 347.687 110.048 341.946 110.048 L 336.204 110.048 336.204 107.170 L 336.204 104.292 330.383 104.379 L 324.561 104.466 324.470 107.224 L 324.378 109.981 314.342 110.094 C 308.822 110.156,299.785 110.156,294.258 110.094 L 284.211 109.981 284.211 107.144 L 284.211 104.306 281.347 104.306 L 278.483 104.306 278.385 98.485 L 278.287 92.663 278.298 98.565 L 278.309 104.466 281.088 104.558 L 283.867 104.650 283.959 107.429 L 284.051 110.207 292.731 110.292 L 301.411 110.377 301.503 113.163 L 301.595 115.949 304.386 116.041 L 307.177 116.133 307.177 113.250 L 307.177 110.367 315.949 110.367 L 324.721 110.367 324.721 107.496 L 324.721 104.625 327.592 104.625 L 330.463 104.625 330.463 107.302 L 330.463 109.979 336.284 110.197 C 339.486 110.318,343.397 110.369,344.976 110.312 L 347.847 110.207 347.934 104.582 L 348.021 98.956 353.755 98.724 L 359.490 98.491 359.490 95.657 L 359.490 92.823 356.619 92.823 L 353.748 92.823 353.748 78.309 L 353.748 63.796 356.619 63.796 L 359.490 63.796 359.490 60.925 L 359.490 58.054 356.653 58.054 L 353.817 58.054 353.603 63.557 M272.555 78.309 C 272.555 86.380,272.597 89.635,272.647 85.544 C 272.698 81.453,272.698 74.850,272.647 70.871 C 272.597 66.892,272.555 70.239,272.555 78.309 M324.402 72.408 L 324.402 75.279 321.691 75.279 L 318.979 75.279 318.979 78.116 L 318.979 80.952 324.575 81.185 C 327.653 81.314,330.261 81.329,330.370 81.220 C 330.479 81.110,329.253 81.021,327.645 81.021 L 324.721 81.021 324.721 75.439 L 324.721 69.856 327.592 69.856 L 330.463 69.856 330.462 72.648 L 330.461 75.439 333.333 75.336 L 336.204 75.234 336.204 72.594 L 336.204 69.955 332.137 69.747 C 329.900 69.633,327.245 69.539,326.236 69.539 L 324.402 69.537 324.402 72.408 M301.754 72.568 L 301.754 75.279 304.466 75.279 L 307.177 75.279 307.177 72.568 L 307.177 69.856 304.466 69.856 L 301.754 69.856 301.754 72.568 M385.395 98.802 L 388.174 98.908 388.279 101.846 L 388.384 104.785 388.451 101.675 L 388.517 98.565 385.566 98.630 L 382.616 98.696 385.395 98.802 M173.984 104.721 C 173.891 104.962,173.857 106.296,173.909 107.684 L 174.003 110.207 176.874 110.207 L 179.745 110.207 179.745 107.337 L 179.745 104.466 176.949 104.373 C 174.803 104.303,174.113 104.383,173.984 104.721 M203.086 133.543 C 202.968 133.662,202.871 134.939,202.871 136.382 L 202.871 139.006 208.692 139.220 C 211.894 139.337,219.753 139.389,226.156 139.334 L 237.799 139.234 237.799 136.364 L 237.799 133.493 220.550 133.410 C 211.063 133.365,203.205 133.425,203.086 133.543 M237.640 136.364 L 237.640 139.075 223.126 139.075 L 208.612 139.075 208.612 136.364 L 208.612 133.652 223.126 133.652 L 237.640 133.652 237.640 136.364 M185.547 139.281 C 185.426 139.401,185.327 140.696,185.327 142.158 L 185.327 144.817 179.585 144.817 L 173.844 144.817 173.844 147.875 L 173.844 150.933 168.022 150.825 L 162.201 150.718 162.109 153.698 L 162.017 156.677 156.367 156.568 L 150.718 156.459 150.626 159.410 L 150.534 162.360 144.805 162.360 L 139.075 162.360 139.075 165.219 L 139.075 168.078 136.124 168.183 L 133.174 168.289 136.124 168.355 L 139.075 168.421 139.075 171.120 L 139.075 173.820 136.203 173.930 L 133.332 174.041 136.283 174.022 L 139.234 174.003 139.327 171.219 L 139.419 168.436 145.068 168.349 L 150.718 168.262 150.809 165.507 L 150.901 162.752 156.631 162.519 L 162.360 162.287 162.382 159.373 C 162.393 157.771,162.384 155.203,162.362 153.668 L 162.322 150.877 165.235 150.877 L 168.147 150.877 168.045 153.752 C 167.963 156.046,168.028 156.594,168.367 156.464 C 168.601 156.374,169.929 156.300,171.318 156.300 L 173.844 156.300 173.844 153.589 L 173.844 150.877 179.745 150.877 L 185.646 150.877 185.646 148.014 L 185.646 145.150 191.467 145.063 L 197.289 144.976 197.289 142.105 L 197.289 139.234 191.527 139.148 C 188.359 139.100,185.667 139.160,185.547 139.281 M243.381 142.105 L 243.381 145.136 249.123 145.136 L 254.864 145.136 254.864 148.006 L 254.864 150.877 257.735 150.877 L 260.606 150.877 260.606 153.570 C 260.606 155.051,260.714 156.329,260.845 156.411 C 260.977 156.493,261.013 155.245,260.925 153.639 L 260.766 150.718 257.974 150.626 L 255.183 150.533 255.183 147.842 L 255.183 145.150 261.005 145.055 L 266.826 144.961 261.005 144.889 L 255.183 144.817 255.183 141.946 L 255.183 139.075 249.282 139.075 L 243.381 139.075 243.381 142.105 M197.129 142.105 L 197.129 144.817 191.388 144.817 L 185.646 144.817 185.646 142.105 L 185.646 139.394 191.388 139.394 L 197.129 139.394 197.129 142.105 M254.864 142.105 L 254.864 144.817 249.282 144.817 L 243.700 144.817 243.700 142.105 L 243.700 139.394 249.282 139.394 L 254.864 139.394 254.864 142.105 M185.327 147.847 L 185.327 150.558 179.745 150.558 L 174.163 150.558 174.163 147.847 L 174.163 145.136 179.745 145.136 L 185.327 145.136 185.327 147.847 M324.721 148.006 L 324.721 150.877 327.592 150.877 L 330.463 150.877 330.463 148.006 L 330.463 145.136 327.592 145.136 L 324.721 145.136 324.721 148.006 M269.458 150.796 L 272.408 150.901 272.408 153.760 L 272.408 156.619 278.389 156.552 C 281.710 156.515,282.987 156.439,281.260 156.381 L 278.150 156.277 278.150 153.626 L 278.150 150.976 273.793 150.767 C 271.397 150.652,268.777 150.588,267.972 150.624 C 267.166 150.661,267.835 150.738,269.458 150.796 M292.504 156.588 L 295.534 156.778 295.626 159.526 L 295.717 162.273 301.048 162.498 C 307.847 162.784,307.496 162.941,307.496 159.627 L 307.496 156.963 310.287 156.856 L 313.078 156.750 310.128 156.684 L 307.177 156.619 307.177 159.330 L 307.177 162.041 304.306 162.041 L 301.435 162.041 301.435 159.512 L 301.435 156.983 298.485 156.798 C 296.862 156.696,294.171 156.565,292.504 156.506 L 289.474 156.398 292.504 156.588 M321.573 156.533 L 324.325 156.642 324.556 162.189 C 324.833 168.821,325.016 168.421,321.706 168.421 L 319.048 168.421 318.816 173.991 L 318.584 179.562 315.831 179.653 L 313.078 179.745 313.067 185.486 L 313.057 191.228 313.154 185.566 L 313.252 179.904 316.116 179.904 L 318.979 179.904 318.979 177.046 L 318.979 174.188 321.770 174.095 L 324.561 174.003 324.653 171.053 L 324.745 168.102 327.604 168.102 L 330.463 168.102 330.463 165.231 L 330.463 162.360 327.604 162.360 L 324.745 162.360 324.653 159.410 L 324.561 156.459 321.691 156.441 L 318.820 156.423 321.573 156.533 M156.459 159.490 L 156.459 162.201 153.668 162.293 L 150.877 162.385 150.877 159.490 L 150.877 156.594 153.668 156.686 L 156.459 156.778 156.459 159.490 M150.558 165.391 L 150.558 168.102 144.976 168.102 L 139.394 168.102 139.394 165.391 L 139.394 162.679 144.976 162.679 L 150.558 162.679 150.558 165.391 M269.627 168.335 L 272.428 168.445 272.339 177.030 C 272.289 181.752,272.359 185.505,272.493 185.370 C 272.628 185.235,272.700 181.331,272.653 176.693 L 272.568 168.262 269.697 168.244 L 266.826 168.226 269.627 168.335 M121.744 174.056 C 121.627 174.173,121.531 175.548,121.531 177.112 L 121.531 179.954 115.869 179.850 L 110.207 179.745 110.120 185.394 L 110.033 191.044 107.249 191.150 L 104.466 191.256 107.416 191.322 L 110.367 191.388 110.367 185.646 L 110.367 179.904 113.078 179.904 L 115.789 179.904 115.789 182.695 L 115.788 185.486 118.660 185.384 L 121.531 185.282 121.531 182.593 L 121.531 179.904 124.641 179.838 L 127.751 179.772 124.801 179.667 L 121.850 179.561 121.850 176.874 L 121.850 174.187 124.801 174.081 L 127.751 173.976 124.854 173.910 C 123.260 173.873,121.861 173.939,121.744 174.056 M63.796 177.033 L 63.796 179.904 66.667 179.904 L 69.537 179.904 69.537 177.033 L 69.537 174.163 66.667 174.163 L 63.796 174.163 63.796 177.033 M98.772 185.566 C 98.691 185.698,99.508 185.765,100.588 185.717 C 104.105 185.558,104.522 185.430,101.693 185.378 C 100.169 185.350,98.854 185.435,98.772 185.566 M95.375 191.406 C 93.169 191.536,93.993 191.589,98.405 191.602 C 104.409 191.619,105.412 191.502,100.797 191.322 C 99.482 191.270,97.041 191.308,95.375 191.406 M40.734 191.589 C 40.611 191.712,40.510 193.009,40.510 194.471 L 40.510 197.129 43.553 197.129 L 46.596 197.129 46.504 194.338 L 46.411 191.547 43.685 191.456 C 42.186 191.406,40.858 191.465,40.734 191.589 M86.904 194.418 L 86.922 197.289 92.743 197.376 C 95.945 197.423,98.565 197.352,98.565 197.216 C 98.565 197.081,95.987 197.012,92.835 197.063 L 87.106 197.157 86.996 194.352 L 86.886 191.547 86.904 194.418 M69.605 200.080 L 69.697 203.030 75.439 203.030 L 81.180 203.030 81.272 200.080 L 81.364 197.129 75.439 197.129 L 69.514 197.129 69.605 200.080 M260.819 197.342 C 260.702 197.459,260.606 200.037,260.606 203.071 L 260.606 208.588 257.815 208.680 L 255.024 208.772 254.932 211.556 L 254.840 214.339 249.190 214.427 L 243.541 214.514 243.449 217.292 L 243.357 220.071 240.578 220.163 L 237.799 220.255 237.780 223.207 L 237.761 226.158 237.872 223.286 L 237.982 220.415 240.682 220.415 L 243.381 220.415 243.381 223.297 L 243.381 226.180 246.332 226.089 L 249.282 225.997 249.374 223.206 L 249.467 220.415 246.583 220.415 L 243.700 220.415 243.700 217.544 L 243.700 214.673 249.442 214.673 L 255.183 214.673 255.183 211.802 L 255.183 208.931 258.054 208.931 L 260.925 208.931 260.925 203.202 L 260.925 197.473 263.716 197.367 L 266.507 197.260 263.769 197.195 C 262.263 197.159,260.936 197.225,260.819 197.342 M295.694 199.988 L 295.694 202.847 292.743 202.939 L 289.793 203.030 289.701 205.814 L 289.609 208.598 283.959 208.685 L 278.309 208.772 278.217 211.563 L 278.125 214.354 272.574 214.354 C 269.521 214.354,266.956 214.462,266.875 214.593 C 266.793 214.725,269.332 214.761,272.518 214.673 L 278.309 214.514 278.402 211.722 L 278.494 208.931 284.223 208.931 L 289.952 208.931 289.952 206.073 L 289.952 203.214 292.903 203.122 L 295.853 203.030 295.945 200.251 L 296.037 197.473 298.816 197.367 L 301.595 197.260 298.644 197.195 L 295.694 197.129 295.694 199.988 M81.021 200.159 L 81.021 202.871 78.150 202.871 L 75.279 202.871 75.279 200.159 L 75.279 197.448 78.150 197.448 L 81.021 197.448 81.021 200.159 M51.994 205.901 L 51.994 208.931 56.699 208.930 C 59.286 208.929,63.234 208.835,65.470 208.721 L 69.537 208.514 69.537 205.901 L 69.537 203.288 65.470 203.081 C 63.234 202.967,59.286 202.873,56.699 202.872 L 51.994 202.871 51.994 205.901 M63.796 205.901 L 63.796 208.612 58.054 208.612 L 52.313 208.612 52.313 205.901 L 52.313 203.190 58.054 203.190 L 63.796 203.190 63.796 205.901 M31.818 208.850 L 34.769 208.955 34.769 211.655 L 34.769 214.354 31.845 214.354 C 30.237 214.354,29.010 214.444,29.120 214.553 C 29.229 214.662,31.837 214.647,34.914 214.519 L 40.510 214.285 40.510 211.658 L 40.510 209.030 36.154 208.821 C 33.758 208.706,31.138 208.642,30.332 208.679 C 29.527 208.715,30.195 208.792,31.818 208.850 M46.386 215.102 C 46.296 215.337,46.265 216.593,46.317 217.893 L 46.411 220.255 49.282 220.255 L 52.153 220.255 52.245 217.464 L 52.337 214.673 49.444 214.673 C 47.316 214.673,46.507 214.786,46.386 215.102 M260.819 220.308 C 260.702 220.425,260.606 221.717,260.606 223.179 L 260.606 225.837 257.907 225.837 L 255.208 225.837 255.096 223.125 L 254.984 220.413 255.004 223.205 L 255.024 225.997 257.974 226.089 L 260.925 226.180 260.925 223.309 L 260.925 220.439 263.876 220.333 L 266.826 220.228 263.929 220.162 C 262.335 220.125,260.936 220.191,260.819 220.308 M69.537 223.285 L 69.537 226.180 72.488 226.089 L 75.439 225.997 75.439 223.285 L 75.439 220.574 72.488 220.482 L 69.537 220.391 69.537 223.285 M75.279 223.285 L 75.279 225.837 72.568 225.837 L 69.856 225.837 69.856 223.285 L 69.856 220.734 72.568 220.734 L 75.279 220.734 75.279 223.285 M220.161 229.107 L 220.227 232.057 220.333 229.266 L 220.440 226.475 223.126 226.475 L 225.812 226.475 225.919 229.266 L 226.025 232.057 226.091 229.107 L 226.156 226.156 223.126 226.156 L 220.096 226.156 220.161 229.107 M156.512 232.111 C 156.396 232.228,156.300 233.514,156.300 234.969 L 156.300 237.615 153.509 237.707 L 150.718 237.799 150.718 240.670 L 150.718 243.541 153.509 243.633 L 156.300 243.725 156.300 246.405 C 156.300 247.879,156.407 249.152,156.539 249.234 C 156.671 249.316,156.733 248.033,156.677 246.382 L 156.575 243.381 159.468 243.381 L 162.360 243.381 162.360 240.670 L 162.360 237.959 159.490 237.959 L 156.619 237.959 156.619 235.088 L 156.619 232.217 182.616 232.217 L 208.612 232.217 208.612 234.928 L 208.612 237.640 205.688 237.640 C 204.080 237.640,202.852 237.727,202.959 237.834 C 203.066 237.941,205.674 237.924,208.754 237.795 L 214.354 237.562 214.354 234.939 L 214.354 232.315 210.287 232.108 C 204.921 231.834,156.786 231.837,156.512 232.111 M156.619 240.670 L 156.619 243.381 153.748 243.381 L 150.877 243.381 150.877 240.670 L 150.877 237.959 153.748 237.959 L 156.619 237.959 156.619 240.670 M198.485 243.616 C 199.318 243.681,200.682 243.681,201.515 243.616 C 202.348 243.550,201.667 243.496,200.000 243.496 C 198.333 243.496,197.652 243.550,198.485 243.616 M163.557 249.358 C 164.478 249.422,165.985 249.422,166.906 249.358 C 167.827 249.294,167.073 249.241,165.231 249.241 C 163.389 249.241,162.636 249.294,163.557 249.358 M194.191 249.374 L 191.412 249.466 191.320 252.245 L 191.228 255.024 188.357 255.183 L 185.486 255.343 185.394 258.134 L 185.302 260.925 188.185 260.925 L 191.069 260.925 191.069 258.278 C 191.069 254.978,191.176 254.864,194.299 254.864 L 196.763 254.864 196.868 252.073 C 196.926 250.538,196.972 249.282,196.971 249.282 C 196.970 249.282,195.719 249.324,194.191 249.374 M173.985 252.472 L 174.003 255.343 176.782 255.435 L 179.561 255.527 179.667 258.306 L 179.773 261.085 179.839 258.134 L 179.904 255.183 177.045 255.183 L 174.187 255.183 174.077 252.392 L 173.967 249.601 173.985 252.472 M104.372 258.134 L 104.437 261.085 104.544 258.306 L 104.650 255.527 107.429 255.421 L 110.207 255.315 107.257 255.249 L 104.306 255.183 104.372 258.134 M117.315 261.161 C 118.242 261.225,119.678 261.225,120.505 261.159 C 121.333 261.094,120.574 261.041,118.820 261.042 C 117.065 261.042,116.388 261.096,117.315 261.161 M88.447 266.902 C 89.285 266.967,90.577 266.967,91.317 266.900 C 92.058 266.833,91.372 266.779,89.793 266.780 C 88.214 266.781,87.608 266.836,88.447 266.902 M129.107 266.900 C 129.852 266.967,131.073 266.967,131.818 266.900 C 132.564 266.833,131.954 266.778,130.463 266.778 C 128.971 266.778,128.361 266.833,129.107 266.900 M88.447 272.643 C 89.285 272.709,90.577 272.708,91.317 272.641 C 92.058 272.574,91.372 272.521,89.793 272.522 C 88.214 272.522,87.608 272.577,88.447 272.643 M129.107 272.642 C 129.852 272.709,131.073 272.709,131.818 272.642 C 132.564 272.575,131.954 272.520,130.463 272.520 C 128.971 272.520,128.361 272.575,129.107 272.642 M152.242 284.126 C 153.081 284.192,154.373 284.192,155.113 284.125 C 155.854 284.058,155.167 284.004,153.589 284.005 C 152.010 284.006,151.404 284.060,152.242 284.126 " stroke="none" fill="#8c8c8c" fill-rule="evenodd"></path><path id="path4" d="M336.417 98.777 C 336.300 98.894,336.204 101.478,336.204 104.519 L 336.204 110.048 341.946 110.048 L 347.687 110.048 347.687 104.306 L 347.687 98.565 342.158 98.565 C 339.117 98.565,336.534 98.660,336.417 98.777 " stroke="none" fill="#f8b020" fill-rule="evenodd"></path></g></svg>