<svg id="svg" version="1.1" width="400" height="318.8405797101449" viewBox="0 0 400 318.8405797101449" xmlns="http://www.w3.org/2000/svg" xmlns:xlink="http://www.w3.org/1999/xlink" ><g id="svgg"><path id="path0" d="M313.238 55.183 L 313.238 58.054 304.466 58.054 L 295.694 58.054 295.694 60.925 L 295.694 63.796 284.211 63.796 L 272.727 63.796 272.727 78.309 L 272.727 92.823 275.598 92.823 L 278.469 92.823 278.469 98.565 L 278.469 104.306 281.340 104.306 L 284.211 104.306 284.211 107.177 L 284.211 110.048 304.294 110.048 L 324.377 110.048 324.469 107.257 L 324.561 104.466 330.370 104.379 L 336.180 104.292 336.272 101.508 L 336.364 98.724 346.252 98.527 C 351.691 98.419,356.822 98.311,357.656 98.288 L 359.171 98.246 359.171 95.706 L 359.171 93.167 356.380 93.075 L 353.589 92.982 353.506 78.389 L 353.423 63.796 350.555 63.796 L 347.687 63.796 347.687 60.925 L 347.687 58.054 344.817 58.054 L 341.946 58.054 341.946 55.183 L 341.946 52.313 327.592 52.313 L 313.238 52.313 313.238 55.183 M332.137 69.747 L 336.204 69.955 336.204 72.605 L 336.204 75.254 333.413 75.346 L 330.622 75.439 330.530 78.389 L 330.439 81.340 328.776 81.338 C 327.861 81.338,325.283 81.244,323.046 81.130 L 318.979 80.922 318.979 78.101 L 318.979 75.279 321.691 75.279 L 324.402 75.279 324.402 72.408 L 324.402 69.537 326.236 69.539 C 327.245 69.539,329.900 69.633,332.137 69.747 M307.177 72.568 L 307.177 75.279 304.466 75.279 L 301.754 75.279 301.754 72.568 L 301.754 69.856 304.466 69.856 L 307.177 69.856 307.177 72.568 M382.775 101.595 L 382.775 104.306 385.486 104.306 L 388.198 104.306 388.198 101.595 L 388.198 98.884 385.486 98.884 L 382.775 98.884 382.775 101.595 M208.612 136.523 L 208.612 139.394 197.129 139.394 L 185.646 139.394 185.646 142.265 L 185.646 145.136 179.917 145.136 L 174.188 145.136 174.095 147.927 L 174.003 150.718 168.182 150.805 L 162.360 150.892 162.360 153.755 L 162.360 156.619 156.631 156.619 L 150.901 156.619 150.809 159.569 L 150.718 162.520 145.068 162.607 L 139.419 162.694 139.327 165.478 L 139.234 168.262 136.284 168.353 L 133.333 168.445 133.333 171.304 L 133.333 174.163 127.592 174.163 L 121.850 174.163 121.850 177.033 L 121.850 179.904 116.108 179.904 L 110.367 179.904 110.367 182.768 L 110.367 185.632 104.545 185.718 L 98.724 185.805 98.632 188.596 L 98.540 191.388 92.823 191.388 L 87.105 191.388 87.014 194.338 L 86.922 197.289 78.401 197.374 L 69.881 197.459 69.789 200.244 L 69.697 203.030 61.005 203.115 L 52.313 203.200 52.313 206.066 L 52.313 208.931 37.799 208.931 L 23.285 208.931 23.285 211.638 L 23.285 214.344 31.978 214.429 L 40.670 214.514 40.762 217.301 L 40.854 220.088 52.245 220.171 L 63.636 220.255 63.796 223.126 L 63.955 225.997 78.389 226.080 L 92.823 226.163 92.823 229.030 L 92.823 231.898 98.565 231.898 L 104.306 231.898 104.306 229.027 L 104.306 226.156 107.177 226.156 L 110.048 226.156 110.048 223.285 L 110.048 220.415 112.919 220.415 L 115.789 220.415 115.789 217.556 L 115.789 214.697 118.740 214.605 L 121.691 214.514 121.782 211.761 L 121.874 209.008 127.432 208.776 L 132.991 208.545 133.082 205.788 L 133.174 203.030 136.124 202.939 L 139.075 202.847 139.075 199.988 L 139.075 197.129 141.934 197.129 L 144.793 197.129 144.884 194.179 L 144.976 191.228 147.767 191.136 L 150.558 191.044 150.558 188.345 L 150.558 185.646 153.417 185.646 L 156.276 185.646 156.368 182.695 L 156.459 179.745 159.410 179.653 L 162.360 179.561 162.360 176.703 L 162.360 173.844 165.231 173.844 L 168.102 173.844 168.102 170.973 L 168.102 168.102 170.973 168.102 L 173.844 168.102 173.844 165.231 L 173.844 162.360 176.715 162.360 L 179.585 162.360 179.585 159.526 L 179.585 156.692 185.315 156.460 L 191.045 156.227 191.136 153.473 L 191.228 150.718 194.179 150.626 L 197.129 150.534 197.129 147.675 L 197.129 144.817 205.742 144.817 L 214.354 144.817 214.354 141.946 L 214.354 139.075 225.997 139.075 L 237.640 139.075 237.640 136.364 L 237.640 133.652 223.126 133.652 L 208.612 133.652 208.612 136.523 M249.442 142.105 L 249.442 144.817 252.153 144.817 L 254.864 144.817 254.864 142.105 L 254.864 139.394 252.153 139.394 L 249.442 139.394 249.442 142.105 M260.925 148.006 L 260.925 150.877 263.788 150.877 L 266.652 150.877 266.739 156.539 L 266.826 162.201 269.583 162.293 L 272.339 162.384 272.555 168.513 C 272.674 171.883,272.725 177.081,272.670 180.064 L 272.568 185.486 269.697 185.646 L 266.826 185.805 266.741 194.498 L 266.656 203.190 263.791 203.190 L 260.925 203.190 260.925 206.061 L 260.925 208.931 258.054 208.931 L 255.183 208.931 255.183 211.802 L 255.183 214.673 252.313 214.673 L 249.442 214.673 249.442 217.544 L 249.442 220.415 252.313 220.415 L 255.183 220.415 255.183 223.126 L 255.183 225.837 257.882 225.837 L 260.581 225.837 260.673 223.046 L 260.766 220.255 263.704 220.164 L 266.642 220.072 266.734 217.293 L 266.826 214.514 272.476 214.427 L 278.125 214.339 278.217 211.556 L 278.309 208.772 283.959 208.685 L 289.609 208.598 289.701 205.814 L 289.793 203.030 292.743 202.939 L 295.694 202.847 295.694 199.988 L 295.694 197.129 301.435 197.129 L 307.177 197.129 307.177 194.258 L 307.177 191.388 310.041 191.388 L 312.904 191.388 312.991 185.566 L 313.078 179.745 315.831 179.653 L 318.584 179.562 318.816 173.991 L 319.048 168.421 321.706 168.421 C 325.016 168.421,324.833 168.823,324.556 162.178 L 324.324 156.619 319.977 156.620 C 317.586 156.621,313.800 156.715,311.563 156.829 L 307.496 157.036 307.496 159.664 C 307.496 162.935,307.839 162.784,301.048 162.498 L 295.717 162.273 295.626 159.526 L 295.534 156.778 283.971 156.695 L 272.408 156.611 272.408 153.744 L 272.408 150.877 269.537 150.877 L 266.667 150.877 266.667 148.006 L 266.667 145.136 263.796 145.136 L 260.925 145.136 260.925 148.006 M174.163 252.307 L 174.163 255.183 177.033 255.183 L 179.904 255.183 179.904 258.054 L 179.904 260.925 182.603 260.925 L 185.302 260.925 185.394 258.134 L 185.486 255.343 188.357 255.183 L 191.228 255.024 191.228 252.313 L 191.228 249.601 182.695 249.516 L 174.163 249.431 174.163 252.307 M116.108 263.955 L 116.108 266.667 118.820 266.667 L 121.531 266.667 121.531 263.955 L 121.531 261.244 118.820 261.244 L 116.108 261.244 116.108 263.955 M127.592 269.697 L 127.592 272.408 136.204 272.408 L 144.817 272.408 144.817 269.697 L 144.817 266.986 136.204 266.986 L 127.592 266.986 127.592 269.697 M156.619 269.697 L 156.619 272.408 159.490 272.408 L 162.360 272.408 162.360 269.697 L 162.360 266.986 159.490 266.986 L 156.619 266.986 156.619 269.697 M150.877 281.340 L 150.877 283.892 153.589 283.892 L 156.300 283.892 156.300 281.340 L 156.300 278.788 153.589 278.788 L 150.877 278.788 150.877 281.340 " stroke="none" fill="#f0edeb" fill-rule="evenodd"></path><path id="path1" d="M301.116 31.579 L 301.116 34.450 295.375 34.450 L 289.633 34.450 289.633 37.480 L 289.633 40.510 283.892 40.510 L 278.150 40.510 278.150 43.381 L 278.150 46.252 275.120 46.252 L 272.089 46.252 272.089 49.123 L 272.089 51.994 269.219 51.994 L 266.348 51.994 266.348 57.735 L 266.348 63.477 263.477 63.477 L 260.606 63.477 260.606 69.378 L 260.606 75.279 257.735 75.279 L 254.864 75.279 254.864 81.021 L 254.864 86.762 249.123 86.762 L 243.381 86.762 243.381 89.633 L 243.381 92.504 220.096 92.504 L 196.810 92.504 196.810 95.375 L 196.810 98.246 185.167 98.246 L 173.525 98.246 173.525 101.276 L 173.525 104.306 167.783 104.306 L 162.041 104.306 162.041 107.177 L 162.041 110.048 156.300 110.048 L 150.558 110.048 150.558 112.919 L 150.558 115.789 144.657 115.789 L 138.756 115.789 138.756 118.660 L 138.756 121.531 133.014 121.531 L 127.273 121.531 127.273 124.402 L 127.273 127.273 124.402 127.273 L 121.531 127.273 121.531 130.144 L 121.531 133.014 115.789 133.014 L 110.048 133.014 110.048 136.045 L 110.048 139.075 107.018 139.075 L 103.987 139.075 103.987 141.946 L 103.987 144.817 101.116 144.817 L 98.246 144.817 98.246 147.687 L 98.246 150.558 92.504 150.558 L 86.762 150.558 86.762 153.429 L 86.762 156.300 83.892 156.300 L 81.021 156.300 81.021 159.171 L 81.021 162.041 78.150 162.041 L 75.279 162.041 75.279 165.072 L 75.279 168.102 69.378 168.102 L 63.477 168.102 63.477 170.973 L 63.477 173.844 60.606 173.844 L 57.735 173.844 57.735 176.715 L 57.735 179.585 54.864 179.585 L 51.994 179.585 51.994 182.456 L 51.994 185.327 46.093 185.327 L 40.191 185.327 40.191 188.198 L 40.191 191.069 37.321 191.069 L 34.450 191.069 34.450 193.939 L 34.450 196.810 28.708 196.810 L 22.967 196.810 22.967 199.841 L 22.967 202.871 20.096 202.871 L 17.225 202.871 17.225 208.931 L 17.225 214.992 20.096 214.992 L 22.967 214.992 22.967 217.863 L 22.967 220.734 31.579 220.734 L 40.191 220.734 40.191 223.604 L 40.191 226.475 51.834 226.475 L 63.477 226.475 63.477 229.346 L 63.477 232.217 77.990 232.217 L 92.504 232.217 92.504 234.928 L 92.504 237.640 86.762 237.640 L 81.021 237.640 81.021 240.510 L 81.021 243.381 75.120 243.381 L 69.219 243.381 69.219 246.252 L 69.219 249.123 63.477 249.123 L 57.735 249.123 57.735 251.994 L 57.735 254.864 54.864 254.864 L 51.994 254.864 51.994 258.054 L 51.994 261.244 54.864 261.244 L 57.735 261.244 57.735 264.115 L 57.735 266.986 69.378 266.986 L 81.021 266.986 81.021 269.856 L 81.021 272.727 83.892 272.727 L 86.762 272.727 86.762 275.758 L 86.762 278.788 89.633 278.788 L 92.504 278.788 92.504 281.659 L 92.504 284.530 95.375 284.530 L 98.246 284.530 98.246 287.400 L 98.246 290.271 101.116 290.271 L 103.987 290.271 103.987 293.142 L 103.987 296.013 110.048 296.013 L 116.108 296.013 116.108 293.142 L 116.108 290.271 142.265 290.271 L 168.421 290.271 168.421 287.400 L 168.421 284.530 171.292 284.530 L 174.163 284.530 174.163 281.659 L 174.163 278.788 177.033 278.788 L 179.904 278.788 179.904 275.758 L 179.904 272.727 182.775 272.727 L 185.646 272.727 185.646 269.856 L 185.646 266.986 188.676 266.986 L 191.707 266.986 191.707 264.115 L 191.707 261.244 194.577 261.244 L 197.448 261.244 197.448 258.373 L 197.448 255.502 200.319 255.502 L 203.190 255.502 203.190 252.632 L 203.190 249.761 208.931 249.761 L 214.673 249.761 214.673 246.730 L 214.673 243.700 220.574 243.700 L 226.475 243.700 226.475 240.829 L 226.475 237.959 232.217 237.959 L 237.959 237.959 237.959 235.088 L 237.959 232.217 249.601 232.217 L 261.244 232.217 261.244 229.346 L 261.244 226.475 266.986 226.475 L 272.727 226.475 272.727 223.604 L 272.727 220.734 278.469 220.734 L 284.211 220.734 284.211 217.863 L 284.211 214.992 290.112 214.992 L 296.013 214.992 296.013 211.962 L 296.013 208.931 298.884 208.931 L 301.754 208.931 301.754 206.061 L 301.754 203.190 304.625 203.190 L 307.496 203.190 307.496 200.319 L 307.496 197.448 310.367 197.448 L 313.238 197.448 313.238 194.577 L 313.238 191.707 316.108 191.707 L 318.979 191.707 318.979 188.836 L 318.979 185.965 322.010 185.965 L 325.040 185.965 325.040 182.935 L 325.040 179.904 327.911 179.904 L 330.781 179.904 330.781 174.163 L 330.781 168.421 333.652 168.421 L 336.523 168.421 336.523 148.166 L 336.523 127.911 342.105 127.911 L 347.687 127.911 347.687 130.781 L 347.687 133.652 359.171 133.652 L 370.654 133.652 370.654 136.523 L 370.654 139.394 379.585 139.394 L 388.517 139.394 388.517 136.523 L 388.517 133.652 391.547 133.652 L 394.577 133.652 394.577 115.949 L 394.577 98.246 391.547 98.246 L 388.517 98.246 388.517 92.504 L 388.517 86.762 385.646 86.762 L 382.775 86.762 382.775 83.892 L 382.775 81.021 379.904 81.021 L 377.033 81.021 377.033 78.150 L 377.033 75.279 374.163 75.279 L 371.292 75.279 371.292 72.249 L 371.292 69.219 368.421 69.219 L 365.550 69.219 365.550 63.477 L 365.550 57.735 362.679 57.735 L 359.809 57.735 359.809 54.864 L 359.809 51.994 356.778 51.994 L 353.748 51.994 353.748 49.123 L 353.748 46.252 350.877 46.252 L 348.006 46.252 348.006 43.381 L 348.006 40.510 345.136 40.510 L 342.265 40.510 342.265 37.480 L 342.265 34.450 336.523 34.450 L 330.781 34.450 330.781 31.579 L 330.781 28.708 315.949 28.708 L 301.116 28.708 301.116 31.579 M330.395 37.719 L 330.487 40.510 327.604 40.510 L 324.721 40.510 324.721 37.852 C 324.721 34.606,324.602 34.725,327.736 34.837 L 330.303 34.928 330.395 37.719 M342.197 54.932 L 342.289 57.711 345.068 57.803 L 347.847 57.895 347.939 60.858 L 348.031 63.820 350.810 63.728 L 353.589 63.636 353.681 60.845 L 353.773 58.054 356.631 58.054 L 359.490 58.054 359.490 60.925 L 359.490 63.796 356.619 63.796 L 353.748 63.796 353.748 78.309 L 353.748 92.823 356.619 92.823 L 359.490 92.823 359.490 95.657 L 359.490 98.491 353.755 98.724 L 348.021 98.956 347.934 104.582 L 347.847 110.207 344.976 110.312 C 343.397 110.369,339.486 110.318,336.284 110.197 L 330.463 109.979 330.463 107.302 L 330.463 104.625 327.592 104.625 L 324.721 104.625 324.721 107.496 L 324.721 110.367 315.949 110.367 L 307.177 110.367 307.177 113.250 L 307.177 116.133 304.386 116.041 L 301.595 115.949 301.503 113.163 L 301.411 110.377 292.731 110.292 L 284.051 110.207 283.959 107.429 L 283.867 104.650 281.088 104.558 L 278.309 104.466 278.222 98.644 L 278.136 92.823 275.272 92.823 L 272.408 92.823 272.408 78.313 L 272.408 63.804 283.971 63.720 L 295.534 63.636 295.694 60.766 L 295.853 57.895 304.386 57.810 L 312.919 57.725 312.919 54.856 L 312.919 51.987 327.512 52.070 L 342.105 52.153 342.197 54.932 M324.721 75.439 L 324.721 81.021 327.592 81.021 L 330.463 81.021 330.463 75.439 L 330.463 69.856 327.592 69.856 L 324.721 69.856 324.721 75.439 M370.973 78.469 L 370.973 81.340 373.831 81.340 L 376.690 81.340 376.782 84.131 L 376.874 86.922 379.665 87.014 L 382.456 87.106 382.456 92.835 L 382.456 98.565 385.489 98.565 L 388.522 98.565 388.440 115.869 L 388.357 133.174 379.665 133.259 L 370.973 133.344 370.973 130.468 L 370.973 127.592 359.490 127.592 L 348.006 127.592 348.006 124.721 L 348.006 121.850 356.619 121.850 L 365.231 121.850 365.231 118.979 L 365.231 116.108 368.102 116.108 L 370.973 116.108 370.973 98.737 L 370.973 81.365 368.182 81.272 L 365.391 81.180 365.299 78.389 L 365.206 75.598 368.090 75.598 L 370.973 75.598 370.973 78.469 M179.745 107.337 L 179.745 110.207 176.874 110.207 L 174.003 110.207 173.909 107.684 C 173.777 104.145,173.667 104.265,176.949 104.373 L 179.745 104.466 179.745 107.337 M341.946 118.820 L 341.946 121.531 339.234 121.531 L 336.523 121.531 336.523 118.820 L 336.523 116.108 339.234 116.108 L 341.946 116.108 341.946 118.820 M237.799 136.364 L 237.799 139.234 226.236 139.318 L 214.673 139.402 214.673 142.269 L 214.673 145.136 205.901 145.136 L 197.129 145.136 197.129 148.006 L 197.129 150.877 194.258 150.877 L 191.388 150.877 191.388 153.748 L 191.388 156.619 185.658 156.619 L 179.928 156.619 179.837 159.569 L 179.745 162.520 176.966 162.612 L 174.187 162.704 174.095 165.483 L 174.003 168.262 171.224 168.354 L 168.446 168.446 168.354 171.224 L 168.262 174.003 165.311 174.095 L 162.360 174.187 162.360 177.045 L 162.360 179.904 159.490 179.904 L 156.619 179.904 156.619 182.775 L 156.619 185.646 153.748 185.646 L 150.877 185.646 150.877 188.517 L 150.877 191.388 148.018 191.388 L 145.160 191.388 145.068 194.338 L 144.976 197.289 142.197 197.381 L 139.418 197.473 139.326 200.251 L 139.234 203.030 136.284 203.122 L 133.333 203.214 133.333 206.073 L 133.333 208.931 130.463 208.931 L 127.592 208.931 127.592 211.802 L 127.592 214.673 124.561 214.673 L 121.531 214.673 121.531 217.350 L 121.531 220.027 115.960 220.259 L 110.390 220.491 110.299 223.404 L 110.207 226.316 107.416 226.408 L 104.625 226.500 104.625 229.180 C 104.625 232.520,105.021 232.338,98.387 232.061 L 92.847 231.830 92.755 229.073 L 92.663 226.316 78.230 226.233 L 63.796 226.150 63.796 223.282 L 63.796 220.415 52.153 220.415 L 40.510 220.415 40.510 217.544 L 40.510 214.673 31.898 214.673 L 23.285 214.673 23.285 211.643 L 23.285 208.612 37.640 208.612 L 51.994 208.612 51.994 205.742 L 51.994 202.871 60.766 202.871 L 69.537 202.871 69.537 200.000 L 69.537 197.129 78.150 197.129 L 86.762 197.129 86.762 194.266 L 86.762 191.402 92.584 191.315 L 98.405 191.228 98.565 188.357 L 98.724 185.486 104.374 185.399 L 110.023 185.312 110.115 182.529 L 110.207 179.745 115.857 179.658 L 121.506 179.571 121.599 176.787 L 121.691 174.003 127.512 173.916 L 133.333 173.829 133.333 170.966 L 133.333 168.102 136.204 168.102 L 139.075 168.102 139.075 165.231 L 139.075 162.360 144.805 162.360 L 150.534 162.360 150.626 159.410 L 150.718 156.459 156.367 156.372 L 162.017 156.285 162.109 153.501 L 162.201 150.718 168.022 150.631 L 173.844 150.544 173.844 147.680 L 173.844 144.817 179.573 144.817 L 185.302 144.817 185.394 142.026 L 185.486 139.234 194.179 139.150 L 202.871 139.065 202.871 136.412 C 202.871 134.953,202.968 133.662,203.086 133.543 C 203.205 133.425,211.063 133.365,220.550 133.410 L 237.799 133.493 237.799 136.364 M255.183 142.137 L 255.183 145.200 260.925 144.967 L 266.667 144.735 266.667 147.610 L 266.667 150.485 272.408 150.718 L 278.150 150.951 278.150 153.625 L 278.150 156.300 281.260 156.379 C 282.970 156.422,286.882 156.482,289.952 156.512 C 293.022 156.542,296.862 156.661,298.485 156.775 L 301.435 156.983 301.435 159.512 L 301.435 162.041 304.306 162.041 L 307.177 162.041 307.177 159.381 L 307.177 156.721 315.667 156.515 C 325.649 156.272,324.721 155.965,324.721 159.508 L 324.721 162.360 327.592 162.360 L 330.463 162.360 330.463 165.231 L 330.463 168.102 327.604 168.102 L 324.745 168.102 324.653 171.053 L 324.561 174.003 321.770 174.095 L 318.979 174.188 318.979 177.046 L 318.979 179.904 316.108 179.904 L 313.238 179.904 313.238 185.634 L 313.238 191.364 310.287 191.455 L 307.337 191.547 307.245 194.300 L 307.153 197.053 301.595 197.284 L 296.037 197.516 295.945 200.273 L 295.853 203.030 292.903 203.122 L 289.952 203.214 289.952 206.073 L 289.952 208.931 284.223 208.931 L 278.494 208.931 278.402 211.722 L 278.309 214.514 272.568 214.673 L 266.826 214.833 266.734 217.624 L 266.642 220.415 263.783 220.415 L 260.925 220.415 260.925 223.297 L 260.925 226.180 257.974 226.089 L 255.024 225.997 254.932 223.206 L 254.840 220.415 252.153 220.415 L 249.467 220.415 249.374 223.206 L 249.282 225.997 246.411 225.997 L 243.541 225.997 243.541 223.285 L 243.541 220.574 246.320 220.482 L 249.099 220.390 249.191 217.452 L 249.282 214.514 252.061 214.422 L 254.840 214.330 254.932 211.551 L 255.024 208.772 257.803 208.680 L 260.582 208.588 260.674 205.809 L 260.766 203.030 263.716 202.939 L 266.667 202.847 266.667 194.259 L 266.667 185.671 269.458 185.579 L 272.249 185.486 272.249 176.874 L 272.249 168.262 269.465 168.170 L 266.681 168.077 266.594 162.428 L 266.507 156.778 263.716 156.686 L 260.925 156.594 260.925 153.736 L 260.925 150.877 258.054 150.877 L 255.183 150.877 255.183 148.006 L 255.183 145.136 252.153 145.136 L 249.123 145.136 249.123 142.105 L 249.123 139.075 252.153 139.075 L 255.183 139.075 255.183 142.137 M330.463 148.006 L 330.463 150.877 327.592 150.877 L 324.721 150.877 324.721 148.006 L 324.721 145.136 327.592 145.136 L 330.463 145.136 330.463 148.006 M69.537 177.033 L 69.537 179.904 66.667 179.904 L 63.796 179.904 63.796 177.033 L 63.796 174.163 66.667 174.163 L 69.537 174.163 69.537 177.033 M46.504 194.338 L 46.596 197.129 43.553 197.129 L 40.510 197.129 40.510 194.471 C 40.510 191.213,40.371 191.345,43.685 191.456 L 46.411 191.547 46.504 194.338 M197.018 243.870 C 197.121 244.139,197.101 246.723,196.974 249.612 L 196.742 254.864 194.288 254.864 C 191.178 254.864,191.069 254.980,191.069 258.278 L 191.069 260.925 185.327 260.925 L 179.585 260.925 179.585 266.654 L 179.585 272.383 176.794 272.476 L 174.003 272.568 173.911 275.518 L 173.820 278.469 170.961 278.469 L 168.102 278.469 168.102 281.338 L 168.102 284.207 142.026 284.288 L 115.949 284.370 115.857 287.161 L 115.765 289.952 110.035 289.952 L 104.306 289.952 104.306 287.081 L 104.306 284.211 101.435 284.211 L 98.565 284.211 98.565 281.340 L 98.565 278.469 95.694 278.469 L 92.823 278.469 92.823 275.598 L 92.823 272.727 89.952 272.727 L 87.081 272.727 87.081 269.672 L 87.081 266.617 92.743 266.721 L 98.405 266.826 98.497 263.876 L 98.589 260.925 115.949 260.925 L 133.308 260.925 133.401 258.134 L 133.493 255.343 136.284 255.251 L 139.075 255.159 139.075 258.042 L 139.075 260.925 141.934 260.925 L 144.793 260.925 144.884 263.876 L 144.976 266.826 147.847 266.826 L 150.718 266.826 150.805 261.005 L 150.892 255.183 156.619 255.183 L 162.346 255.183 162.433 261.005 L 162.520 266.826 165.231 266.826 L 167.943 266.826 168.102 263.955 L 168.262 261.085 173.923 260.997 L 179.585 260.910 179.585 258.219 L 179.585 255.527 176.794 255.435 L 174.003 255.343 174.003 252.313 L 174.003 249.282 179.585 249.282 C 182.656 249.282,186.567 249.246,188.278 249.203 L 191.388 249.123 191.388 246.465 C 191.388 245.003,191.483 243.711,191.600 243.594 C 192.073 243.121,196.823 243.363,197.018 243.870 " stroke="none" fill="#2b2b2b" fill-rule="evenodd"></path><path id="path2" d="M365.299 78.389 L 365.391 81.180 368.182 81.272 L 370.973 81.365 370.973 98.737 L 370.973 116.108 368.102 116.108 L 365.231 116.108 365.231 118.979 L 365.231 121.850 356.619 121.850 L 348.006 121.850 348.006 124.721 L 348.006 127.592 359.490 127.592 L 370.973 127.592 370.973 130.468 L 370.973 133.344 379.665 133.259 L 388.357 133.174 388.440 118.740 L 388.523 104.306 385.684 104.306 L 382.844 104.306 382.611 98.405 L 382.378 92.504 379.706 92.504 L 377.033 92.504 377.033 89.952 L 377.033 87.400 379.825 87.340 L 382.616 87.280 379.745 87.101 L 376.874 86.922 376.782 84.131 L 376.690 81.340 373.831 81.340 L 370.973 81.340 370.973 78.469 L 370.973 75.598 368.090 75.598 L 365.206 75.598 365.299 78.389 M336.523 118.820 L 336.523 121.531 339.234 121.531 L 341.946 121.531 341.946 118.820 L 341.946 116.108 339.234 116.108 L 336.523 116.108 336.523 118.820 M150.805 261.005 L 150.718 266.826 147.847 266.826 L 144.976 266.826 144.884 263.876 L 144.793 260.925 133.321 260.925 L 121.850 260.925 121.850 263.796 L 121.850 266.667 118.992 266.667 L 116.133 266.667 116.041 263.876 L 115.949 261.085 107.269 261.000 L 98.589 260.915 98.497 263.870 L 98.405 266.826 92.743 266.913 L 87.081 267.000 87.081 269.692 L 87.081 272.383 89.872 272.476 L 92.663 272.568 92.755 275.518 L 92.847 278.469 95.706 278.469 L 98.565 278.469 98.565 281.340 L 98.565 284.211 101.435 284.211 L 104.306 284.211 104.306 287.081 L 104.306 289.952 110.035 289.952 L 115.765 289.952 115.857 287.161 L 115.949 284.370 133.413 284.288 L 150.877 284.205 150.877 281.337 L 150.877 278.469 153.589 278.469 L 156.300 278.469 156.300 281.340 L 156.300 284.211 162.201 284.211 L 168.102 284.211 168.102 281.340 L 168.102 278.469 170.961 278.469 L 173.820 278.469 173.911 275.518 L 174.003 272.568 176.794 272.476 L 179.585 272.383 179.585 266.647 L 179.585 260.910 173.923 260.997 L 168.262 261.085 168.102 263.955 L 167.943 266.826 165.231 266.826 L 162.520 266.826 162.433 261.005 L 162.346 255.183 156.619 255.183 L 150.892 255.183 150.805 261.005 M140.431 266.984 L 144.817 266.986 144.817 269.646 L 144.817 272.306 136.479 272.508 C 126.701 272.745,127.592 273.024,127.592 269.731 C 127.592 266.397,127.355 266.553,132.057 266.786 C 134.250 266.894,138.018 266.984,140.431 266.984 M162.360 269.697 L 162.360 272.408 159.490 272.408 L 156.619 272.408 156.619 269.697 L 156.619 266.986 159.490 266.986 L 162.360 266.986 162.360 269.697 " stroke="none" fill="#f84e3c" fill-rule="evenodd"></path><path id="path3" d="M324.945 34.970 C 324.822 35.093,324.721 36.390,324.721 37.852 L 324.721 40.510 327.604 40.510 L 330.487 40.510 330.395 37.719 L 330.303 34.928 327.736 34.837 C 326.325 34.786,325.069 34.846,324.945 34.970 M312.919 54.856 L 312.919 57.725 304.386 57.815 L 295.853 57.906 304.545 57.980 L 313.238 58.054 313.238 55.183 L 313.238 52.313 327.592 52.313 L 341.946 52.313 341.946 55.183 L 341.946 58.054 344.805 58.054 L 347.663 58.054 347.775 61.005 L 347.887 63.955 347.867 60.925 L 347.847 57.895 345.068 57.803 L 342.289 57.711 342.197 54.932 L 342.105 52.153 327.512 52.070 L 312.919 51.987 312.919 54.856 M353.603 63.557 C 353.486 66.583,353.434 74.442,353.489 81.021 L 353.589 92.982 356.380 93.075 L 359.171 93.167 359.171 95.674 L 359.171 98.182 353.429 98.414 L 347.687 98.646 347.687 104.347 L 347.687 110.048 341.946 110.048 L 336.204 110.048 336.204 107.170 L 336.204 104.292 330.383 104.379 L 324.561 104.466 324.469 107.257 L 324.377 110.048 304.294 110.048 L 284.211 110.048 284.211 107.177 L 284.211 104.306 281.347 104.306 L 278.483 104.306 278.385 98.485 L 278.287 92.663 278.298 98.565 L 278.309 104.466 281.088 104.558 L 283.867 104.650 283.959 107.429 L 284.051 110.207 292.731 110.292 L 301.411 110.377 301.503 113.163 L 301.595 115.949 304.386 116.041 L 307.177 116.133 307.177 113.250 L 307.177 110.367 315.949 110.367 L 324.721 110.367 324.721 107.496 L 324.721 104.625 327.592 104.625 L 330.463 104.625 330.463 107.302 L 330.463 109.979 336.284 110.197 C 339.486 110.318,343.397 110.369,344.976 110.312 L 347.847 110.207 347.934 104.582 L 348.021 98.956 353.755 98.724 L 359.490 98.491 359.490 95.657 L 359.490 92.823 356.619 92.823 L 353.748 92.823 353.748 78.309 L 353.748 63.796 356.619 63.796 L 359.490 63.796 359.490 60.925 L 359.490 58.054 356.653 58.054 L 353.817 58.054 353.603 63.557 M272.555 78.309 C 272.555 86.380,272.597 89.635,272.647 85.544 C 272.698 81.453,272.698 74.850,272.647 70.871 C 272.597 66.892,272.555 70.239,272.555 78.309 M324.402 72.408 L 324.402 75.279 321.691 75.279 L 318.979 75.279 318.979 78.116 L 318.979 80.952 324.575 81.185 C 327.653 81.314,330.261 81.329,330.370 81.220 C 330.479 81.110,329.253 81.021,327.645 81.021 L 324.721 81.021 324.721 75.439 L 324.721 69.856 327.592 69.856 L 330.463 69.856 330.462 72.648 L 330.461 75.439 333.333 75.336 L 336.204 75.234 336.204 72.594 L 336.204 69.955 332.137 69.747 C 329.900 69.633,327.245 69.539,326.236 69.539 L 324.402 69.537 324.402 72.408 M301.754 72.568 L 301.754 75.279 304.466 75.279 L 307.177 75.279 307.177 72.568 L 307.177 69.856 304.466 69.856 L 301.754 69.856 301.754 72.568 M385.394 98.802 L 388.173 98.908 388.279 101.687 L 388.386 104.466 388.451 101.515 L 388.517 98.565 385.566 98.630 L 382.616 98.696 385.394 98.802 M173.984 104.721 C 173.891 104.962,173.857 106.296,173.909 107.684 L 174.003 110.207 176.874 110.207 L 179.745 110.207 179.745 107.337 L 179.745 104.466 176.949 104.373 C 174.803 104.303,174.113 104.383,173.984 104.721 M203.086 133.543 C 202.968 133.662,202.871 134.953,202.871 136.412 L 202.871 139.065 194.179 139.150 L 185.486 139.234 185.394 142.026 L 185.302 144.817 179.573 144.817 L 173.844 144.817 173.844 147.680 L 173.844 150.544 168.022 150.631 L 162.201 150.718 162.109 153.501 L 162.017 156.285 156.367 156.372 L 150.718 156.459 150.626 159.410 L 150.534 162.360 144.805 162.360 L 139.075 162.360 139.075 165.219 L 139.075 168.078 136.203 168.189 L 133.332 168.300 136.283 168.281 L 139.234 168.262 139.327 165.478 L 139.419 162.694 145.068 162.607 L 150.718 162.520 150.809 159.569 L 150.901 156.619 156.631 156.619 L 162.360 156.619 162.360 153.755 L 162.360 150.892 168.182 150.805 L 174.003 150.718 174.095 147.927 L 174.188 145.136 179.917 145.136 L 185.646 145.136 185.646 142.265 L 185.646 139.394 197.129 139.394 L 208.612 139.394 208.612 136.523 L 208.612 133.652 223.126 133.652 L 237.640 133.652 237.640 136.364 L 237.640 139.075 225.997 139.075 L 214.354 139.075 214.354 141.941 L 214.354 144.806 205.662 144.897 L 196.970 144.987 205.821 145.061 L 214.673 145.136 214.673 142.269 L 214.673 139.402 226.236 139.318 L 237.799 139.234 237.799 136.364 L 237.799 133.493 220.550 133.410 C 211.063 133.365,203.205 133.425,203.086 133.543 M249.123 142.105 L 249.123 145.136 252.153 145.136 L 255.183 145.136 255.183 148.006 L 255.183 150.877 258.054 150.877 L 260.925 150.877 260.925 153.725 L 260.925 156.574 263.797 156.676 L 266.668 156.778 266.667 153.828 L 266.667 150.877 269.537 150.877 L 272.408 150.877 272.408 153.748 L 272.408 156.619 278.389 156.552 C 281.710 156.515,282.987 156.439,281.260 156.381 L 278.150 156.277 278.150 153.626 L 278.150 150.976 273.844 150.770 C 271.475 150.656,267.600 150.656,265.231 150.770 L 260.925 150.976 260.925 148.068 L 260.925 145.160 263.716 145.037 C 265.251 144.969,263.959 144.978,260.845 145.057 L 255.183 145.200 255.183 142.137 L 255.183 139.075 252.153 139.075 L 249.123 139.075 249.123 142.105 M254.864 142.105 L 254.864 144.817 252.153 144.817 L 249.442 144.817 249.442 142.105 L 249.442 139.394 252.153 139.394 L 254.864 139.394 254.864 142.105 M324.721 148.006 L 324.721 150.877 327.592 150.877 L 330.463 150.877 330.463 148.006 L 330.463 145.136 327.592 145.136 L 324.721 145.136 324.721 148.006 M191.281 150.771 C 191.164 150.888,191.069 152.174,191.069 153.630 L 191.069 156.276 188.118 156.381 L 185.167 156.486 188.278 156.553 L 191.388 156.619 191.388 153.760 L 191.388 150.901 194.338 150.796 L 197.289 150.691 194.391 150.624 C 192.798 150.588,191.398 150.654,191.281 150.771 M292.504 156.588 L 295.534 156.778 295.626 159.526 L 295.717 162.273 301.048 162.498 C 307.847 162.784,307.496 162.941,307.496 159.627 L 307.496 156.963 310.287 156.856 L 313.078 156.750 310.128 156.684 L 307.177 156.619 307.177 159.330 L 307.177 162.041 304.306 162.041 L 301.435 162.041 301.435 159.512 L 301.435 156.983 298.485 156.798 C 296.862 156.696,294.171 156.565,292.504 156.506 L 289.474 156.398 292.504 156.588 M321.573 156.533 L 324.325 156.642 324.556 162.189 C 324.833 168.821,325.016 168.421,321.706 168.421 L 319.048 168.421 318.816 173.991 L 318.584 179.562 315.831 179.653 L 313.078 179.745 313.067 185.486 L 313.057 191.228 313.154 185.566 L 313.252 179.904 316.116 179.904 L 318.979 179.904 318.979 177.046 L 318.979 174.188 321.770 174.095 L 324.561 174.003 324.653 171.053 L 324.745 168.102 327.604 168.102 L 330.463 168.102 330.463 165.231 L 330.463 162.360 327.604 162.360 L 324.745 162.360 324.653 159.410 L 324.561 156.459 321.691 156.441 L 318.820 156.423 321.573 156.533 M179.650 159.410 L 179.585 162.360 176.715 162.360 L 173.844 162.360 173.844 165.231 L 173.844 168.102 170.973 168.102 L 168.102 168.102 168.102 170.961 L 168.102 173.820 165.230 173.930 L 162.359 174.041 165.310 174.022 L 168.262 174.003 168.354 171.224 L 168.446 168.446 171.224 168.354 L 174.003 168.262 174.095 165.470 L 174.188 162.679 176.896 162.679 C 180.080 162.679,179.971 162.811,179.824 159.144 L 179.715 156.459 179.650 159.410 M266.666 165.139 L 266.667 168.077 269.458 168.169 L 272.249 168.262 272.249 176.923 C 272.249 181.687,272.356 185.519,272.488 185.437 C 272.781 185.256,272.801 173.115,272.518 166.927 L 272.311 162.403 269.488 162.302 L 266.665 162.201 266.666 165.139 M121.744 174.056 C 121.627 174.173,121.531 175.462,121.531 176.920 L 121.531 179.571 115.869 179.658 L 110.207 179.745 110.115 182.536 L 110.023 185.327 104.472 185.327 C 101.419 185.327,98.854 185.435,98.773 185.566 C 98.691 185.698,101.267 185.763,104.496 185.712 L 110.367 185.619 110.367 182.761 L 110.367 179.904 116.108 179.904 L 121.850 179.904 121.850 177.041 L 121.850 174.177 127.671 174.082 L 133.493 173.988 127.725 173.916 C 124.552 173.876,121.861 173.939,121.744 174.056 M63.796 177.033 L 63.796 179.904 66.667 179.904 L 69.537 179.904 69.537 177.033 L 69.537 174.163 66.667 174.163 L 63.796 174.163 63.796 177.033 M156.436 180.011 C 156.346 180.245,156.321 181.644,156.381 183.121 L 156.489 185.805 156.554 182.867 L 156.619 179.928 159.569 179.823 L 162.520 179.718 159.559 179.652 C 157.338 179.602,156.558 179.692,156.436 180.011 M150.558 188.345 L 150.558 191.044 147.767 191.136 L 144.976 191.228 144.884 194.179 L 144.793 197.129 141.934 197.129 L 139.075 197.129 139.075 199.988 L 139.075 202.847 136.124 202.939 L 133.174 203.030 133.082 205.788 L 132.991 208.545 127.432 208.776 L 121.874 209.008 121.782 211.761 L 121.691 214.514 118.740 214.605 L 115.789 214.697 115.789 217.476 L 115.788 220.255 118.660 220.153 L 121.531 220.050 121.531 217.362 L 121.531 214.673 124.561 214.673 L 127.592 214.673 127.592 211.802 L 127.592 208.931 130.463 208.931 L 133.333 208.931 133.333 206.073 L 133.333 203.214 136.284 203.122 L 139.234 203.030 139.326 200.251 L 139.418 197.473 142.197 197.381 L 144.976 197.289 145.068 194.338 L 145.160 191.388 148.018 191.388 L 150.877 191.388 150.877 188.517 C 150.877 186.938,150.805 185.646,150.718 185.646 C 150.630 185.646,150.558 186.860,150.558 188.345 M40.734 191.589 C 40.611 191.712,40.510 193.009,40.510 194.471 L 40.510 197.129 43.553 197.129 L 46.596 197.129 46.504 194.338 L 46.411 191.547 43.685 191.456 C 42.186 191.406,40.858 191.465,40.734 191.589 M86.827 194.179 L 86.762 197.129 78.150 197.129 L 69.537 197.129 69.537 200.000 L 69.537 202.871 60.766 202.871 L 51.994 202.871 51.994 205.738 L 51.994 208.606 37.560 208.692 L 23.126 208.779 37.719 208.855 L 52.313 208.931 52.313 206.066 L 52.313 203.200 61.005 203.115 L 69.697 203.030 69.789 200.239 L 69.881 197.448 78.332 197.448 C 85.081 197.448,86.815 197.362,86.946 197.023 C 87.035 196.789,87.060 195.389,87.001 193.913 L 86.892 191.228 86.827 194.179 M295.694 199.988 L 295.694 202.847 292.743 202.939 L 289.793 203.030 289.701 205.814 L 289.609 208.598 283.959 208.685 L 278.309 208.772 278.217 211.563 L 278.125 214.354 272.574 214.354 C 269.521 214.354,266.956 214.462,266.875 214.593 C 266.793 214.725,269.332 214.761,272.518 214.673 L 278.309 214.514 278.402 211.722 L 278.494 208.931 284.223 208.931 L 289.952 208.931 289.952 206.073 L 289.952 203.214 292.903 203.122 L 295.853 203.030 295.945 200.251 L 296.037 197.473 298.816 197.367 L 301.595 197.260 298.644 197.195 L 295.694 197.129 295.694 199.988 M260.819 203.083 C 260.702 203.200,260.606 204.487,260.606 205.942 L 260.606 208.588 257.815 208.680 L 255.024 208.772 254.932 211.551 L 254.840 214.330 252.061 214.422 L 249.282 214.514 249.191 217.452 L 249.099 220.390 246.320 220.482 L 243.541 220.574 243.541 223.285 L 243.541 225.997 246.411 225.997 L 249.282 225.997 249.369 220.335 L 249.457 214.673 252.320 214.673 L 255.183 214.673 255.183 211.802 L 255.183 208.931 258.054 208.931 L 260.925 208.931 260.925 206.073 L 260.925 203.214 263.876 203.108 L 266.826 203.003 263.929 202.937 C 262.335 202.901,260.936 202.967,260.819 203.083 M31.898 214.591 L 40.510 214.683 40.510 217.549 L 40.510 220.415 52.073 220.339 L 63.636 220.264 52.245 220.176 L 40.854 220.088 40.762 217.301 L 40.670 214.514 31.978 214.506 L 23.285 214.498 31.898 214.591 M260.819 220.308 C 260.702 220.425,260.606 221.717,260.606 223.179 L 260.606 225.837 257.907 225.837 L 255.208 225.837 255.096 223.125 L 254.984 220.413 255.004 223.205 L 255.024 225.997 257.974 226.089 L 260.925 226.180 260.925 223.309 L 260.925 220.439 263.876 220.333 L 266.826 220.228 263.929 220.162 C 262.335 220.125,260.936 220.191,260.819 220.308 M110.113 223.206 L 110.048 226.156 107.177 226.156 L 104.306 226.156 104.306 229.016 L 104.306 231.875 101.275 231.984 L 98.244 232.094 101.355 232.076 L 104.466 232.057 104.558 229.266 L 104.650 226.475 107.359 226.475 C 110.543 226.475,110.434 226.607,110.286 222.940 L 110.178 220.255 110.113 223.206 M191.600 243.594 C 191.483 243.711,191.388 245.003,191.388 246.465 L 191.388 249.123 188.278 249.184 L 185.167 249.245 188.198 249.423 L 191.228 249.601 191.228 252.313 L 191.228 255.024 188.357 255.183 L 185.486 255.343 185.394 258.134 L 185.302 260.925 188.185 260.925 L 191.069 260.925 191.069 258.278 C 191.069 254.980,191.178 254.864,194.288 254.864 L 196.742 254.864 196.974 249.612 C 197.101 246.723,197.121 244.139,197.018 243.870 C 196.823 243.363,192.073 243.121,191.600 243.594 M173.979 249.548 C 173.890 249.782,173.858 251.182,173.910 252.658 L 174.003 255.343 176.782 255.435 L 179.561 255.527 179.667 258.306 L 179.773 261.085 179.839 258.134 L 179.904 255.183 177.033 255.183 L 174.163 255.183 174.163 252.325 L 174.163 249.466 177.113 249.360 L 180.064 249.255 177.103 249.189 C 174.882 249.139,174.102 249.229,173.979 249.548 M133.546 255.396 C 133.429 255.513,133.333 256.805,133.333 258.267 L 133.333 260.925 136.204 260.925 L 139.075 260.925 139.075 258.054 L 139.075 255.183 136.417 255.183 C 134.955 255.183,133.663 255.279,133.546 255.396 M117.315 261.161 C 118.242 261.225,119.678 261.225,120.505 261.159 C 121.333 261.094,120.574 261.041,118.820 261.042 C 117.065 261.042,116.388 261.096,117.315 261.161 M88.447 266.902 C 89.285 266.967,90.577 266.967,91.317 266.900 C 92.058 266.833,91.372 266.779,89.793 266.780 C 88.214 266.781,87.608 266.836,88.447 266.902 M88.447 272.643 C 89.285 272.709,90.577 272.708,91.317 272.641 C 92.058 272.574,91.372 272.521,89.793 272.522 C 88.214 272.522,87.608 272.577,88.447 272.643 M152.242 284.126 C 153.081 284.192,154.373 284.192,155.113 284.125 C 155.854 284.058,155.167 284.004,153.589 284.005 C 152.010 284.006,151.404 284.060,152.242 284.126 " stroke="none" fill="#8c8c8c" fill-rule="evenodd"></path><path id="path4" d="M377.033 89.952 L 377.033 92.504 379.745 92.504 L 382.456 92.504 382.456 89.952 L 382.456 87.400 379.745 87.400 L 377.033 87.400 377.033 89.952 M336.417 98.777 C 336.300 98.894,336.204 101.478,336.204 104.519 L 336.204 110.048 341.946 110.048 L 347.687 110.048 347.687 104.306 L 347.687 98.565 342.158 98.565 C 339.117 98.565,336.534 98.660,336.417 98.777 M121.644 263.955 C 121.643 265.534,121.697 266.220,121.764 265.480 C 121.831 264.740,121.832 263.448,121.766 262.609 C 121.700 261.771,121.645 262.376,121.644 263.955 M129.276 266.902 C 130.115 266.967,131.406 266.967,132.147 266.900 C 132.887 266.833,132.201 266.779,130.622 266.780 C 129.043 266.781,128.437 266.836,129.276 266.902 M129.276 272.643 C 130.115 272.709,131.406 272.708,132.147 272.641 C 132.887 272.574,132.201 272.521,130.622 272.522 C 129.043 272.522,128.437 272.577,129.276 272.643 M152.242 278.704 C 153.081 278.770,154.373 278.769,155.113 278.702 C 155.854 278.635,155.167 278.581,153.589 278.582 C 152.010 278.583,151.404 278.638,152.242 278.704 " stroke="none" fill="#f8b028" fill-rule="evenodd"></path></g></svg>