<svg width="200" height="32" xmlns="http://www.w3.org/2000/svg" xmlns:xlink="http://www.w3.org/1999/xlink"><defs><path id="a" d="M.318.025H12.3V11H.318z"/></defs><g fill="none" fill-rule="evenodd"><path d="M38.25 7.423c0-2.182 0-2.579-.032-3.024-.034-.478-.115-.708-.596-.779a5.117 5.117 0 0 0-.497-.033c-.048 0-.116-.062-.116-.113 0-.082.068-.115.234-.115.66 0 1.568.033 1.652.033.28 0 3.433.013 3.765 0 .281-.019.53-.019.66-.068.083-.016.152-.083.2-.083.067 0 .096.067.096.132 0 .101-.063.267-.113.662-.019.134-.03.763-.066.926-.019.066-.066.146-.132.146-.067 0-.116-.06-.116-.162 0-.115-.05-.348-.13-.528-.086-.182-.43-.414-.992-.414L39.69 3.97c-.083 0-.117.033-.117.147V7.95c0 .084 0 .135.1.135l1.982-.016c.247 0 .46 0 .66-.018.346-.032.544-.086.676-.25.068-.08.135-.149.182-.149.066 0 .084.052.084.118 0 .084-.102.315-.13.774-.038.283-.053.846-.053.942 0 .131-.032.28-.132.28-.083 0-.099-.06-.099-.13-.015-.15-.032-.346-.097-.514-.068-.198-.3-.38-.746-.445-.36-.048-2.08-.032-2.327-.032-.083 0-.1.032-.1.134v1.122c0 1.387 0 2.494.066 3.04.051.411.131.677.53.74.213.032.528.07.658.07.085 0 .115.067.115.113 0 .068-.066.117-.229.117-.809 0-1.75-.049-1.817-.049-.084 0-.992.05-1.438.05-.148 0-.23-.037-.23-.118 0-.046.031-.114.113-.114.135 0 .315-.052.445-.07.282-.048.318-.328.383-.74.082-.579.082-1.686.082-3.039V7.423zM48.757 8.612c0 .082.033.13.099.184.214.113.956.212 1.603.212.346 0 .743-.012 1.088-.248.497-.329.878-1.072.878-2.149 0-1.749-.96-2.755-2.514-2.755-.427 0-.89.048-1.04.077-.063.037-.114.085-.114.166v4.513zm-1.254-1.189c0-2.182 0-2.578-.033-3.024-.035-.479-.114-.708-.597-.779a5.14 5.14 0 0 0-.495-.033c-.05 0-.116-.062-.116-.113 0-.08.066-.115.23-.115.663 0 1.638.034 1.719.034.148 0 1.373-.034 1.819-.034.925 0 1.947.081 2.706.611.364.265 1.009.94 1.009 1.917 0 1.04-.431 2.046-1.783 3.202 1.19 1.486 2.197 2.76 3.04 3.635.775.793 1.254.924 1.617.974.284.052.433.052.514.052.08 0 .13.068.13.114 0 .082-.081.116-.345.116h-.907c-.828 0-1.192-.08-1.554-.282-.627-.33-1.158-1.008-1.986-2.063-.608-.76-1.255-1.668-1.568-2.047-.066-.067-.098-.086-.197-.086l-1.85-.03c-.066 0-.1.03-.1.116v.328c0 1.358 0 2.446.068 3.024.048.412.132.678.576.74.2.033.51.07.646.07.1 0 .118.068.118.114 0 .068-.068.116-.234.116-.794 0-1.72-.048-1.782-.048-.018 0-.993.048-1.436.048-.152 0-.234-.034-.234-.116 0-.046.03-.114.114-.114.134 0 .314-.037.445-.07.283-.062.319-.328.383-.74.083-.578.083-1.686.083-3.038V7.423zM65.788 1.146c.083.15 0 .198-.065.198-.049 0-.214-.034-.497 0-.81.083-1.963.461-2.512.693a.97.97 0 0 1-.246.081c-.032 0-.083-.032-.083-.096 0-.052.034-.084.118-.132.59-.416 2.13-1.339 2.244-1.406.283-.167.38-.216.462-.216.05 0 .083.035.166.152.116.163.23.395.413.726M63.59 13.584c1.307 0 3.935-.694 3.935-4.756 0-3.37-2.05-5.137-4.345-5.137-2.43 0-4.18 1.518-4.18 4.574 0 3.268 1.963 5.32 4.59 5.32M63.263 3.16c3.27 0 5.747 2.001 5.747 5.271 0 3.136-2.33 5.731-5.83 5.731-3.983 0-5.684-2.99-5.684-5.515 0-2.266 1.75-5.487 5.767-5.487M73.969 9.651c0 1.19 0 2.115.015 2.348.016.347.05.855.164 1.005.183.265.694.563 2.412.563 1.34 0 2.56-.46 3.42-1.288.76-.71 1.125-2.03 1.125-3.32 0-1.785-.76-2.907-1.355-3.502-1.372-1.39-2.99-1.57-4.741-1.57-.33 0-.775.034-.861.096-.131.052-.18.117-.18.288V8.33h2.939c.1 0 .136.053.1.151l-.05.316c-.018.097-.115.113-.197.113h-2.791v.742zm-1.324-2.229c0-2.18 0-2.578-.031-3.023-.035-.478-.117-.709-.594-.779a5.233 5.233 0 0 0-.497-.032c-.05 0-.117-.064-.117-.114 0-.082.068-.116.23-.116.662 0 1.572.034 1.654.034.167 0 1.123-.034 1.98-.034 1.454 0 4.116-.132 5.835 1.604.727.726 1.42 1.9 1.42 3.567 0 1.768-.762 3.123-1.57 3.948-.627.644-1.932 1.618-4.41 1.618-.63 0-1.405-.048-2.05-.08a32.092 32.092 0 0 0-1.205-.082c-.032 0-.281.013-.578.013-.3.016-.626.034-.86.034-.15 0-.228-.034-.228-.115 0-.047.03-.115.115-.115.132 0 .313-.037.443-.069.285-.064.315-.329.382-.74.08-.58.08-1.687.08-3.039V8.893h-1.253c-.117 0-.117-.048-.1-.152l.05-.277c.017-.099.065-.119.182-.119h1.122v-.923zM85.416 13.787c-.195-.105-.212-.153-.212-.533 0-.695.06-1.256.08-1.487 0-.15.034-.233.117-.233.08 0 .134.053.134.164 0 .119 0 .318.046.515.23 1.024 1.323 1.389 2.298 1.389 1.434 0 2.178-.81 2.178-1.868 0-1.008-.545-1.486-1.833-2.443l-.66-.495c-1.57-1.175-2.083-2.035-2.083-3.01 0-1.653 1.307-2.642 3.223-2.642.578 0 1.157.083 1.503.165.28.065.395.065.513.065.115 0 .148.019.148.1 0 .065-.065.529-.065 1.489 0 .21-.02.313-.116.313-.102 0-.117-.067-.133-.182a2.59 2.59 0 0 0-.215-.695c-.097-.165-.578-.691-1.882-.691-1.057 0-1.936.526-1.936 1.518 0 .89.449 1.402 1.888 2.38l.409.28c1.767 1.204 2.38 2.18 2.38 3.389 0 .823-.313 1.715-1.356 2.39-.61.397-1.52.496-2.311.496-.68 0-1.52-.1-2.115-.374M94.914 7.423c0-2.182 0-2.579-.033-3.024-.032-.478-.114-.708-.595-.779a5.119 5.119 0 0 0-.493-.033c-.052 0-.116-.062-.116-.113 0-.082.064-.115.233-.115.658 0 1.551.033 1.633.033.131 0 1.007-.033 1.438-.033.162 0 .228.033.228.115 0 .051-.048.113-.114.113-.098 0-.18 0-.363.033-.38.087-.479.283-.51.78-.036.444-.036.841-.036 3.023v.842h.067c.234-.263 2.825-2.823 3.371-3.384.414-.418.793-.782.793-1.012 0-.178-.066-.264-.184-.282-.082-.015-.13-.08-.13-.132 0-.063.064-.096.165-.096.296 0 .745.033 1.091.033.081 0 1.038-.033 1.402-.033.148 0 .218.033.218.096 0 .07-.035.117-.155.117-.21 0-.523.087-.806.195-.596.268-.876.583-1.519 1.194-.364.331-2.84 2.708-3.156 3.058.38.412 3.402 3.434 3.997 3.98 1.222 1.09 1.388 1.27 2.084 1.551.38.148.792.2.89.2.101 0 .183.05.183.114 0 .068-.067.117-.314.117h-.745c-.41 0-.677 0-1.007-.036-.762-.062-1.139-.379-1.767-.856-.662-.514-3.717-3.733-4.41-4.56h-.068v1.372c0 1.353 0 2.46.067 3.04.05.411.116.677.564.74.196.032.427.07.56.07.08 0 .118.067.118.113 0 .068-.069.117-.233.117-.712 0-1.588-.049-1.702-.049-.118 0-.992.05-1.437.05-.148 0-.234-.037-.234-.118 0-.046.033-.114.116-.114.133 0 .318-.037.446-.07.283-.062.316-.328.38-.74.083-.579.083-1.686.083-3.039V7.423z" fill="#000" opacity=".8"/><path d="M111.22 9.485c.067 0 .067-.032.048-.095l-1.437-3.85c-.08-.214-.163-.214-.245 0l-1.357 3.85c-.015.063 0 .095.051.095h2.94zm-1.616-5.844c.18-.466.246-.55.344-.55.148 0 .197.201.348.516.263.593 2.593 6.394 3.486 8.52.528 1.26.923 1.438 1.24 1.54.211.066.425.083.576.083.084 0 .183.037.183.115 0 .08-.165.116-.334.116-.214 0-1.288 0-2.294-.036-.282-.012-.514-.012-.514-.097 0-.06.035-.06.102-.098.081-.036.23-.147.13-.38l-1.304-3.223c-.033-.063-.05-.08-.13-.08h-3.354c-.066 0-.118.03-.152.113l-.823 2.247c-.132.345-.215.694-.215.942 0 .28.247.381.496.381h.131c.115 0 .148.05.148.115 0 .08-.082.116-.215.116-.345 0-1.142-.048-1.305-.048-.145 0-.876.048-1.469.048-.182 0-.28-.036-.28-.116 0-.065.064-.115.13-.115.1 0 .316-.017.43-.036.66-.08.943-.577 1.223-1.287l3.422-8.786zM118.043 7.423c0-2.182 0-2.579-.032-3.024-.032-.478-.115-.708-.596-.779a5.012 5.012 0 0 0-.493-.033c-.05 0-.115-.062-.115-.113 0-.082.065-.115.228-.115.662 0 1.57.033 1.686.033.315 0 1.405-.033 2.066-.033 1.865 0 2.527.574 2.776.792.329.3.727.926.727 1.685 0 2.018-1.521 3.354-3.75 3.354-.082 0-.332 0-.414-.019-.066 0-.148-.066-.148-.133 0-.114.082-.146.38-.146 1.567 0 2.69-.99 2.69-2.266 0-.46-.047-1.368-.823-2.128-.761-.758-1.636-.675-1.965-.675-.25 0-.663.062-.811.098-.082.012-.116.114-.116.265v5.715c0 1.353 0 2.46.066 3.04.05.411.13.677.579.74.197.032.512.07.642.07.084 0 .118.067.118.113 0 .068-.068.117-.234.117-.792 0-1.75-.049-1.816-.049-.048 0-.991.05-1.436.05-.15 0-.233-.037-.233-.118 0-.046.036-.114.117-.114.133 0 .314-.037.447-.07.28-.062.313-.328.378-.74.082-.579.082-1.686.082-3.039V7.423zM131.245 9.485c.061 0 .061-.032.047-.095l-1.435-3.85c-.085-.214-.167-.214-.251 0l-1.351 3.85c-.017.063 0 .095.048.095h2.942zm-1.621-5.844c.181-.466.248-.55.347-.55.15 0 .2.201.347.516.264.593 2.593 6.394 3.486 8.52.526 1.26.924 1.438 1.238 1.54.213.066.43.083.58.083.08 0 .18.037.18.115 0 .08-.162.116-.33.116-.218 0-1.287 0-2.297-.036-.28-.012-.512-.012-.512-.097 0-.06.032-.06.1-.098.083-.036.231-.147.131-.38l-1.303-3.223c-.035-.063-.052-.08-.133-.08h-3.353c-.067 0-.116.03-.151.113l-.825 2.247c-.132.345-.213.694-.213.942 0 .28.248.381.496.381h.13c.115 0 .15.05.15.115 0 .08-.083.116-.216.116-.347 0-1.14-.048-1.305-.048-.149 0-.874.048-1.47.048-.18 0-.278-.036-.278-.116 0-.065.066-.115.13-.115.099 0 .314-.017.428-.036.662-.08.944-.577 1.224-1.287l3.419-8.786zM139.387 8.612c0 .082.035.13.102.184.214.113.957.212 1.6.212.35 0 .744-.012 1.091-.248.495-.329.875-1.072.875-2.149 0-1.749-.958-2.755-2.51-2.755-.43 0-.89.048-1.044.077-.062.037-.114.085-.114.166v4.513zm-1.252-1.189c0-2.182 0-2.578-.035-3.024-.035-.479-.116-.708-.596-.779a5.075 5.075 0 0 0-.494-.033c-.052 0-.117-.062-.117-.113 0-.08.065-.115.234-.115.66 0 1.633.034 1.716.034.148 0 1.37-.034 1.816-.034.927 0 1.948.081 2.707.611.365.265 1.012.94 1.012 1.917 0 1.04-.429 2.046-1.783 3.202 1.187 1.486 2.194 2.76 3.038 3.635.775.793 1.254.924 1.617.974.283.052.431.052.515.052.08 0 .13.068.13.114 0 .082-.082.116-.346.116h-.91c-.825 0-1.189-.08-1.554-.282-.625-.33-1.155-1.008-1.983-2.063-.608-.76-1.253-1.668-1.566-2.047-.066-.067-.098-.086-.198-.086l-1.849-.03c-.067 0-.102.03-.102.116v.328c0 1.358 0 2.446.065 3.024.05.412.133.678.581.74.2.033.511.07.644.07.1 0 .115.068.115.114 0 .068-.066.116-.229.116-.796 0-1.72-.048-1.787-.048-.016 0-.99.048-1.435.048-.15 0-.233-.034-.233-.116 0-.046.034-.114.114-.114.134 0 .316-.037.45-.07.278-.062.312-.328.378-.74.085-.578.085-1.686.085-3.038V7.423zM148.492 13.787c-.199-.105-.215-.153-.215-.533 0-.695.067-1.256.084-1.487 0-.15.031-.233.113-.233.084 0 .132.053.132.164 0 .119 0 .318.052.515.227 1.024 1.319 1.389 2.296 1.389 1.436 0 2.181-.81 2.181-1.868 0-1.008-.548-1.486-1.835-2.443l-.661-.495c-1.567-1.175-2.081-2.035-2.081-3.01 0-1.653 1.305-2.642 3.22-2.642.58 0 1.157.083 1.502.165.282.065.399.065.515.065.115 0 .147.019.147.1 0 .065-.067.529-.067 1.489 0 .21-.013.313-.113.313-.101 0-.117-.067-.134-.182a2.698 2.698 0 0 0-.213-.695c-.1-.165-.579-.691-1.884-.691-1.06 0-1.933.526-1.933 1.518 0 .89.446 1.402 1.883 2.38l.41.28c1.77 1.204 2.381 2.18 2.381 3.389 0 .823-.313 1.715-1.354 2.39-.611.397-1.52.496-2.314.496-.676 0-1.516-.1-2.112-.374M157.791 7.423c0-2.182 0-2.579-.034-3.024-.03-.478-.113-.708-.594-.779a5.119 5.119 0 0 0-.493-.033c-.05 0-.115-.062-.115-.113 0-.082.065-.115.227-.115.662 0 1.606.033 1.687.033.1 0 3.14.013 3.47 0 .28-.019.545-.068.658-.084.067-.017.135-.067.2-.067.05 0 .065.067.065.132 0 .101-.08.267-.115.662-.015.134-.047.763-.083.926-.014.066-.067.146-.133.146-.08 0-.114-.06-.114-.18 0-.097-.017-.33-.083-.493-.098-.234-.248-.335-1.042-.43-.247-.034-1.929-.052-2.098-.052-.064 0-.079.051-.079.147v3.818c0 .102 0 .152.08.152.184 0 2.097 0 2.43-.035.347-.032.562-.048.71-.198.1-.1.164-.184.213-.184.05 0 .085.036.085.118 0 .084-.085.315-.116.774-.033.283-.067.812-.067.91 0 .114-.033.264-.13.264-.067 0-.1-.049-.1-.13 0-.135 0-.284-.068-.466-.049-.198-.18-.362-.742-.428-.396-.049-1.95-.065-2.197-.065-.083 0-.098.048-.098.097v1.175c0 .478-.018 2.114 0 2.394.032.942.294 1.125 1.73 1.125.384 0 1.077 0 1.457-.15.38-.164.577-.416.663-.975.03-.166.066-.216.147-.216.082 0 .097.116.097.216 0 .1-.115 1.057-.197 1.354-.098.365-.248.365-.807.365-1.093 0-1.935-.033-2.53-.05-.612-.032-.992-.032-1.206-.032-.033 0-.314 0-.628.013-.279.018-.61.036-.842.036-.149 0-.233-.036-.233-.117 0-.046.034-.114.117-.114.134 0 .316-.052.447-.07.278-.048.314-.328.38-.74.081-.579.081-1.686.081-3.039V7.423zM170.412 9.902c0 1.353 0 2.459.065 3.039.053.412.12.677.564.74.2.033.528.07.663.07.097 0 .114.068.114.114 0 .068-.066.115-.232.115-.791 0-1.716-.047-1.801-.047-.066 0-1.075.047-1.502.047-.165 0-.234-.034-.234-.115 0-.046.035-.101.12-.101.128 0 .296-.03.428-.065.295-.066.378-.346.428-.758.069-.58.069-1.686.069-3.04V4.005l-2.102.033c-.907.013-1.253.115-1.467.446-.168.246-.183.348-.233.445-.033.12-.081.134-.147.134a.11.11 0 0 1-.101-.116c0-.148.298-1.407.313-1.522.033-.084.1-.264.15-.264.1 0 .247.118.644.163.413.05.974.07 1.139.07h5.485c.479 0 .81-.033 1.043-.07.212-.032.345-.062.41-.062.066 0 .066.079.066.163 0 .433-.048 1.439-.048 1.604 0 .113-.065.18-.133.18-.066 0-.099-.048-.115-.246l-.018-.148c-.048-.43-.362-.747-1.749-.777l-1.819-.033v5.898zM176.99 7.423c0-2.182 0-2.579-.033-3.024-.035-.447-.118-.708-.596-.779a5.118 5.118 0 0 0-.496-.033c-.048 0-.116-.062-.116-.113 0-.082.068-.115.233-.115.66 0 1.533.033 1.667.033.133 0 1.042-.033 1.47-.033.166 0 .249.033.249.115 0 .051-.067.113-.133.113-.1 0-.181 0-.363.033-.38.071-.463.313-.495.78-.033.444-.033.841-.033 3.023V9.39c0 2.031.447 2.87 1.074 3.436.71.64 1.335.758 2.163.758.892 0 1.752-.398 2.248-.99.676-.809.826-1.968.826-3.404V7.423c0-2.182-.02-2.579-.034-3.024-.017-.447-.1-.708-.58-.779a5.096 5.096 0 0 0-.496-.033c-.064 0-.113-.062-.113-.113 0-.082.066-.115.227-.115.646 0 1.488.033 1.572.033.099 0 .795-.033 1.226-.033.162 0 .229.033.229.115 0 .051-.05.113-.117.113-.1 0-.18 0-.362.033-.395.087-.48.313-.512.78-.035.444-.017.841-.017 3.023v1.501c0 1.521-.201 3.221-1.355 4.215-1.057.908-2.182 1.021-3.038 1.021-.48 0-2-.032-3.025-.992-.711-.658-1.27-1.635-1.27-3.682V7.423zM191.494 8.612c0 .082.03.13.099.184.214.113.958.212 1.602.212.347 0 .744-.012 1.09-.248.496-.329.876-1.072.876-2.149 0-1.749-.958-2.755-2.51-2.755-.43 0-.894.048-1.044.077-.063.037-.113.085-.113.166v4.513zm-1.255-1.189c0-2.182 0-2.578-.032-3.024-.034-.479-.12-.708-.597-.779a5.14 5.14 0 0 0-.496-.033c-.05 0-.114-.062-.114-.113 0-.08.065-.115.232-.115.657 0 1.633.034 1.716.034.148 0 1.373-.034 1.819-.034.922 0 1.947.081 2.707.611.365.265 1.01.94 1.01 1.917 0 1.04-.433 2.046-1.787 3.202 1.191 1.486 2.196 2.76 3.04 3.635.778.793 1.255.924 1.619.974.282.052.433.052.513.052.083 0 .13.068.13.114 0 .082-.082.116-.346.116h-.907c-.825 0-1.192-.08-1.553-.282-.627-.33-1.159-1.008-1.983-2.063-.614-.76-1.258-1.668-1.57-2.047-.065-.067-.098-.086-.196-.086l-1.851-.03c-.07 0-.1.03-.1.116v.328c0 1.358 0 2.446.066 3.024.048.412.133.678.578.74.2.033.513.07.644.07.1 0 .114.068.114.114 0 .068-.067.116-.228.116-.796 0-1.719-.048-1.784-.048-.018 0-.994.048-1.438.048-.145 0-.23-.034-.23-.116 0-.046.03-.114.114-.114.133 0 .314-.037.445-.07.281-.062.314-.328.38-.74.085-.578.085-1.686.085-3.038V7.423zM38.25 21.712c0-2.177 0-2.575-.032-3.02-.034-.479-.115-.709-.596-.777a5.85 5.85 0 0 0-.497-.032c-.048 0-.116-.064-.116-.116 0-.084.068-.114.234-.114.66 0 1.568.03 1.652.03.28 0 3.433.017 3.765 0 .281-.012.53-.012.66-.064.083-.015.152-.084.2-.084.067 0 .096.069.096.136 0 .096-.063.262-.113.657-.019.133-.03.758-.066.924-.019.069-.066.152-.132.152-.067 0-.116-.067-.116-.169 0-.113-.05-.346-.13-.53-.086-.18-.43-.413-.992-.413l-2.378-.03c-.083 0-.117.03-.117.148v3.834c0 .08 0 .134.1.134l1.982-.02c.247 0 .46 0 .66-.017.346-.036.544-.082.676-.248.068-.08.135-.145.182-.145.066 0 .084.047.084.113 0 .081-.102.317-.13.78a10.64 10.64 0 0 0-.053.941c0 .133-.032.28-.132.28-.083 0-.099-.067-.099-.133-.015-.146-.032-.345-.097-.51-.068-.198-.3-.384-.746-.445-.36-.052-2.08-.035-2.327-.035-.083 0-.1.035-.1.13v1.123c0 1.39 0 2.495.066 3.038.051.418.131.68.53.748.213.034.528.063.658.063.085 0 .115.067.115.114 0 .066-.066.12-.229.12-.809 0-1.75-.053-1.817-.053-.084 0-.992.052-1.438.052-.148 0-.23-.033-.23-.119 0-.047.031-.114.113-.114.135 0 .315-.049.445-.063.282-.05.318-.33.383-.748.082-.576.082-1.681.082-3.038v-2.48zM48.757 26.49c.842.923 1.93 1.384 3.24 1.384 1.334 0 3.93-.724 3.93-4.756 0-1.337-.298-2.41-.827-3.234l-6.343 6.605zm5.931-7.118c-.826-.945-1.953-1.389-3.123-1.389-2.41 0-4.163 1.535-4.163 4.573 0 1.39.33 2.544.958 3.454l6.328-6.638zm-7.977 9.247c-.035.05-.084.05-.152 0l-.326-.28c-.069-.065-.086-.099-.038-.149l1.275-1.302c-1.075-1.059-1.556-2.582-1.556-3.952 0-2.262 1.736-5.478 5.75-5.478 1.587 0 2.792.406 3.766 1.15l1.206-1.287c.05-.069.117-.069.216.032l.281.283c.081.08.064.115 0 .181l-1.172 1.206c.906.906 1.466 2.15 1.466 3.698 0 3.138-2.31 5.734-5.81 5.734-1.556 0-2.777-.444-3.654-1.158l-1.252 1.322zM61.923 22.904c0 .085.034.132.1.18.213.117.959.217 1.602.217.348 0 .744-.02 1.09-.25.495-.33.877-1.07.877-2.144 0-1.753-.96-2.761-2.51-2.761-.431 0-.896.05-1.042.085-.064.03-.117.079-.117.163v4.51zm-1.253-1.191c0-2.178 0-2.576-.034-3.021-.033-.478-.118-.708-.595-.777a5.831 5.831 0 0 0-.494-.032c-.051 0-.118-.064-.118-.117 0-.083.067-.113.233-.113.658 0 1.635.03 1.717.03.149 0 1.37-.03 1.817-.03.926 0 1.949.08 2.709.609.366.264 1.007.942 1.007 1.918 0 1.038-.43 2.047-1.784 3.204 1.187 1.485 2.197 2.759 3.04 3.636.776.79 1.255.924 1.617.972.282.049.433.049.515.049.08 0 .132.067.132.115 0 .086-.082.119-.347.119h-.91c-.826 0-1.19-.085-1.554-.283-.627-.33-1.155-1.007-1.981-2.066-.611-.758-1.255-1.67-1.568-2.047-.066-.068-.1-.083-.198-.083l-1.851-.034c-.066 0-.1.034-.1.117v.33c0 1.355 0 2.445.065 3.02.052.417.135.682.579.748.2.034.515.064.645.064.097 0 .114.067.114.115 0 .066-.064.119-.232.119-.793 0-1.715-.053-1.78-.053-.017 0-.994.053-1.438.053-.15 0-.232-.033-.232-.12 0-.047.034-.114.116-.114.132 0 .314-.03.447-.064.279-.066.31-.331.377-.748.086-.575.086-1.681.086-3.037v-2.48zM75.899 27.874c1.306 0 3.932-.69 3.932-4.756 0-3.372-2.047-5.135-4.346-5.135-2.426 0-4.177 1.518-4.177 4.574 0 3.273 1.966 5.317 4.59 5.317m-.33-10.417c3.272 0 5.75 1.994 5.75 5.264 0 3.138-2.33 5.735-5.833 5.735-3.98 0-5.68-2.99-5.68-5.518 0-2.262 1.75-5.48 5.764-5.48M86.208 24.622c0-.757-.097-1.04-.314-1.438-.115-.21-2.08-3.334-2.577-4.08-.345-.526-.693-.844-.956-1.024a1.417 1.417 0 0 0-.612-.198c-.084 0-.147-.065-.147-.132 0-.066.046-.098.175-.098.284 0 1.376.032 1.442.032.098 0 .694-.032 1.255-.032.166 0 .2.032.2.098 0 .05-.1.101-.232.153-.117.043-.183.111-.183.226 0 .2.101.363.198.548l2.645 4.377c.296-.596 2.114-3.603 2.376-4.064.182-.313.251-.548.251-.73 0-.194-.069-.314-.234-.357-.13-.038-.213-.103-.213-.168 0-.05.082-.083.23-.083.38 0 .893.032 1.007.032.1 0 1.141-.032 1.421-.032.1 0 .18.032.18.083 0 .065-.065.147-.18.147-.165 0-.447.05-.677.184-.282.167-.414.314-.725.688-.48.565-2.529 3.871-2.827 4.467-.247.491-.18.938-.18 1.401v1.207c0 .231 0 .826.05 1.4.033.418.13.68.56.747.2.035.527.063.661.063.084 0 .118.07.118.118 0 .065-.086.117-.234.117-.809 0-1.75-.052-1.834-.052-.064 0-.992.052-1.419.052-.167 0-.232-.034-.232-.117 0-.049.032-.118.115-.118.134 0 .3-.028.43-.063.298-.067.398-.329.43-.747.032-.574.032-1.169.032-1.4v-1.207zM97.857 23.782c.064 0 .064-.034.049-.102l-1.438-3.844c-.084-.218-.165-.218-.246 0l-1.358 3.844c-.017.068 0 .102.05.102h2.943zm-1.622-5.85c.185-.464.25-.543.349-.543.148 0 .199.198.346.513.266.588 2.594 6.387 3.488 8.524.525 1.253.922 1.433 1.234 1.533.218.065.432.08.582.08.08 0 .18.035.18.118 0 .085-.166.118-.33.118-.214 0-1.287 0-2.295-.033-.282-.02-.514-.02-.514-.103 0-.065.032-.065.1-.1.083-.028.233-.148.132-.378l-1.303-3.221c-.033-.062-.052-.083-.135-.083h-3.351c-.068 0-.118.035-.151.117l-.826 2.248c-.131.348-.211.69-.211.939 0 .283.245.379.493.379h.13c.116 0 .152.05.152.117 0 .085-.082.118-.217.118-.347 0-1.14-.053-1.305-.053-.15 0-.876.053-1.471.053-.18 0-.282-.033-.282-.118 0-.066.07-.117.136-.117.097 0 .312-.016.427-.03.662-.083.943-.581 1.223-1.288l3.419-8.79zM10.813 11.599c.17.177.252.387 0 .64 0 0-1.357 1.373-1.623 1.618-.261.247-5.048 1.305-5.048 1.305-.26.048-.455.187-.64 0L1.98 13.639c-.16-.16-.286-.472.027-.611l5.043-1.294-1.365-1.368-3.161.715c-.303.042-.502.15-.633 0L.173 9.362c-.157-.157-.304-.502.028-.608l3.184-.681L.683 5.37c-.105-.107-.291-.346-.011-.626l1.313-1.311c.249-.25.463-.17.633 0l8.195 8.165zM3.434 2.62c-.173-.17-.25-.384 0-.636L4.746.67c.28-.274.52-.092.621.014L8.07 3.387 8.753.2c.106-.33.451-.186.61-.028l1.714 1.714c.153.137.044.334 0 .637l-.71 3.16 1.364 1.366 1.294-5.045c.143-.31.453-.185.61-.023l1.524 1.52c.186.188.052.384 0 .64 0 0-1.056 4.787-1.3 5.053-.247.259-1.622 1.619-1.622 1.619-.253.255-.465.174-.635 0L3.434 2.62zM11.602 20.761c.17-.173.384-.258.636 0 0 0 1.373 1.356 1.62 1.621.248.263 1.302 5.053 1.302 5.053.05.256.187.45 0 .634l-1.525 1.525c-.157.157-.468.286-.61-.024l-1.293-5.046-1.365 1.37.71 3.158c.043.303.152.501 0 .633l-1.714 1.718c-.16.16-.505.302-.61-.025l-.68-3.19-2.704 2.701c-.104.107-.345.292-.623.016l-1.312-1.314c-.25-.256-.173-.468 0-.639l8.168-8.19zM2.619 28.14c-.17.17-.385.25-.636 0l-1.31-1.313c-.282-.28-.095-.516.014-.625l2.698-2.694L.2 22.82c-.331-.11-.186-.451-.028-.61l1.718-1.713c.131-.153.328-.045.634 0l3.158.709 1.367-1.365-5.044-1.291c-.312-.143-.187-.455-.026-.613l1.525-1.526c.183-.185.38-.048.637 0 0 0 4.789 1.057 5.049 1.305.264.244 1.623 1.62 1.623 1.62.253.25.171.465 0 .636L2.619 28.14zM20.763 19.975c-.171-.177-.253-.384 0-.637 0 0 1.357-1.377 1.62-1.62.263-.249 5.051-1.304 5.051-1.304.256-.05.452-.187.637 0l1.526 1.525c.158.156.288.468-.027.612l-5.044 1.29 1.365 1.368 3.16-.712c.304-.046.504-.152.636.001l1.716 1.713c.159.16.303.504-.029.612l-3.183.684 2.7 2.694c.103.11.289.348.012.626l-1.311 1.313c-.249.25-.466.17-.637 0l-8.192-8.165z" fill="#000" opacity=".8"/><g transform="translate(16 20.577)"><mask id="b" fill="#fff"><use xlink:href="#a"/></mask><path d="M12.141 8.378c.171.171.252.38 0 .638l-1.31 1.312c-.28.276-.521.091-.627-.016L7.506 7.61l-.685 3.191c-.104.33-.451.184-.61.026L4.5 9.11c-.156-.132-.048-.33 0-.634l.708-3.158-1.365-1.37-1.294 5.046c-.143.314-.451.185-.611.024L.413 7.494c-.186-.187-.051-.376 0-.636 0 0 1.056-4.787 1.299-5.052A130.38 130.38 0 0 1 3.338.186c.251-.252.464-.175.634 0l8.169 8.192z" fill="#000" opacity=".8" mask="url(#b)"/></g><path d="M19.974 10.813c-.174.174-.387.257-.637 0 0 0-1.373-1.357-1.625-1.618-.242-.268-1.3-5.053-1.3-5.053-.05-.256-.184-.453 0-.641l1.527-1.52c.16-.157.466-.286.607.025l1.297 5.043 1.364-1.365-.709-3.158c-.046-.304-.155-.508 0-.64L22.21.173c.16-.156.503-.302.613.027l.68 3.19 2.7-2.703c.108-.108.346-.29.625-.016l1.314 1.314c.25.252.17.464 0 .637l-8.168 8.192zM28.954 3.434c.17-.17.387-.25.639 0L30.9 4.748c.279.275.094.517-.012.623l-2.701 2.7 3.187.682c.332.106.185.452.026.608l-1.714 1.718c-.135.152-.331.041-.635 0l-3.16-.712-1.365 1.365 5.043 1.296c.31.14.182.452.028.61l-1.526 1.524c-.185.185-.381.052-.637.003 0 0-4.788-1.055-5.052-1.307-.262-.246-1.62-1.618-1.62-1.618-.253-.254-.173-.465 0-.64l8.19-8.166z" fill="#000" opacity=".8"/></g></svg>